STARTFONT 2.1
COMMENT
COMMENT Converted from OpenType font "Montserrat-Regular.otf" by "otf2bdf 3.0".
COMMENT
FONT -FreeType-Montserrat-Medium-R-Normal--21-200-75-75-P-113-ISO10646-1
SIZE 20 75 75
FONTBOUNDINGBOX 50 27 -17 -5
STARTPROPERTIES 19
FOUNDRY "FreeType"
FAMILY_NAME "Montserrat"
WEIGHT_NAME "Medium"
SLANT "R"
SETWIDTH_NAME "Normal"
ADD_STYLE_NAME ""
PIXEL_SIZE 21
POINT_SIZE 200
RESOLUTION_X 75
RESOLUTION_Y 75
SPACING "P"
AVERAGE_WIDTH 113
CHARSET_REGISTRY "ISO10646"
CHARSET_ENCODING "1"
FONT_ASCENT 20
FONT_DESCENT 5
COPYRIGHT "Copyright 2011 The Montserrat Project Authors (https://github.com/JulietaUla/Montserrat)"
_OTF_FONTFILE "Montserrat-Regular.otf"
_OTF_PSNAME "Montserrat-Regular"
ENDPROPERTIES
CHARS 969
STARTCHAR 0000
ENCODING 0
SWIDTH 0 0
DWIDTH 0 0
BBX 0 0 0 0
BITMAP
ENDCHAR
STARTCHAR 000D
ENCODING 13
SWIDTH 240 0
DWIDTH 5 0
BBX 0 0 0 0
BITMAP
ENDCHAR
STARTCHAR 0020
ENCODING 32
SWIDTH 240 0
DWIDTH 5 0
BBX 0 0 0 0
BITMAP
ENDCHAR
STARTCHAR 0021
ENCODING 33
SWIDTH 240 0
DWIDTH 5 0
BBX 2 15 2 0
BITMAP
C0
C0
C0
80
80
80
80
80
80
80
00
00
00
C0
C0
ENDCHAR
STARTCHAR 0022
ENCODING 34
SWIDTH 384 0
DWIDTH 8 0
BBX 5 6 1 9
BITMAP
C8
C8
C8
C8
48
48
ENDCHAR
STARTCHAR 0023
ENCODING 35
SWIDTH 720 0
DWIDTH 15 0
BBX 13 15 1 0
BITMAP
0840
0840
0840
1840
FFF8
1040
10C0
10C0
1080
1080
FFF0
3080
3080
2080
2080
ENDCHAR
STARTCHAR 0024
ENCODING 36
SWIDTH 624 0
DWIDTH 13 0
BBX 11 20 1 -3
BITMAP
0400
0400
1F80
75C0
4400
C400
C400
4400
7400
1F00
07C0
0460
0460
0460
8460
F5C0
3F00
0400
0400
0400
ENDCHAR
STARTCHAR 0025
ENCODING 37
SWIDTH 816 0
DWIDTH 17 0
BBX 15 15 1 0
BITMAP
7808
C410
8430
8420
8440
84C0
C480
793C
0362
0242
0442
0C42
0842
1062
303C
ENDCHAR
STARTCHAR 0026
ENCODING 38
SWIDTH 672 0
DWIDTH 14 0
BBX 12 15 1 0
BITMAP
1F00
3180
2080
2080
3100
1300
0C00
3C00
6610
C330
C1A0
80E0
C060
61B0
3F10
ENDCHAR
STARTCHAR 0027
ENCODING 39
SWIDTH 192 0
DWIDTH 4 0
BBX 2 6 1 9
BITMAP
C0
C0
C0
C0
40
40
ENDCHAR
STARTCHAR 0028
ENCODING 40
SWIDTH 336 0
DWIDTH 7 0
BBX 4 20 2 -4
BITMAP
30
20
60
40
40
40
C0
C0
C0
C0
C0
C0
C0
C0
40
40
40
60
20
30
ENDCHAR
STARTCHAR 0029
ENCODING 41
SWIDTH 336 0
DWIDTH 7 0
BBX 4 20 1 -4
BITMAP
C0
40
40
60
20
20
20
30
30
30
30
30
30
20
20
20
60
40
40
C0
ENDCHAR
STARTCHAR 002A
ENCODING 42
SWIDTH 384 0
DWIDTH 8 0
BBX 6 7 1 8
BITMAP
20
20
EC
78
78
A4
20
ENDCHAR
STARTCHAR 002B
ENCODING 43
SWIDTH 576 0
DWIDTH 12 0
BBX 10 9 1 3
BITMAP
0C00
0C00
0C00
0C00
FFC0
0C00
0C00
0C00
0C00
ENDCHAR
STARTCHAR 002C
ENCODING 44
SWIDTH 192 0
DWIDTH 4 0
BBX 2 5 1 -3
BITMAP
C0
C0
40
40
80
ENDCHAR
STARTCHAR 002D
ENCODING 45
SWIDTH 384 0
DWIDTH 8 0
BBX 6 1 1 5
BITMAP
FC
ENDCHAR
STARTCHAR 002E
ENCODING 46
SWIDTH 192 0
DWIDTH 4 0
BBX 2 2 1 0
BITMAP
C0
C0
ENDCHAR
STARTCHAR 002F
ENCODING 47
SWIDTH 336 0
DWIDTH 7 0
BBX 8 20 0 -2
BITMAP
03
02
02
06
04
04
0C
08
08
18
10
30
20
20
60
40
40
C0
80
80
ENDCHAR
STARTCHAR 0030
ENCODING 48
SWIDTH 672 0
DWIDTH 14 0
BBX 12 15 1 0
BITMAP
0F00
39C0
6040
4060
C020
C030
C030
C030
C030
C030
C020
4060
6040
39C0
0F00
ENDCHAR
STARTCHAR 0031
ENCODING 49
SWIDTH 384 0
DWIDTH 8 0
BBX 5 15 0 0
BITMAP
F8
08
08
08
08
08
08
08
08
08
08
08
08
08
08
ENDCHAR
STARTCHAR 0032
ENCODING 50
SWIDTH 576 0
DWIDTH 12 0
BBX 10 15 1 0
BITMAP
3E00
E380
8180
0080
0080
0080
0180
0300
0600
0C00
1800
3000
6000
C000
FFC0
ENDCHAR
STARTCHAR 0033
ENCODING 51
SWIDTH 576 0
DWIDTH 12 0
BBX 10 15 1 0
BITMAP
FF80
0180
0300
0200
0600
0C00
1800
1F00
0180
00C0
00C0
00C0
8080
E380
7E00
ENDCHAR
STARTCHAR 0034
ENCODING 52
SWIDTH 672 0
DWIDTH 14 0
BBX 12 15 1 0
BITMAP
0180
0300
0200
0600
0C00
1800
30C0
20C0
60C0
C0C0
FFF0
00C0
00C0
00C0
00C0
ENDCHAR
STARTCHAR 0035
ENCODING 53
SWIDTH 576 0
DWIDTH 12 0
BBX 10 15 1 0
BITMAP
7F80
6000
4000
4000
4000
4000
7E00
0380
00C0
00C0
00C0
00C0
80C0
E380
3E00
ENDCHAR
STARTCHAR 0036
ENCODING 54
SWIDTH 624 0
DWIDTH 13 0
BBX 11 15 1 0
BITMAP
0FC0
38C0
6000
4000
C000
C000
CF80
F1C0
E060
C060
C020
4060
6060
31C0
1F00
ENDCHAR
STARTCHAR 0037
ENCODING 55
SWIDTH 576 0
DWIDTH 12 0
BBX 10 15 1 0
BITMAP
FFC0
8040
80C0
8080
0180
0100
0300
0300
0600
0600
0400
0C00
0800
1800
1000
ENDCHAR
STARTCHAR 0038
ENCODING 56
SWIDTH 624 0
DWIDTH 13 0
BBX 11 15 1 0
BITMAP
1F00
71C0
6040
4060
4060
4040
70C0
3F80
60C0
C060
C020
C020
C060
71C0
1F80
ENDCHAR
STARTCHAR 0039
ENCODING 57
SWIDTH 624 0
DWIDTH 13 0
BBX 11 15 1 0
BITMAP
3E00
6380
C080
80C0
8040
80C0
C0E0
6360
3E60
0040
0040
00C0
0180
4300
7E00
ENDCHAR
STARTCHAR 003A
ENCODING 58
SWIDTH 192 0
DWIDTH 4 0
BBX 2 11 1 0
BITMAP
C0
C0
00
00
00
00
00
00
00
C0
C0
ENDCHAR
STARTCHAR 003B
ENCODING 59
SWIDTH 192 0
DWIDTH 4 0
BBX 2 14 1 -3
BITMAP
C0
C0
00
00
00
00
00
00
00
C0
C0
40
40
80
ENDCHAR
STARTCHAR 003C
ENCODING 60
SWIDTH 576 0
DWIDTH 12 0
BBX 10 9 1 3
BITMAP
0040
01C0
0E00
3800
C000
7000
1C00
0380
00C0
ENDCHAR
STARTCHAR 003D
ENCODING 61
SWIDTH 576 0
DWIDTH 12 0
BBX 10 6 1 4
BITMAP
FFC0
0000
0000
0000
0000
FFC0
ENDCHAR
STARTCHAR 003E
ENCODING 62
SWIDTH 576 0
DWIDTH 12 0
BBX 10 9 1 3
BITMAP
8000
E000
1C00
0700
00C0
0380
0E00
7000
C000
ENDCHAR
STARTCHAR 003F
ENCODING 63
SWIDTH 576 0
DWIDTH 12 0
BBX 9 15 1 0
BITMAP
3E00
E380
8180
0080
0080
0180
0300
0600
0C00
0C00
0000
0000
0000
0C00
0C00
ENDCHAR
STARTCHAR 0040
ENCODING 64
SWIDTH 1056 0
DWIDTH 22 0
BBX 19 19 1 -4
BITMAP
03F800
0E0600
180180
2000C0
61F240
431A20
C60620
840620
8C0220
8C0220
8C0220
840620
C60620
431A60
61F3C0
200000
180000
0E0400
03F800
ENDCHAR
STARTCHAR 0041
ENCODING 65
SWIDTH 720 0
DWIDTH 15 0
BBX 15 15 0 0
BITMAP
0300
0380
0280
06C0
0440
0C60
0820
1830
1030
3010
3FF8
2008
600C
4004
C006
ENDCHAR
STARTCHAR 0042
ENCODING 66
SWIDTH 768 0
DWIDTH 16 0
BBX 13 15 2 0
BITMAP
FFC0
C0E0
C030
C030
C030
C020
C0E0
FFC0
C030
C010
C018
C018
C010
C070
FFC0
ENDCHAR
STARTCHAR 0043
ENCODING 67
SWIDTH 720 0
DWIDTH 15 0
BBX 13 15 1 0
BITMAP
07E0
1C70
3018
6000
4000
C000
C000
C000
C000
C000
4000
6000
3018
1C70
07E0
ENDCHAR
STARTCHAR 0044
ENCODING 68
SWIDTH 816 0
DWIDTH 17 0
BBX 14 15 2 0
BITMAP
FF80
C0E0
C030
C018
C00C
C00C
C004
C004
C004
C00C
C00C
C018
C030
C0E0
FF80
ENDCHAR
STARTCHAR 0045
ENCODING 69
SWIDTH 672 0
DWIDTH 14 0
BBX 11 15 2 0
BITMAP
FFC0
C000
C000
C000
C000
C000
C000
FF80
C000
C000
C000
C000
C000
C000
FFE0
ENDCHAR
STARTCHAR 0046
ENCODING 70
SWIDTH 624 0
DWIDTH 13 0
BBX 10 15 2 0
BITMAP
FFC0
C000
C000
C000
C000
C000
C000
FF80
C000
C000
C000
C000
C000
C000
C000
ENDCHAR
STARTCHAR 0047
ENCODING 71
SWIDTH 768 0
DWIDTH 16 0
BBX 13 15 1 0
BITMAP
07E0
1C78
3008
6000
4000
C000
C000
C008
C008
C008
4008
6008
3008
1C78
07E0
ENDCHAR
STARTCHAR 0048
ENCODING 72
SWIDTH 816 0
DWIDTH 17 0
BBX 13 15 2 0
BITMAP
C018
C018
C018
C018
C018
C018
C018
FFF8
C018
C018
C018
C018
C018
C018
C018
ENDCHAR
STARTCHAR 0049
ENCODING 73
SWIDTH 288 0
DWIDTH 6 0
BBX 2 15 2 0
BITMAP
C0
C0
C0
C0
C0
C0
C0
C0
C0
C0
C0
C0
C0
C0
C0
ENDCHAR
STARTCHAR 004A
ENCODING 74
SWIDTH 480 0
DWIDTH 10 0
BBX 8 15 0 0
BITMAP
7F
01
01
01
01
01
01
01
01
01
01
01
83
E6
3C
ENDCHAR
STARTCHAR 004B
ENCODING 75
SWIDTH 720 0
DWIDTH 15 0
BBX 12 15 2 0
BITMAP
C030
C060
C0C0
C180
C300
C600
CC00
DE00
F600
E300
C180
C0C0
C060
C020
C030
ENDCHAR
STARTCHAR 004C
ENCODING 76
SWIDTH 576 0
DWIDTH 12 0
BBX 10 15 2 0
BITMAP
C000
C000
C000
C000
C000
C000
C000
C000
C000
C000
C000
C000
C000
C000
FFC0
ENDCHAR
STARTCHAR 004D
ENCODING 77
SWIDTH 960 0
DWIDTH 20 0
BBX 16 15 2 0
BITMAP
C003
C007
E007
F00F
D00B
D81B
C813
CC23
C463
C243
C3C3
C183
C183
C003
C003
ENDCHAR
STARTCHAR 004E
ENCODING 78
SWIDTH 816 0
DWIDTH 17 0
BBX 13 15 2 0
BITMAP
C018
E018
F018
F018
D818
CC18
C618
C618
C318
C198
C0D8
C078
C078
C038
C018
ENDCHAR
STARTCHAR 004F
ENCODING 79
SWIDTH 816 0
DWIDTH 17 0
BBX 15 15 1 0
BITMAP
07E0
1C70
301C
600C
4006
C002
C002
C002
C002
C002
4006
600C
301C
1C70
07E0
ENDCHAR
STARTCHAR 0050
ENCODING 80
SWIDTH 720 0
DWIDTH 15 0
BBX 12 15 2 0
BITMAP
FF80
C1C0
C060
C030
C030
C030
C030
C020
C0E0
FF80
C000
C000
C000
C000
C000
ENDCHAR
STARTCHAR 0051
ENCODING 81
SWIDTH 816 0
DWIDTH 17 0
BBX 16 18 1 -3
BITMAP
07E0
1C70
301C
600C
4006
C002
C002
C002
C002
C002
4006
6004
300C
1C38
0FE0
00C0
0063
003E
ENDCHAR
STARTCHAR 0052
ENCODING 82
SWIDTH 720 0
DWIDTH 15 0
BBX 12 15 2 0
BITMAP
FF80
C1C0
C060
C030
C030
C030
C030
C020
C0E0
FF80
C180
C0C0
C040
C060
C030
ENDCHAR
STARTCHAR 0053
ENCODING 83
SWIDTH 624 0
DWIDTH 13 0
BBX 11 15 1 0
BITMAP
1F80
71C0
4000
C000
C000
4000
7000
1F00
03C0
0060
0060
0060
8060
F1C0
3F00
ENDCHAR
STARTCHAR 0054
ENCODING 84
SWIDTH 576 0
DWIDTH 12 0
BBX 12 15 0 0
BITMAP
FFF0
0600
0600
0600
0600
0600
0600
0600
0600
0600
0600
0600
0600
0600
0600
ENDCHAR
STARTCHAR 0055
ENCODING 85
SWIDTH 816 0
DWIDTH 17 0
BBX 12 15 2 0
BITMAP
C010
C010
C010
C010
C010
C010
C010
C010
C010
C010
C030
4030
6060
38E0
1F80
ENDCHAR
STARTCHAR 0056
ENCODING 86
SWIDTH 720 0
DWIDTH 15 0
BBX 14 15 0 0
BITMAP
C004
400C
6008
2018
3018
3010
1030
1820
0860
0C40
04C0
06C0
0680
0380
0300
ENDCHAR
STARTCHAR 0057
ENCODING 87
SWIDTH 1104 0
DWIDTH 23 0
BBX 21 15 1 0
BITMAP
C03008
C07018
405018
405010
60D830
208830
208820
318C60
110460
110440
1B06C0
0A02C0
0A0280
0E0380
040180
ENDCHAR
STARTCHAR 0058
ENCODING 88
SWIDTH 672 0
DWIDTH 14 0
BBX 12 15 1 0
BITMAP
C030
6060
60C0
3080
1980
0B00
0E00
0600
0F00
1900
1180
30C0
6060
C060
8030
ENDCHAR
STARTCHAR 0059
ENCODING 89
SWIDTH 624 0
DWIDTH 13 0
BBX 13 15 0 0
BITMAP
C018
6010
6030
3020
1060
18C0
0C80
0D80
0700
0300
0200
0200
0200
0200
0200
ENDCHAR
STARTCHAR 005A
ENCODING 90
SWIDTH 672 0
DWIDTH 14 0
BBX 12 15 1 0
BITMAP
FFF0
0060
0060
00C0
0180
0300
0200
0600
0C00
1800
1000
3000
6000
C000
FFF0
ENDCHAR
STARTCHAR 005B
ENCODING 91
SWIDTH 336 0
DWIDTH 7 0
BBX 4 20 2 -4
BITMAP
F0
C0
C0
C0
C0
C0
C0
C0
C0
C0
C0
C0
C0
C0
C0
C0
C0
C0
C0
F0
ENDCHAR
STARTCHAR 005C
ENCODING 92
SWIDTH 336 0
DWIDTH 7 0
BBX 8 20 -1 -2
BITMAP
C0
40
40
60
20
20
30
10
10
18
08
0C
04
04
06
02
02
03
01
01
ENDCHAR
STARTCHAR 005D
ENCODING 93
SWIDTH 336 0
DWIDTH 7 0
BBX 4 20 0 -4
BITMAP
F0
10
10
10
10
10
10
10
10
10
10
10
10
10
10
10
10
10
10
F0
ENDCHAR
STARTCHAR 005E
ENCODING 94
SWIDTH 576 0
DWIDTH 12 0
BBX 8 8 2 3
BITMAP
18
18
24
24
66
42
42
81
ENDCHAR
STARTCHAR 005F
ENCODING 95
SWIDTH 480 0
DWIDTH 10 0
BBX 10 1 0 -1
BITMAP
FFC0
ENDCHAR
STARTCHAR 0060
ENCODING 96
SWIDTH 624 0
DWIDTH 13 0
BBX 4 3 3 12
BITMAP
C0
20
10
ENDCHAR
STARTCHAR 0061
ENCODING 97
SWIDTH 576 0
DWIDTH 12 0
BBX 9 11 1 0
BITMAP
3E00
E380
0180
0080
0080
3F80
C080
C080
C180
6380
3E80
ENDCHAR
STARTCHAR 0062
ENCODING 98
SWIDTH 672 0
DWIDTH 14 0
BBX 11 16 2 0
BITMAP
C000
C000
C000
C000
C000
DF00
F1C0
E040
C060
C020
C020
C020
C060
E040
B1C0
9F00
ENDCHAR
STARTCHAR 0063
ENCODING 99
SWIDTH 576 0
DWIDTH 12 0
BBX 9 11 1 0
BITMAP
1F00
3180
6080
C000
C000
8000
C000
C000
6080
3180
1F00
ENDCHAR
STARTCHAR 0064
ENCODING 100
SWIDTH 672 0
DWIDTH 14 0
BBX 11 16 1 0
BITMAP
0020
0020
0020
0020
0020
1F20
31A0
60E0
C060
C060
8020
C060
C060
60E0
31A0
1F20
ENDCHAR
STARTCHAR 0065
ENCODING 101
SWIDTH 624 0
DWIDTH 13 0
BBX 11 11 1 0
BITMAP
1F00
3180
40C0
C040
8060
FFE0
8000
C000
6000
31C0
1F00
ENDCHAR
STARTCHAR 0066
ENCODING 102
SWIDTH 336 0
DWIDTH 7 0
BBX 8 16 0 0
BITMAP
0F
18
30
30
30
FE
30
30
30
30
30
30
30
30
30
30
ENDCHAR
STARTCHAR 0067
ENCODING 103
SWIDTH 672 0
DWIDTH 14 0
BBX 11 15 1 -4
BITMAP
1F20
71A0
4060
C060
8020
8020
C020
4060
60E0
3F20
0020
0060
4060
71C0
1F80
ENDCHAR
STARTCHAR 0068
ENCODING 104
SWIDTH 672 0
DWIDTH 14 0
BBX 10 16 2 0
BITMAP
C000
C000
C000
C000
C000
DF00
F180
C0C0
C0C0
C040
C040
C040
C040
C040
C040
C040
ENDCHAR
STARTCHAR 0069
ENCODING 105
SWIDTH 288 0
DWIDTH 6 0
BBX 2 16 2 0
BITMAP
C0
C0
00
00
00
C0
C0
C0
C0
C0
C0
C0
C0
C0
C0
C0
ENDCHAR
STARTCHAR 006A
ENCODING 106
SWIDTH 288 0
DWIDTH 6 0
BBX 6 20 -2 -4
BITMAP
0C
0C
00
00
00
0C
0C
0C
0C
0C
0C
0C
0C
0C
0C
0C
0C
0C
98
F0
ENDCHAR
STARTCHAR 006B
ENCODING 107
SWIDTH 624 0
DWIDTH 13 0
BBX 10 16 2 0
BITMAP
C000
C000
C000
C000
C000
C080
C300
C600
CC00
D800
FC00
E600
C300
C100
C180
C0C0
ENDCHAR
STARTCHAR 006C
ENCODING 108
SWIDTH 288 0
DWIDTH 6 0
BBX 2 16 2 0
BITMAP
C0
C0
C0
C0
C0
C0
C0
C0
C0
C0
C0
C0
C0
C0
C0
C0
ENDCHAR
STARTCHAR 006D
ENCODING 109
SWIDTH 1056 0
DWIDTH 22 0
BBX 18 11 2 0
BITMAP
9F1F00
B3B180
C0E0C0
C0C0C0
C0C040
C0C040
C0C040
C0C040
C0C040
C0C040
C0C040
ENDCHAR
STARTCHAR 006E
ENCODING 110
SWIDTH 672 0
DWIDTH 14 0
BBX 10 11 2 0
BITMAP
9F00
B180
C0C0
C0C0
C040
C040
C040
C040
C040
C040
C040
ENDCHAR
STARTCHAR 006F
ENCODING 111
SWIDTH 624 0
DWIDTH 13 0
BBX 11 11 1 0
BITMAP
1F00
3180
60C0
C060
C060
8020
C060
C060
60C0
3180
1F00
ENDCHAR
STARTCHAR 0070
ENCODING 112
SWIDTH 672 0
DWIDTH 14 0
BBX 11 15 2 -4
BITMAP
9F00
B1C0
E040
C060
C020
C020
C020
C060
E040
F1C0
DF00
C000
C000
C000
C000
ENDCHAR
STARTCHAR 0071
ENCODING 113
SWIDTH 672 0
DWIDTH 14 0
BBX 11 15 1 -4
BITMAP
1F20
31A0
60E0
C060
C060
8020
C060
C060
60E0
31A0
1F20
0020
0020
0020
0020
ENDCHAR
STARTCHAR 0072
ENCODING 114
SWIDTH 384 0
DWIDTH 8 0
BBX 6 11 2 0
BITMAP
9C
B0
C0
C0
C0
C0
C0
C0
C0
C0
C0
ENDCHAR
STARTCHAR 0073
ENCODING 115
SWIDTH 480 0
DWIDTH 10 0
BBX 8 11 1 0
BITMAP
3E
E3
C0
80
C0
7E
07
01
01
C3
7E
ENDCHAR
STARTCHAR 0074
ENCODING 116
SWIDTH 384 0
DWIDTH 8 0
BBX 7 13 0 0
BITMAP
30
30
FE
30
30
30
30
30
30
30
30
18
0E
ENDCHAR
STARTCHAR 0075
ENCODING 117
SWIDTH 672 0
DWIDTH 14 0
BBX 10 11 2 0
BITMAP
80C0
80C0
80C0
80C0
80C0
80C0
80C0
C0C0
C0C0
6340
3E40
ENDCHAR
STARTCHAR 0076
ENCODING 118
SWIDTH 528 0
DWIDTH 11 0
BBX 11 11 0 0
BITMAP
C020
4060
6040
20C0
3080
3180
1100
1B00
0A00
0E00
0600
ENDCHAR
STARTCHAR 0077
ENCODING 119
SWIDTH 864 0
DWIDTH 18 0
BBX 18 11 0 0
BITMAP
C0C040
40C0C0
40E080
61A180
212100
333100
121300
121A00
1E0A00
0C0E00
0C0C00
ENDCHAR
STARTCHAR 0078
ENCODING 120
SWIDTH 528 0
DWIDTH 11 0
BBX 9 11 1 0
BITMAP
C180
4100
2300
3600
1C00
0800
1400
3600
6300
4180
8080
ENDCHAR
STARTCHAR 0079
ENCODING 121
SWIDTH 528 0
DWIDTH 11 0
BBX 11 15 0 -4
BITMAP
C020
4060
6040
20C0
3080
3180
1100
1B00
0A00
0E00
0600
0400
0C00
9800
F000
ENDCHAR
STARTCHAR 007A
ENCODING 122
SWIDTH 528 0
DWIDTH 11 0
BBX 9 11 1 0
BITMAP
FF80
0100
0200
0600
0C00
1800
1000
3000
6000
C000
FF80
ENDCHAR
STARTCHAR 007B
ENCODING 123
SWIDTH 336 0
DWIDTH 7 0
BBX 6 20 1 -4
BITMAP
1C
30
20
20
20
20
20
20
20
20
E0
20
20
20
20
20
20
20
30
1C
ENDCHAR
STARTCHAR 007C
ENCODING 124
SWIDTH 288 0
DWIDTH 6 0
BBX 2 20 2 -4
BITMAP
C0
C0
C0
C0
C0
C0
C0
C0
C0
C0
C0
C0
C0
C0
C0
C0
C0
C0
C0
C0
ENDCHAR
STARTCHAR 007D
ENCODING 125
SWIDTH 336 0
DWIDTH 7 0
BBX 6 20 0 -4
BITMAP
E0
30
10
10
10
10
10
10
10
10
1C
10
10
10
10
10
10
10
30
E0
ENDCHAR
STARTCHAR 007E
ENCODING 126
SWIDTH 576 0
DWIDTH 12 0
BBX 10 3 1 6
BITMAP
7040
4C80
8780
ENDCHAR
STARTCHAR 00A0
ENCODING 160
SWIDTH 240 0
DWIDTH 5 0
BBX 0 0 0 0
BITMAP
ENDCHAR
STARTCHAR 00A1
ENCODING 161
SWIDTH 240 0
DWIDTH 5 0
BBX 2 14 2 -3
BITMAP
C0
C0
00
00
80
80
80
80
80
80
80
80
C0
C0
ENDCHAR
STARTCHAR 00A2
ENCODING 162
SWIDTH 576 0
DWIDTH 12 0
BBX 9 16 1 -3
BITMAP
0400
0400
1F00
3580
6480
C400
C400
8400
C400
C400
4400
7580
1F00
0400
0400
0400
ENDCHAR
STARTCHAR 00A3
ENCODING 163
SWIDTH 624 0
DWIDTH 13 0
BBX 12 15 1 0
BITMAP
07E0
1C70
1000
3000
3000
2000
2000
FF80
2000
2000
2000
2000
2000
2000
FFF0
ENDCHAR
STARTCHAR 00A4
ENCODING 164
SWIDTH 720 0
DWIDTH 15 0
BBX 13 13 1 0
BITMAP
8018
5FB0
30E0
6020
4030
4010
4010
4010
4030
2060
78E0
CFB0
8010
ENDCHAR
STARTCHAR 00A5
ENCODING 165
SWIDTH 672 0
DWIDTH 14 0
BBX 14 15 0 0
BITMAP
C00C
6008
2018
1030
1820
0C40
04C0
0380
3FF8
0300
0300
3FF8
0300
0300
0300
ENDCHAR
STARTCHAR 00A6
ENCODING 166
SWIDTH 288 0
DWIDTH 6 0
BBX 2 20 2 -4
BITMAP
C0
C0
C0
C0
C0
C0
C0
00
00
00
00
00
00
C0
C0
C0
C0
C0
C0
C0
ENDCHAR
STARTCHAR 00A7
ENCODING 167
SWIDTH 480 0
DWIDTH 10 0
BBX 8 17 1 -2
BITMAP
3F
61
C0
C0
40
78
CE
81
81
C1
73
1E
03
01
01
C2
7C
ENDCHAR
STARTCHAR 00A8
ENCODING 168
SWIDTH 624 0
DWIDTH 13 0
BBX 5 2 4 13
BITMAP
98
98
ENDCHAR
STARTCHAR 00A9
ENCODING 169
SWIDTH 816 0
DWIDTH 17 0
BBX 15 15 1 0
BITMAP
07C0
1830
2008
47C4
8C64
8802
9802
9002
9802
8802
8C64
47C4
2008
1030
0FC0
ENDCHAR
STARTCHAR 00AA
ENCODING 170
SWIDTH 384 0
DWIDTH 8 0
BBX 6 7 1 9
BITMAP
78
8C
04
7C
84
8C
74
ENDCHAR
STARTCHAR 00AB
ENCODING 171
SWIDTH 480 0
DWIDTH 10 0
BBX 8 8 1 1
BITMAP
13
22
64
CC
CC
64
22
13
ENDCHAR
STARTCHAR 00AC
ENCODING 172
SWIDTH 576 0
DWIDTH 12 0
BBX 10 5 1 3
BITMAP
FFC0
00C0
00C0
00C0
00C0
ENDCHAR
STARTCHAR 00AD
ENCODING 173
SWIDTH 384 0
DWIDTH 8 0
BBX 6 1 1 5
BITMAP
FC
ENDCHAR
STARTCHAR 00AE
ENCODING 174
SWIDTH 816 0
DWIDTH 17 0
BBX 15 15 1 0
BITMAP
07C0
1830
2008
47C4
8464
8422
8422
8462
87C2
8442
4444
4424
2008
1030
0FC0
ENDCHAR
STARTCHAR 00AF
ENCODING 175
SWIDTH 624 0
DWIDTH 13 0
BBX 6 1 3 13
BITMAP
FC
ENDCHAR
STARTCHAR 00B0
ENCODING 176
SWIDTH 432 0
DWIDTH 9 0
BBX 7 7 1 8
BITMAP
38
44
82
82
82
44
38
ENDCHAR
STARTCHAR 00B1
ENCODING 177
SWIDTH 576 0
DWIDTH 12 0
BBX 10 12 1 0
BITMAP
0C00
0C00
0C00
0C00
FFC0
0C00
0C00
0C00
0C00
0000
0000
FFC0
ENDCHAR
STARTCHAR 00B2
ENCODING 178
SWIDTH 432 0
DWIDTH 9 0
BBX 7 9 1 7
BITMAP
78
84
04
04
08
10
20
40
FE
ENDCHAR
STARTCHAR 00B3
ENCODING 179
SWIDTH 432 0
DWIDTH 9 0
BBX 7 9 1 7
BITMAP
FC
04
08
10
3C
06
02
86
7C
ENDCHAR
STARTCHAR 00B4
ENCODING 180
SWIDTH 624 0
DWIDTH 13 0
BBX 4 3 5 12
BITMAP
30
60
80
ENDCHAR
STARTCHAR 00B5
ENCODING 181
SWIDTH 672 0
DWIDTH 14 0
BBX 10 15 2 -4
BITMAP
C040
C040
C040
C040
C040
C040
C040
C0C0
C0C0
F340
DE40
C000
C000
C000
C000
ENDCHAR
STARTCHAR 00B6
ENCODING 182
SWIDTH 624 0
DWIDTH 13 0
BBX 11 18 0 -2
BITMAP
3FE0
7C20
7C20
FC20
7C20
7C20
3C20
0420
0420
0420
0420
0420
0420
0420
0420
0420
0420
0420
ENDCHAR
STARTCHAR 00B7
ENCODING 183
SWIDTH 240 0
DWIDTH 5 0
BBX 2 2 2 5
BITMAP
C0
C0
ENDCHAR
STARTCHAR 00B8
ENCODING 184
SWIDTH 624 0
DWIDTH 13 0
BBX 4 5 4 -5
BITMAP
40
70
10
10
E0
ENDCHAR
STARTCHAR 00B9
ENCODING 185
SWIDTH 432 0
DWIDTH 9 0
BBX 6 9 2 7
BITMAP
E0
20
20
20
20
20
20
20
FC
ENDCHAR
STARTCHAR 00BA
ENCODING 186
SWIDTH 432 0
DWIDTH 9 0
BBX 7 7 1 9
BITMAP
78
C4
82
82
82
C4
78
ENDCHAR
STARTCHAR 00BB
ENCODING 187
SWIDTH 480 0
DWIDTH 10 0
BBX 8 8 1 1
BITMAP
C8
44
26
33
32
26
44
88
ENDCHAR
STARTCHAR 00BC
ENCODING 188
SWIDTH 1008 0
DWIDTH 21 0
BBX 19 15 2 0
BITMAP
E00400
200800
201800
201000
202000
206000
204100
208300
FD8200
010400
020880
060880
041FE0
080080
180080
ENDCHAR
STARTCHAR 00BD
ENCODING 189
SWIDTH 1008 0
DWIDTH 21 0
BBX 18 15 2 0
BITMAP
E00400
200800
201800
201000
202000
206000
204F80
2098C0
FD8040
0100C0
020080
060100
040600
080C00
181FC0
ENDCHAR
STARTCHAR 00BE
ENCODING 190
SWIDTH 1008 0
DWIDTH 21 0
BBX 20 15 1 0
BITMAP
FC0200
040400
080C00
100800
3C1000
063000
022080
864180
7CC100
008200
010440
030440
020FF0
040040
0C0040
ENDCHAR
STARTCHAR 00BF
ENCODING 191
SWIDTH 576 0
DWIDTH 12 0
BBX 9 14 2 -3
BITMAP
1800
1800
0000
0000
1800
1800
3000
6000
C000
8000
8000
8080
C180
7F00
ENDCHAR
STARTCHAR 00C0
ENCODING 192
SWIDTH 720 0
DWIDTH 15 0
BBX 15 19 0 0
BITMAP
0C00
0600
0100
0000
0300
0380
0280
06C0
0440
0C60
0820
1830
1030
3010
3FF8
2008
600C
4004
C006
ENDCHAR
STARTCHAR 00C1
ENCODING 193
SWIDTH 720 0
DWIDTH 15 0
BBX 15 19 0 0
BITMAP
0060
00C0
0100
0000
0300
0380
0280
06C0
0440
0C60
0820
1830
1030
3010
3FF8
2008
600C
4004
C006
ENDCHAR
STARTCHAR 00C2
ENCODING 194
SWIDTH 720 0
DWIDTH 15 0
BBX 15 19 0 0
BITMAP
0100
0280
0440
0000
0300
0380
0280
06C0
0440
0C60
0820
1830
1030
3010
3FF8
2008
600C
4004
C006
ENDCHAR
STARTCHAR 00C3
ENCODING 195
SWIDTH 720 0
DWIDTH 15 0
BBX 15 19 0 0
BITMAP
0620
0960
00C0
0000
0300
0380
0280
06C0
0440
0C60
0820
1830
1030
3010
3FF8
2008
600C
4004
C006
ENDCHAR
STARTCHAR 00C4
ENCODING 196
SWIDTH 720 0
DWIDTH 15 0
BBX 15 19 0 0
BITMAP
0440
0440
0000
0000
0300
0380
0280
06C0
0440
0C60
0820
1830
1030
3010
3FF8
2008
600C
4004
C006
ENDCHAR
STARTCHAR 00C5
ENCODING 197
SWIDTH 720 0
DWIDTH 15 0
BBX 15 21 0 0
BITMAP
0100
0680
0440
0480
0300
0000
0300
0380
0280
06C0
0440
0C60
0820
1830
1030
3010
3FF8
2008
600C
4004
C006
ENDCHAR
STARTCHAR 00C6
ENCODING 198
SWIDTH 1056 0
DWIDTH 22 0
BBX 20 15 0 0
BITMAP
007FF0
00E000
01A000
012000
032000
022000
062000
0C3FE0
082000
182000
1FE000
302000
202000
602000
C03FF0
ENDCHAR
STARTCHAR 00C7
ENCODING 199
SWIDTH 720 0
DWIDTH 15 0
BBX 13 20 1 -5
BITMAP
07E0
1C70
3018
6000
4000
C000
C000
C000
C000
C000
4000
6000
3018
1C70
07E0
0100
0180
0080
0080
0300
ENDCHAR
STARTCHAR 00C8
ENCODING 200
SWIDTH 672 0
DWIDTH 14 0
BBX 11 19 2 0
BITMAP
3000
1800
0400
0000
FFC0
C000
C000
C000
C000
C000
C000
FF80
C000
C000
C000
C000
C000
C000
FFE0
ENDCHAR
STARTCHAR 00C9
ENCODING 201
SWIDTH 672 0
DWIDTH 14 0
BBX 11 19 2 0
BITMAP
0180
0200
0400
0000
FFC0
C000
C000
C000
C000
C000
C000
FF80
C000
C000
C000
C000
C000
C000
FFE0
ENDCHAR
STARTCHAR 00CA
ENCODING 202
SWIDTH 672 0
DWIDTH 14 0
BBX 11 19 2 0
BITMAP
0400
0A00
3100
0000
FFC0
C000
C000
C000
C000
C000
C000
FF80
C000
C000
C000
C000
C000
C000
FFE0
ENDCHAR
STARTCHAR 00CB
ENCODING 203
SWIDTH 672 0
DWIDTH 14 0
BBX 11 19 2 0
BITMAP
1100
1300
0000
0000
FFC0
C000
C000
C000
C000
C000
C000
FF80
C000
C000
C000
C000
C000
C000
FFE0
ENDCHAR
STARTCHAR 00CC
ENCODING 204
SWIDTH 288 0
DWIDTH 6 0
BBX 4 19 0 0
BITMAP
C0
60
30
00
30
30
30
30
30
30
30
30
30
30
30
30
30
30
30
ENDCHAR
STARTCHAR 00CD
ENCODING 205
SWIDTH 288 0
DWIDTH 6 0
BBX 5 19 2 0
BITMAP
18
60
C0
00
C0
C0
C0
C0
C0
C0
C0
C0
C0
C0
C0
C0
C0
C0
C0
ENDCHAR
STARTCHAR 00CE
ENCODING 206
SWIDTH 288 0
DWIDTH 6 0
BBX 6 19 0 0
BITMAP
30
78
C4
00
30
30
30
30
30
30
30
30
30
30
30
30
30
30
30
ENDCHAR
STARTCHAR 00CF
ENCODING 207
SWIDTH 288 0
DWIDTH 6 0
BBX 6 19 0 0
BITMAP
4C
CC
00
00
30
30
30
30
30
30
30
30
30
30
30
30
30
30
30
ENDCHAR
STARTCHAR 00D0
ENCODING 208
SWIDTH 816 0
DWIDTH 17 0
BBX 16 15 0 0
BITMAP
3FE0
3038
300C
3006
3003
3003
3001
FF01
3001
3003
3003
3006
300C
3038
3FE0
ENDCHAR
STARTCHAR 00D1
ENCODING 209
SWIDTH 816 0
DWIDTH 17 0
BBX 13 19 2 0
BITMAP
0C40
12C0
0180
0000
C018
E018
F018
F018
D818
CC18
C618
C618
C318
C198
C0D8
C078
C078
C038
C018
ENDCHAR
STARTCHAR 00D2
ENCODING 210
SWIDTH 816 0
DWIDTH 17 0
BBX 15 19 1 0
BITMAP
0C00
0200
0180
0000
07E0
1C70
301C
600C
4006
C002
C002
C002
C002
C002
4006
600C
301C
1C70
07E0
ENDCHAR
STARTCHAR 00D3
ENCODING 211
SWIDTH 816 0
DWIDTH 17 0
BBX 15 19 1 0
BITMAP
0060
00C0
0100
0000
07E0
1C70
301C
600C
4006
C002
C002
C002
C002
C002
4006
600C
301C
1C70
07E0
ENDCHAR
STARTCHAR 00D4
ENCODING 212
SWIDTH 816 0
DWIDTH 17 0
BBX 15 19 1 0
BITMAP
0180
02C0
0460
0000
07E0
1C70
301C
600C
4006
C002
C002
C002
C002
C002
4006
600C
301C
1C70
07E0
ENDCHAR
STARTCHAR 00D5
ENCODING 213
SWIDTH 816 0
DWIDTH 17 0
BBX 15 19 1 0
BITMAP
0620
0520
08C0
0000
07E0
1C70
301C
600C
4006
C002
C002
C002
C002
C002
4006
600C
301C
1C70
07E0
ENDCHAR
STARTCHAR 00D6
ENCODING 214
SWIDTH 816 0
DWIDTH 17 0
BBX 15 18 1 0
BITMAP
0640
0640
0000
07E0
1C70
301C
600C
4006
C002
C002
C002
C002
C002
4006
600C
301C
1C70
07E0
ENDCHAR
STARTCHAR 00D7
ENCODING 215
SWIDTH 576 0
DWIDTH 12 0
BBX 8 7 2 4
BITMAP
42
66
3C
18
3C
66
C3
ENDCHAR
STARTCHAR 00D8
ENCODING 216
SWIDTH 816 0
DWIDTH 17 0
BBX 15 17 1 -1
BITMAP
0004
07E8
1C78
301C
6024
4046
C0C2
C082
C102
C302
C202
4406
680C
381C
1C70
27E0
6000
ENDCHAR
STARTCHAR 00D9
ENCODING 217
SWIDTH 816 0
DWIDTH 17 0
BBX 12 19 2 0
BITMAP
1800
0C00
0600
0000
C010
C010
C010
C010
C010
C010
C010
C010
C010
C010
C030
4030
6060
38E0
1F80
ENDCHAR
STARTCHAR 00DA
ENCODING 218
SWIDTH 816 0
DWIDTH 17 0
BBX 12 19 2 0
BITMAP
00C0
0100
0600
0000
C010
C010
C010
C010
C010
C010
C010
C010
C010
C010
C030
4030
6060
38E0
1F80
ENDCHAR
STARTCHAR 00DB
ENCODING 219
SWIDTH 816 0
DWIDTH 17 0
BBX 12 19 2 0
BITMAP
0600
0F00
1880
0000
C010
C010
C010
C010
C010
C010
C010
C010
C010
C010
C030
4030
6060
38E0
1F80
ENDCHAR
STARTCHAR 00DC
ENCODING 220
SWIDTH 816 0
DWIDTH 17 0
BBX 12 19 2 0
BITMAP
0980
0980
0000
0000
C010
C010
C010
C010
C010
C010
C010
C010
C010
C010
C030
4030
6060
38E0
1F80
ENDCHAR
STARTCHAR 00DD
ENCODING 221
SWIDTH 624 0
DWIDTH 13 0
BBX 13 19 0 0
BITMAP
00C0
0180
0200
0000
C018
6010
6030
3020
1060
18C0
0C80
0D80
0700
0300
0200
0200
0200
0200
0200
ENDCHAR
STARTCHAR 00DE
ENCODING 222
SWIDTH 720 0
DWIDTH 15 0
BBX 12 15 2 0
BITMAP
C000
C000
FF80
C1C0
C060
C030
C030
C030
C030
C020
C0E0
FF80
C000
C000
C000
ENDCHAR
STARTCHAR 00DF
ENCODING 223
SWIDTH 672 0
DWIDTH 14 0
BBX 11 16 2 0
BITMAP
1F00
7380
4080
C0C0
C0C0
C080
C180
C700
C1C0
C060
C060
C060
C060
C060
C1C0
CF80
ENDCHAR
STARTCHAR 00E0
ENCODING 224
SWIDTH 576 0
DWIDTH 12 0
BBX 9 15 1 0
BITMAP
3000
1800
0400
0000
3E00
E380
0180
0080
0080
3F80
C080
C080
C180
6380
3E80
ENDCHAR
STARTCHAR 00E1
ENCODING 225
SWIDTH 576 0
DWIDTH 12 0
BBX 9 15 1 0
BITMAP
0300
0400
0800
0000
3E00
E380
0180
0080
0080
3F80
C080
C080
C180
6380
3E80
ENDCHAR
STARTCHAR 00E2
ENCODING 226
SWIDTH 576 0
DWIDTH 12 0
BBX 9 15 1 0
BITMAP
0C00
1200
2100
0000
3E00
E380
0180
0080
0080
3F80
C080
C080
C180
6380
3E80
ENDCHAR
STARTCHAR 00E3
ENCODING 227
SWIDTH 576 0
DWIDTH 12 0
BBX 9 15 1 0
BITMAP
3900
2900
0600
0000
3E00
E380
0180
0080
0080
3F80
C080
C080
C180
6380
3E80
ENDCHAR
STARTCHAR 00E4
ENCODING 228
SWIDTH 576 0
DWIDTH 12 0
BBX 9 15 1 0
BITMAP
3200
3300
0000
0000
3E00
E380
0180
0080
0080
3F80
C080
C080
C180
6380
3E80
ENDCHAR
STARTCHAR 00E5
ENCODING 229
SWIDTH 576 0
DWIDTH 12 0
BBX 9 17 1 0
BITMAP
0C00
1200
1200
1200
0C00
0000
3E00
E380
0180
0080
0080
3F80
C080
C080
C180
6380
3E80
ENDCHAR
STARTCHAR 00E6
ENCODING 230
SWIDTH 1008 0
DWIDTH 21 0
BBX 19 11 1 0
BITMAP
3E1F00
E33180
01C0C0
00C040
008040
3FFFE0
C08000
C0C000
C1C000
6371C0
3E1F00
ENDCHAR
STARTCHAR 00E7
ENCODING 231
SWIDTH 576 0
DWIDTH 12 0
BBX 9 16 1 -5
BITMAP
1F00
3180
6080
C000
C000
8000
C000
C000
6080
3180
1F00
0800
0E00
0200
0200
1C00
ENDCHAR
STARTCHAR 00E8
ENCODING 232
SWIDTH 624 0
DWIDTH 13 0
BBX 11 15 1 0
BITMAP
3000
0800
0600
0000
1F00
3180
40C0
C040
8060
FFE0
8000
C000
6000
31C0
1F00
ENDCHAR
STARTCHAR 00E9
ENCODING 233
SWIDTH 624 0
DWIDTH 13 0
BBX 11 15 1 0
BITMAP
0300
0600
0C00
0000
1F00
3180
40C0
C040
8060
FFE0
8000
C000
6000
31C0
1F00
ENDCHAR
STARTCHAR 00EA
ENCODING 234
SWIDTH 624 0
DWIDTH 13 0
BBX 11 15 1 0
BITMAP
0E00
1B00
2180
0000
1F00
3180
40C0
C040
8060
FFE0
8000
C000
6000
31C0
1F00
ENDCHAR
STARTCHAR 00EB
ENCODING 235
SWIDTH 624 0
DWIDTH 13 0
BBX 11 15 1 0
BITMAP
1100
1300
0000
0000
1F00
3180
40C0
C040
8060
FFE0
8000
C000
6000
31C0
1F00
ENDCHAR
STARTCHAR 00EC
ENCODING 236
SWIDTH 288 0
DWIDTH 6 0
BBX 4 15 0 0
BITMAP
C0
60
10
00
30
30
30
30
30
30
30
30
30
30
30
ENDCHAR
STARTCHAR 00ED
ENCODING 237
SWIDTH 288 0
DWIDTH 6 0
BBX 4 15 2 0
BITMAP
30
40
80
00
C0
C0
C0
C0
C0
C0
C0
C0
C0
C0
C0
ENDCHAR
STARTCHAR 00EE
ENCODING 238
SWIDTH 288 0
DWIDTH 6 0
BBX 6 15 0 0
BITMAP
30
58
8C
00
30
30
30
30
30
30
30
30
30
30
30
ENDCHAR
STARTCHAR 00EF
ENCODING 239
SWIDTH 288 0
DWIDTH 6 0
BBX 4 15 1 0
BITMAP
B0
90
00
00
60
60
60
60
60
60
60
60
60
60
60
ENDCHAR
STARTCHAR 00F0
ENCODING 240
SWIDTH 624 0
DWIDTH 13 0
BBX 11 15 1 0
BITMAP
7F40
0380
0EC0
3840
0060
0020
3F20
61A0
C060
C060
8060
C060
C0C0
7180
1F00
ENDCHAR
STARTCHAR 00F1
ENCODING 241
SWIDTH 672 0
DWIDTH 14 0
BBX 10 15 2 0
BITMAP
3900
2500
0200
0000
9F00
B180
C0C0
C0C0
C040
C040
C040
C040
C040
C040
C040
ENDCHAR
STARTCHAR 00F2
ENCODING 242
SWIDTH 624 0
DWIDTH 13 0
BBX 11 15 1 0
BITMAP
1800
0C00
0600
0000
1F00
3180
60C0
C060
C060
8020
C060
C060
60C0
3180
1F00
ENDCHAR
STARTCHAR 00F3
ENCODING 243
SWIDTH 624 0
DWIDTH 13 0
BBX 11 15 1 0
BITMAP
0300
0600
0C00
0000
1F00
3180
60C0
C060
C060
8020
C060
C060
60C0
3180
1F00
ENDCHAR
STARTCHAR 00F4
ENCODING 244
SWIDTH 624 0
DWIDTH 13 0
BBX 11 15 1 0
BITMAP
0E00
1B00
3180
0000
1F00
3180
60C0
C060
C060
8020
C060
C060
60C0
3180
1F00
ENDCHAR
STARTCHAR 00F5
ENCODING 245
SWIDTH 624 0
DWIDTH 13 0
BBX 11 15 1 0
BITMAP
1880
2480
0300
0000
1F00
3180
60C0
C060
C060
8020
C060
C060
60C0
3180
1F00
ENDCHAR
STARTCHAR 00F6
ENCODING 246
SWIDTH 624 0
DWIDTH 13 0
BBX 11 15 1 0
BITMAP
1100
1100
0000
0000
1F00
3180
60C0
C060
C060
8020
C060
C060
60C0
3180
1F00
ENDCHAR
STARTCHAR 00F7
ENCODING 247
SWIDTH 576 0
DWIDTH 12 0
BBX 10 10 1 2
BITMAP
0C00
0C00
0000
0000
FFC0
0000
0000
0000
0C00
0C00
ENDCHAR
STARTCHAR 00F8
ENCODING 248
SWIDTH 624 0
DWIDTH 13 0
BBX 11 13 1 -1
BITMAP
0040
1F80
3180
61C0
C260
C260
8420
C860
C860
70C0
3180
3F00
4000
ENDCHAR
STARTCHAR 00F9
ENCODING 249
SWIDTH 672 0
DWIDTH 14 0
BBX 10 15 2 0
BITMAP
3000
1800
0400
0000
80C0
80C0
80C0
80C0
80C0
80C0
80C0
C0C0
C0C0
6340
3E40
ENDCHAR
STARTCHAR 00FA
ENCODING 250
SWIDTH 672 0
DWIDTH 14 0
BBX 10 15 2 0
BITMAP
0300
0400
0800
0000
80C0
80C0
80C0
80C0
80C0
80C0
80C0
C0C0
C0C0
6340
3E40
ENDCHAR
STARTCHAR 00FB
ENCODING 251
SWIDTH 672 0
DWIDTH 14 0
BBX 10 15 2 0
BITMAP
0C00
1200
2100
0000
80C0
80C0
80C0
80C0
80C0
80C0
80C0
C0C0
C0C0
6340
3E40
ENDCHAR
STARTCHAR 00FC
ENCODING 252
SWIDTH 672 0
DWIDTH 14 0
BBX 10 15 2 0
BITMAP
3300
3200
0000
0000
80C0
80C0
80C0
80C0
80C0
80C0
80C0
C0C0
C0C0
6340
3E40
ENDCHAR
STARTCHAR 00FD
ENCODING 253
SWIDTH 528 0
DWIDTH 11 0
BBX 11 19 0 -4
BITMAP
0300
0600
0C00
0000
C020
4060
6040
20C0
3080
3180
1100
1B00
0A00
0E00
0600
0400
0C00
9800
F000
ENDCHAR
STARTCHAR 00FE
ENCODING 254
SWIDTH 672 0
DWIDTH 14 0
BBX 11 20 2 -4
BITMAP
C000
C000
C000
C000
C000
DF00
F1C0
E040
C060
C020
C020
C020
C060
E040
F1C0
DF00
C000
C000
C000
C000
ENDCHAR
STARTCHAR 00FF
ENCODING 255
SWIDTH 528 0
DWIDTH 11 0
BBX 11 19 0 -4
BITMAP
1300
1100
0000
0000
C020
4060
6040
20C0
3080
3180
1100
1B00
0A00
0E00
0600
0400
0C00
9800
F000
ENDCHAR
STARTCHAR 0100
ENCODING 256
SWIDTH 720 0
DWIDTH 15 0
BBX 15 18 0 0
BITMAP
0FE0
0000
0000
0300
0380
0280
06C0
0440
0C60
0820
1830
1030
3010
3FF8
2008
600C
4004
C006
ENDCHAR
STARTCHAR 0101
ENCODING 257
SWIDTH 576 0
DWIDTH 12 0
BBX 9 14 1 0
BITMAP
3F00
0000
0000
3E00
E380
0180
0080
0080
3F80
C080
C080
C180
6380
3E80
ENDCHAR
STARTCHAR 0102
ENCODING 258
SWIDTH 720 0
DWIDTH 15 0
BBX 15 19 0 0
BITMAP
0820
0440
0380
0000
0300
0380
0280
06C0
0440
0C60
0820
1830
1030
3010
3FF8
2008
600C
4004
C006
ENDCHAR
STARTCHAR 0103
ENCODING 259
SWIDTH 576 0
DWIDTH 12 0
BBX 9 15 1 0
BITMAP
2100
2300
1E00
0000
3E00
E380
0180
0080
0080
3F80
C080
C080
C180
6380
3E80
ENDCHAR
STARTCHAR 0104
ENCODING 260
SWIDTH 720 0
DWIDTH 15 0
BBX 15 20 0 -5
BITMAP
0300
0380
0280
06C0
0440
0C60
0820
1830
1030
3010
3FF8
2008
600C
4004
C006
000C
0008
0010
001A
000E
ENDCHAR
STARTCHAR 0105
ENCODING 261
SWIDTH 576 0
DWIDTH 12 0
BBX 10 16 1 -5
BITMAP
3E00
E380
0180
0080
0080
3F80
C080
C080
C180
6380
3E80
0100
0200
0200
0340
03C0
ENDCHAR
STARTCHAR 0106
ENCODING 262
SWIDTH 720 0
DWIDTH 15 0
BBX 13 19 1 0
BITMAP
0060
00C0
0100
0000
07E0
1C70
3018
6000
4000
C000
C000
C000
C000
C000
4000
6000
3018
1C70
07E0
ENDCHAR
STARTCHAR 0107
ENCODING 263
SWIDTH 576 0
DWIDTH 12 0
BBX 9 15 1 0
BITMAP
0300
0600
0800
0000
1F00
3180
6080
C000
C000
8000
C000
C000
6080
3180
1F00
ENDCHAR
STARTCHAR 0108
ENCODING 264
SWIDTH 720 0
DWIDTH 15 0
BBX 13 19 1 0
BITMAP
0100
0280
0440
0000
07E0
1C70
3018
6000
4000
C000
C000
C000
C000
C000
4000
6000
3018
1C70
07E0
ENDCHAR
STARTCHAR 0109
ENCODING 265
SWIDTH 576 0
DWIDTH 12 0
BBX 9 15 1 0
BITMAP
0C00
1300
2180
0000
1F00
3180
6080
C000
C000
8000
C000
C000
6080
3180
1F00
ENDCHAR
STARTCHAR 010A
ENCODING 266
SWIDTH 720 0
DWIDTH 15 0
BBX 13 19 1 0
BITMAP
0100
0100
0000
0000
07E0
1C70
3018
6000
4000
C000
C000
C000
C000
C000
4000
6000
3018
1C70
07E0
ENDCHAR
STARTCHAR 010B
ENCODING 267
SWIDTH 576 0
DWIDTH 12 0
BBX 9 15 1 0
BITMAP
0C00
0C00
0000
0000
1F00
3180
6080
C000
C000
8000
C000
C000
6080
3180
1F00
ENDCHAR
STARTCHAR 010C
ENCODING 268
SWIDTH 720 0
DWIDTH 15 0
BBX 13 19 1 0
BITMAP
0C60
06C0
0380
0000
07E0
1C70
3018
6000
4000
C000
C000
C000
C000
C000
4000
6000
3018
1C70
07E0
ENDCHAR
STARTCHAR 010D
ENCODING 269
SWIDTH 576 0
DWIDTH 12 0
BBX 9 15 1 0
BITMAP
3100
1E00
0C00
0000
1F00
3180
6080
C000
C000
8000
C000
C000
6080
3180
1F00
ENDCHAR
STARTCHAR 010E
ENCODING 270
SWIDTH 816 0
DWIDTH 17 0
BBX 14 19 2 0
BITMAP
1080
0900
0600
0000
FF80
C0E0
C030
C018
C00C
C00C
C004
C004
C004
C00C
C00C
C018
C030
C0E0
FF80
ENDCHAR
STARTCHAR 010F
ENCODING 271
SWIDTH 672 0
DWIDTH 14 0
BBX 14 17 1 0
BITMAP
0004
0024
0024
0024
0020
0020
1F20
31A0
60E0
C060
C060
8020
C060
C060
60E0
31A0
1F20
ENDCHAR
STARTCHAR 0110
ENCODING 272
SWIDTH 816 0
DWIDTH 17 0
BBX 16 15 0 0
BITMAP
3FE0
3038
300C
3006
3003
3003
3001
FF01
3001
3003
3003
3006
300C
3038
3FE0
ENDCHAR
STARTCHAR 0111
ENCODING 273
SWIDTH 672 0
DWIDTH 14 0
BBX 13 16 1 0
BITMAP
0020
0020
07F8
0020
0020
1F20
31A0
60E0
C060
C060
8020
C060
C060
60E0
31A0
1F20
ENDCHAR
STARTCHAR 0112
ENCODING 274
SWIDTH 672 0
DWIDTH 14 0
BBX 11 18 2 0
BITMAP
3F80
0000
0000
FFC0
C000
C000
C000
C000
C000
C000
FF80
C000
C000
C000
C000
C000
C000
FFE0
ENDCHAR
STARTCHAR 0113
ENCODING 275
SWIDTH 624 0
DWIDTH 13 0
BBX 11 14 1 0
BITMAP
3F80
0000
0000
1F00
3180
40C0
C040
8060
FFE0
8000
C000
6000
31C0
1F00
ENDCHAR
STARTCHAR 0114
ENCODING 276
SWIDTH 672 0
DWIDTH 14 0
BBX 11 19 2 0
BITMAP
2180
1100
0E00
0000
FFC0
C000
C000
C000
C000
C000
C000
FF80
C000
C000
C000
C000
C000
C000
FFE0
ENDCHAR
STARTCHAR 0115
ENCODING 277
SWIDTH 624 0
DWIDTH 13 0
BBX 11 15 1 0
BITMAP
2100
3100
0E00
0000
1F00
3180
40C0
C040
8060
FFE0
8000
C000
6000
31C0
1F00
ENDCHAR
STARTCHAR 0116
ENCODING 278
SWIDTH 672 0
DWIDTH 14 0
BBX 11 19 2 0
BITMAP
0400
0400
0000
0000
FFC0
C000
C000
C000
C000
C000
C000
FF80
C000
C000
C000
C000
C000
C000
FFE0
ENDCHAR
STARTCHAR 0117
ENCODING 279
SWIDTH 624 0
DWIDTH 13 0
BBX 11 15 1 0
BITMAP
0C00
0C00
0000
0000
1F00
3180
40C0
C040
8060
FFE0
8000
C000
6000
31C0
1F00
ENDCHAR
STARTCHAR 0118
ENCODING 280
SWIDTH 672 0
DWIDTH 14 0
BBX 11 20 2 -5
BITMAP
FFC0
C000
C000
C000
C000
C000
C000
FF80
C000
C000
C000
C000
C000
C000
FFE0
00C0
0100
0100
01A0
00E0
ENDCHAR
STARTCHAR 0119
ENCODING 281
SWIDTH 624 0
DWIDTH 13 0
BBX 11 16 1 -5
BITMAP
1F00
3180
40C0
C040
8060
FFE0
8000
C000
6000
31C0
1F80
0300
0200
0200
0300
03C0
ENDCHAR
STARTCHAR 011A
ENCODING 282
SWIDTH 672 0
DWIDTH 14 0
BBX 11 19 2 0
BITMAP
2180
1B00
0E00
0000
FFC0
C000
C000
C000
C000
C000
C000
FF80
C000
C000
C000
C000
C000
C000
FFE0
ENDCHAR
STARTCHAR 011B
ENCODING 283
SWIDTH 624 0
DWIDTH 13 0
BBX 11 15 1 0
BITMAP
3100
1A00
0C00
0000
1F00
3180
40C0
C040
8060
FFE0
8000
C000
6000
31C0
1F00
ENDCHAR
STARTCHAR 011C
ENCODING 284
SWIDTH 768 0
DWIDTH 16 0
BBX 13 19 1 0
BITMAP
0100
0280
0440
0000
07E0
1C78
3008
6000
4000
C000
C000
C008
C008
C008
4008
6008
3008
1C78
07E0
ENDCHAR
STARTCHAR 011D
ENCODING 285
SWIDTH 672 0
DWIDTH 14 0
BBX 11 19 1 -4
BITMAP
0E00
1900
3080
0000
1F20
71A0
4060
C060
8020
8020
C020
4060
60E0
3F20
0020
0060
4060
71C0
1F80
ENDCHAR
STARTCHAR 011E
ENCODING 286
SWIDTH 768 0
DWIDTH 16 0
BBX 13 19 1 0
BITMAP
0820
0440
0380
0000
07E0
1C78
3008
6000
4000
C000
C000
C008
C008
C008
4008
6008
3008
1C78
07E0
ENDCHAR
STARTCHAR 011F
ENCODING 287
SWIDTH 672 0
DWIDTH 14 0
BBX 11 19 1 -4
BITMAP
1080
1180
0F00
0000
1F20
71A0
4060
C060
8020
8020
C020
4060
60E0
3F20
0020
0060
4060
71C0
1F80
ENDCHAR
STARTCHAR 0120
ENCODING 288
SWIDTH 768 0
DWIDTH 16 0
BBX 13 19 1 0
BITMAP
0100
0100
0000
0000
07E0
1C78
3008
6000
4000
C000
C000
C008
C008
C008
4008
6008
3008
1C78
07E0
ENDCHAR
STARTCHAR 0121
ENCODING 289
SWIDTH 672 0
DWIDTH 14 0
BBX 11 19 1 -4
BITMAP
0600
0600
0000
0000
1F20
71A0
4060
C060
8020
8020
C020
4060
60E0
3F20
0020
0060
4060
71C0
1F80
ENDCHAR
STARTCHAR 0122
ENCODING 290
SWIDTH 768 0
DWIDTH 16 0
BBX 13 20 1 -5
BITMAP
07E0
1C78
3008
6000
4000
C000
C000
C008
C008
C008
4008
6008
3008
1C78
07E0
0000
0000
0100
0100
0100
ENDCHAR
STARTCHAR 0123
ENCODING 291
SWIDTH 672 0
DWIDTH 14 0
BBX 11 20 1 -4
BITMAP
0200
0400
0600
0400
0000
1F20
71A0
4060
C060
8020
8020
C020
4060
60E0
3F20
0020
0060
4060
71C0
1F80
ENDCHAR
STARTCHAR 0124
ENCODING 292
SWIDTH 816 0
DWIDTH 17 0
BBX 13 19 2 0
BITMAP
0200
0500
0880
0000
C018
C018
C018
C018
C018
C018
C018
FFF8
C018
C018
C018
C018
C018
C018
C018
ENDCHAR
STARTCHAR 0125
ENCODING 293
SWIDTH 672 0
DWIDTH 14 0
BBX 12 20 0 0
BITMAP
3000
7800
8C00
0000
3000
3000
3000
3000
3000
37C0
3C60
3030
3030
3010
3010
3010
3010
3010
3010
3010
ENDCHAR
STARTCHAR 0126
ENCODING 294
SWIDTH 816 0
DWIDTH 17 0
BBX 17 15 0 0
BITMAP
300600
300600
300600
FFFF80
300600
300600
300600
3FFE00
300600
300600
300600
300600
300600
300600
300600
ENDCHAR
STARTCHAR 0127
ENCODING 295
SWIDTH 672 0
DWIDTH 14 0
BBX 12 16 0 0
BITMAP
3000
3000
FF00
3000
3000
37C0
3C60
3030
3030
3010
3010
3010
3010
3010
3010
3010
ENDCHAR
STARTCHAR 0128
ENCODING 296
SWIDTH 288 0
DWIDTH 6 0
BBX 6 19 0 0
BITMAP
64
94
0C
00
30
30
30
30
30
30
30
30
30
30
30
30
30
30
30
ENDCHAR
STARTCHAR 0129
ENCODING 297
SWIDTH 288 0
DWIDTH 6 0
BBX 6 15 0 0
BITMAP
64
A8
18
00
30
30
30
30
30
30
30
30
30
30
30
ENDCHAR
STARTCHAR 012A
ENCODING 298
SWIDTH 288 0
DWIDTH 6 0
BBX 5 18 1 0
BITMAP
F8
00
00
60
60
60
60
60
60
60
60
60
60
60
60
60
60
60
ENDCHAR
STARTCHAR 012B
ENCODING 299
SWIDTH 288 0
DWIDTH 6 0
BBX 5 14 0 0
BITMAP
F8
00
00
30
30
30
30
30
30
30
30
30
30
30
ENDCHAR
STARTCHAR 012C
ENCODING 300
SWIDTH 288 0
DWIDTH 6 0
BBX 6 19 0 0
BITMAP
84
C4
78
00
30
30
30
30
30
30
30
30
30
30
30
30
30
30
30
ENDCHAR
STARTCHAR 012D
ENCODING 301
SWIDTH 288 0
DWIDTH 6 0
BBX 5 16 0 0
BITMAP
88
C8
70
00
00
30
30
30
30
30
30
30
30
30
30
30
ENDCHAR
STARTCHAR 012E
ENCODING 302
SWIDTH 288 0
DWIDTH 6 0
BBX 3 19 2 -4
BITMAP
C0
C0
C0
C0
C0
C0
C0
C0
C0
C0
C0
C0
C0
C0
C0
80
80
80
E0
ENDCHAR
STARTCHAR 012F
ENCODING 303
SWIDTH 288 0
DWIDTH 6 0
BBX 3 20 1 -4
BITMAP
60
60
00
00
00
60
60
60
60
60
60
60
60
60
60
60
40
80
80
60
ENDCHAR
STARTCHAR 0130
ENCODING 304
SWIDTH 288 0
DWIDTH 6 0
BBX 2 19 2 0
BITMAP
C0
C0
00
00
C0
C0
C0
C0
C0
C0
C0
C0
C0
C0
C0
C0
C0
C0
C0
ENDCHAR
STARTCHAR 0131
ENCODING 305
SWIDTH 288 0
DWIDTH 6 0
BBX 2 11 2 0
BITMAP
C0
C0
C0
C0
C0
C0
C0
C0
C0
C0
C0
ENDCHAR
STARTCHAR 0132
ENCODING 306
SWIDTH 720 0
DWIDTH 15 0
BBX 11 15 2 0
BITMAP
C060
C060
C060
C060
C060
C060
C060
C060
0060
0060
0060
0040
00C0
E380
3E00
ENDCHAR
STARTCHAR 0133
ENCODING 307
SWIDTH 528 0
DWIDTH 11 0
BBX 7 20 2 -4
BITMAP
C2
C2
00
00
00
C2
C2
C2
C2
C2
C2
C2
C2
C2
C2
C2
02
02
26
3C
ENDCHAR
STARTCHAR 0134
ENCODING 308
SWIDTH 480 0
DWIDTH 10 0
BBX 8 19 0 0
BITMAP
0C
1E
23
00
7F
01
01
01
01
01
01
01
01
01
01
01
83
E6
3C
ENDCHAR
STARTCHAR 0135
ENCODING 309
SWIDTH 288 0
DWIDTH 6 0
BBX 8 19 -2 -4
BITMAP
0C
16
23
00
0C
0C
0C
0C
0C
0C
0C
0C
0C
0C
0C
0C
0C
98
F0
ENDCHAR
STARTCHAR 0136
ENCODING 310
SWIDTH 720 0
DWIDTH 15 0
BBX 12 20 2 -5
BITMAP
C030
C060
C0C0
C180
C300
C600
CC00
DE00
F600
E300
C180
C0C0
C060
C020
C030
0000
0000
0400
0600
0400
ENDCHAR
STARTCHAR 0137
ENCODING 311
SWIDTH 624 0
DWIDTH 13 0
BBX 10 21 2 -5
BITMAP
C000
C000
C000
C000
C000
C080
C300
C600
CC00
D800
FC00
E600
C300
C100
C180
C0C0
0000
0000
0800
0800
0800
ENDCHAR
STARTCHAR 0138
ENCODING 312
SWIDTH 576 0
DWIDTH 12 0
BBX 10 11 2 0
BITMAP
C080
C300
C600
CC00
D800
FC00
E600
C300
C100
C180
C0C0
ENDCHAR
STARTCHAR 0139
ENCODING 313
SWIDTH 576 0
DWIDTH 12 0
BBX 10 19 2 0
BITMAP
1800
6000
C000
0000
C000
C000
C000
C000
C000
C000
C000
C000
C000
C000
C000
C000
C000
C000
FFC0
ENDCHAR
STARTCHAR 013A
ENCODING 314
SWIDTH 288 0
DWIDTH 6 0
BBX 4 20 2 0
BITMAP
30
40
80
00
C0
C0
C0
C0
C0
C0
C0
C0
C0
C0
C0
C0
C0
C0
C0
C0
ENDCHAR
STARTCHAR 013B
ENCODING 315
SWIDTH 576 0
DWIDTH 12 0
BBX 10 20 2 -5
BITMAP
C000
C000
C000
C000
C000
C000
C000
C000
C000
C000
C000
C000
C000
C000
FFC0
0000
0000
0400
0400
0400
ENDCHAR
STARTCHAR 013C
ENCODING 316
SWIDTH 288 0
DWIDTH 6 0
BBX 2 21 2 -5
BITMAP
C0
C0
C0
C0
C0
C0
C0
C0
C0
C0
C0
C0
C0
C0
C0
C0
00
00
C0
C0
80
ENDCHAR
STARTCHAR 013D
ENCODING 317
SWIDTH 576 0
DWIDTH 12 0
BBX 10 16 2 0
BITMAP
0100
C100
C100
C100
C000
C000
C000
C000
C000
C000
C000
C000
C000
C000
C000
FFC0
ENDCHAR
STARTCHAR 013E
ENCODING 318
SWIDTH 288 0
DWIDTH 6 0
BBX 5 17 2 0
BITMAP
18
D8
D8
D8
C0
C0
C0
C0
C0
C0
C0
C0
C0
C0
C0
C0
C0
ENDCHAR
STARTCHAR 013F
ENCODING 319
SWIDTH 576 0
DWIDTH 12 0
BBX 10 15 2 0
BITMAP
C000
C000
C000
C000
C000
C000
C300
C300
C000
C000
C000
C000
C000
C000
FFC0
ENDCHAR
STARTCHAR 0140
ENCODING 320
SWIDTH 336 0
DWIDTH 7 0
BBX 5 16 2 0
BITMAP
C0
C0
C0
C0
C0
C0
C0
D8
D8
C0
C0
C0
C0
C0
C0
C0
ENDCHAR
STARTCHAR 0141
ENCODING 321
SWIDTH 576 0
DWIDTH 12 0
BBX 12 15 0 0
BITMAP
3000
3000
3000
3000
3200
3C00
3800
3000
F000
3000
3000
3000
3000
3000
3FF0
ENDCHAR
STARTCHAR 0142
ENCODING 322
SWIDTH 288 0
DWIDTH 6 0
BBX 6 16 0 0
BITMAP
30
30
30
30
30
30
3C
38
30
F0
30
30
30
30
30
30
ENDCHAR
STARTCHAR 0143
ENCODING 323
SWIDTH 816 0
DWIDTH 17 0
BBX 13 19 2 0
BITMAP
00C0
0180
0200
0000
C018
E018
F018
F018
D818
CC18
C618
C618
C318
C198
C0D8
C078
C078
C038
C018
ENDCHAR
STARTCHAR 0144
ENCODING 324
SWIDTH 672 0
DWIDTH 14 0
BBX 10 15 2 0
BITMAP
0300
0600
0800
0000
9F00
B180
C0C0
C0C0
C040
C040
C040
C040
C040
C040
C040
ENDCHAR
STARTCHAR 0145
ENCODING 325
SWIDTH 816 0
DWIDTH 17 0
BBX 13 20 2 -5
BITMAP
C018
E018
F018
F018
D818
CC18
C618
C618
C318
C198
C0D8
C078
C078
C038
C018
0000
0000
0200
0200
0200
ENDCHAR
STARTCHAR 0146
ENCODING 326
SWIDTH 672 0
DWIDTH 14 0
BBX 10 16 2 -5
BITMAP
9F00
B180
C0C0
C0C0
C040
C040
C040
C040
C040
C040
C040
0000
0000
0C00
0C00
0400
ENDCHAR
STARTCHAR 0147
ENCODING 327
SWIDTH 816 0
DWIDTH 17 0
BBX 13 19 2 0
BITMAP
10C0
0D80
0700
0000
C018
E018
F018
F018
D818
CC18
C618
C618
C318
C198
C0D8
C078
C078
C038
C018
ENDCHAR
STARTCHAR 0148
ENCODING 328
SWIDTH 672 0
DWIDTH 14 0
BBX 10 15 2 0
BITMAP
3100
1E00
0C00
0000
9F00
B180
C0C0
C0C0
C040
C040
C040
C040
C040
C040
C040
ENDCHAR
STARTCHAR 0149
ENCODING 329
SWIDTH 768 0
DWIDTH 16 0
BBX 13 15 1 0
BITMAP
8000
8000
8000
8000
93C0
9E70
1810
1018
1018
1018
1018
1018
1018
1018
1018
ENDCHAR
STARTCHAR 014A
ENCODING 330
SWIDTH 816 0
DWIDTH 17 0
BBX 13 19 2 -4
BITMAP
C018
E018
F018
F018
D818
CC18
C618
C618
C318
C198
C0D8
C078
C078
C038
C018
0010
0410
0670
03E0
ENDCHAR
STARTCHAR 014B
ENCODING 331
SWIDTH 672 0
DWIDTH 14 0
BBX 10 15 2 -4
BITMAP
9F00
B180
C0C0
C0C0
C040
C040
C040
C040
C040
C040
C040
0040
0040
04C0
0780
ENDCHAR
STARTCHAR 014C
ENCODING 332
SWIDTH 816 0
DWIDTH 17 0
BBX 15 18 1 0
BITMAP
07E0
0000
0000
07E0
1C70
301C
600C
4006
C002
C002
C002
C002
C002
4006
600C
301C
1C70
07E0
ENDCHAR
STARTCHAR 014D
ENCODING 333
SWIDTH 624 0
DWIDTH 13 0
BBX 11 14 1 0
BITMAP
3F80
0000
0000
1F00
3180
60C0
C060
C060
8020
C060
C060
60C0
3180
1F00
ENDCHAR
STARTCHAR 014E
ENCODING 334
SWIDTH 816 0
DWIDTH 17 0
BBX 15 19 1 0
BITMAP
0420
0460
03C0
0000
07E0
1C70
301C
600C
4006
C002
C002
C002
C002
C002
4006
600C
301C
1C70
07E0
ENDCHAR
STARTCHAR 014F
ENCODING 335
SWIDTH 624 0
DWIDTH 13 0
BBX 11 15 1 0
BITMAP
2080
1100
0E00
0000
1F00
3180
60C0
C060
C060
8020
C060
C060
60C0
3180
1F00
ENDCHAR
STARTCHAR 0150
ENCODING 336
SWIDTH 816 0
DWIDTH 17 0
BBX 15 19 1 0
BITMAP
0190
0120
0260
0000
07E0
1C70
301C
600C
4006
C002
C002
C002
C002
C002
4006
600C
301C
1C70
07E0
ENDCHAR
STARTCHAR 0151
ENCODING 337
SWIDTH 624 0
DWIDTH 13 0
BBX 11 15 1 0
BITMAP
04C0
0980
1900
0000
1F00
3180
60C0
C060
C060
8020
C060
C060
60C0
3180
1F00
ENDCHAR
STARTCHAR 0152
ENCODING 338
SWIDTH 1104 0
DWIDTH 23 0
BBX 21 15 1 0
BITMAP
07FFF8
1C1000
301000
601000
401000
C01000
C01000
C01FF0
C01000
C01000
401000
601000
301000
1C1000
07FFF8
ENDCHAR
STARTCHAR 0153
ENCODING 339
SWIDTH 1056 0
DWIDTH 22 0
BBX 20 11 1 0
BITMAP
1F0780
319CE0
60F020
C06030
C06010
803FF0
C02000
C06000
60F000
319C60
1F07C0
ENDCHAR
STARTCHAR 0154
ENCODING 340
SWIDTH 720 0
DWIDTH 15 0
BBX 12 19 2 0
BITMAP
0180
0300
0400
0000
FF80
C1C0
C060
C030
C030
C030
C030
C020
C0E0
FF80
C180
C0C0
C040
C060
C030
ENDCHAR
STARTCHAR 0155
ENCODING 341
SWIDTH 384 0
DWIDTH 8 0
BBX 6 15 2 0
BITMAP
0C
10
20
00
9C
B0
C0
C0
C0
C0
C0
C0
C0
C0
C0
ENDCHAR
STARTCHAR 0156
ENCODING 342
SWIDTH 720 0
DWIDTH 15 0
BBX 12 20 2 -5
BITMAP
FF80
C1C0
C060
C030
C030
C030
C030
C020
C0E0
FF80
C180
C0C0
C040
C060
C030
0000
0000
0400
0600
0400
ENDCHAR
STARTCHAR 0157
ENCODING 343
SWIDTH 384 0
DWIDTH 8 0
BBX 6 16 2 -5
BITMAP
9C
B0
C0
C0
C0
C0
C0
C0
C0
C0
C0
00
00
C0
C0
80
ENDCHAR
STARTCHAR 0158
ENCODING 344
SWIDTH 720 0
DWIDTH 15 0
BBX 12 19 2 0
BITMAP
3080
1B00
0E00
0000
FF80
C1C0
C060
C030
C030
C030
C030
C020
C0E0
FF80
C180
C0C0
C040
C060
C030
ENDCHAR
STARTCHAR 0159
ENCODING 345
SWIDTH 384 0
DWIDTH 8 0
BBX 6 15 2 0
BITMAP
8C
78
30
00
9C
B0
C0
C0
C0
C0
C0
C0
C0
C0
C0
ENDCHAR
STARTCHAR 015A
ENCODING 346
SWIDTH 624 0
DWIDTH 13 0
BBX 11 19 1 0
BITMAP
0180
0300
0400
0000
1F80
71C0
4000
C000
C000
4000
7000
1F00
03C0
0060
0060
0060
8060
F1C0
3F00
ENDCHAR
STARTCHAR 015B
ENCODING 347
SWIDTH 480 0
DWIDTH 10 0
BBX 8 15 1 0
BITMAP
06
0C
10
00
3E
E3
C0
80
C0
7E
07
01
01
C3
7E
ENDCHAR
STARTCHAR 015C
ENCODING 348
SWIDTH 624 0
DWIDTH 13 0
BBX 11 19 1 0
BITMAP
0600
0B00
1180
0000
1F80
71C0
4000
C000
C000
4000
7000
1F00
03C0
0060
0060
0060
8060
F1C0
3F00
ENDCHAR
STARTCHAR 015D
ENCODING 349
SWIDTH 480 0
DWIDTH 10 0
BBX 8 15 1 0
BITMAP
18
24
42
00
3E
E3
C0
80
C0
7E
07
01
01
C3
7E
ENDCHAR
STARTCHAR 015E
ENCODING 350
SWIDTH 624 0
DWIDTH 13 0
BBX 11 20 1 -5
BITMAP
1F80
71C0
4000
C000
C000
4000
7000
1F00
03C0
0060
0060
0060
8060
F1C0
3F00
0400
0600
0300
0200
0E00
ENDCHAR
STARTCHAR 015F
ENCODING 351
SWIDTH 480 0
DWIDTH 10 0
BBX 8 16 1 -5
BITMAP
3E
E3
C0
80
C0
7E
07
01
01
C3
7E
10
18
04
04
38
ENDCHAR
STARTCHAR 0160
ENCODING 352
SWIDTH 624 0
DWIDTH 13 0
BBX 11 19 1 0
BITMAP
3080
1B00
0E00
0000
1F80
71C0
4000
C000
C000
4000
7000
1F00
03C0
0060
0060
0060
8060
F1C0
3F00
ENDCHAR
STARTCHAR 0161
ENCODING 353
SWIDTH 480 0
DWIDTH 10 0
BBX 8 15 1 0
BITMAP
62
3C
18
00
3E
E3
C0
80
C0
7E
07
01
01
C3
7E
ENDCHAR
STARTCHAR 0162
ENCODING 354
SWIDTH 576 0
DWIDTH 12 0
BBX 12 20 0 -5
BITMAP
FFF0
0600
0600
0600
0600
0600
0600
0600
0600
0600
0600
0600
0600
0600
0600
0400
0600
0100
0100
0E00
ENDCHAR
STARTCHAR 0163
ENCODING 355
SWIDTH 384 0
DWIDTH 8 0
BBX 7 18 0 -5
BITMAP
30
30
FE
30
30
30
30
30
30
30
30
18
1E
08
0E
02
02
1C
ENDCHAR
STARTCHAR 0164
ENCODING 356
SWIDTH 576 0
DWIDTH 12 0
BBX 12 19 0 0
BITMAP
1080
0900
0600
0000
FFF0
0600
0600
0600
0600
0600
0600
0600
0600
0600
0600
0600
0600
0600
0600
ENDCHAR
STARTCHAR 0165
ENCODING 357
SWIDTH 384 0
DWIDTH 8 0
BBX 7 16 0 0
BITMAP
02
02
02
30
30
FE
30
30
30
30
30
30
30
30
18
0E
ENDCHAR
STARTCHAR 0166
ENCODING 358
SWIDTH 576 0
DWIDTH 12 0
BBX 12 15 0 0
BITMAP
FFF0
0600
0600
0600
0600
0600
0600
3FC0
0600
0600
0600
0600
0600
0600
0600
ENDCHAR
STARTCHAR 0167
ENCODING 359
SWIDTH 432 0
DWIDTH 9 0
BBX 8 13 0 0
BITMAP
30
30
FE
30
30
30
7E
30
30
30
30
19
0F
ENDCHAR
STARTCHAR 0168
ENCODING 360
SWIDTH 816 0
DWIDTH 17 0
BBX 12 19 2 0
BITMAP
0C40
1280
0180
0000
C010
C010
C010
C010
C010
C010
C010
C010
C010
C010
C030
4030
6060
38E0
1F80
ENDCHAR
STARTCHAR 0169
ENCODING 361
SWIDTH 672 0
DWIDTH 14 0
BBX 10 15 2 0
BITMAP
3900
2500
0200
0000
80C0
80C0
80C0
80C0
80C0
80C0
80C0
C0C0
C0C0
6340
3E40
ENDCHAR
STARTCHAR 016A
ENCODING 362
SWIDTH 816 0
DWIDTH 17 0
BBX 12 18 2 0
BITMAP
1F80
0000
0000
C010
C010
C010
C010
C010
C010
C010
C010
C010
C010
C030
4030
6060
38E0
1F80
ENDCHAR
STARTCHAR 016B
ENCODING 363
SWIDTH 672 0
DWIDTH 14 0
BBX 10 14 2 0
BITMAP
3F00
0000
0000
80C0
80C0
80C0
80C0
80C0
80C0
80C0
C0C0
C0C0
6340
3E40
ENDCHAR
STARTCHAR 016C
ENCODING 364
SWIDTH 816 0
DWIDTH 17 0
BBX 12 19 2 0
BITMAP
1080
1880
0F00
0000
C010
C010
C010
C010
C010
C010
C010
C010
C010
C010
C030
4030
6060
38E0
1F80
ENDCHAR
STARTCHAR 016D
ENCODING 365
SWIDTH 672 0
DWIDTH 14 0
BBX 10 16 2 0
BITMAP
2100
2100
1E00
0000
0000
80C0
80C0
80C0
80C0
80C0
80C0
80C0
C0C0
C0C0
6340
3E40
ENDCHAR
STARTCHAR 016E
ENCODING 366
SWIDTH 816 0
DWIDTH 17 0
BBX 12 21 2 0
BITMAP
0600
0900
0900
0900
0600
0000
C010
C010
C010
C010
C010
C010
C010
C010
C010
C010
C030
4030
6060
38E0
1F80
ENDCHAR
STARTCHAR 016F
ENCODING 367
SWIDTH 672 0
DWIDTH 14 0
BBX 10 17 2 0
BITMAP
0C00
1200
1200
1200
0C00
0000
80C0
80C0
80C0
80C0
80C0
80C0
80C0
C0C0
C0C0
6340
3E40
ENDCHAR
STARTCHAR 0170
ENCODING 368
SWIDTH 816 0
DWIDTH 17 0
BBX 12 19 2 0
BITMAP
0260
06C0
0C80
0000
C010
C010
C010
C010
C010
C010
C010
C010
C010
C010
C030
4030
6060
38E0
1F80
ENDCHAR
STARTCHAR 0171
ENCODING 369
SWIDTH 672 0
DWIDTH 14 0
BBX 10 15 2 0
BITMAP
0C80
1900
1200
0000
80C0
80C0
80C0
80C0
80C0
80C0
80C0
C0C0
C0C0
6340
3E40
ENDCHAR
STARTCHAR 0172
ENCODING 370
SWIDTH 816 0
DWIDTH 17 0
BBX 12 20 2 -5
BITMAP
C010
C010
C010
C010
C010
C010
C010
C010
C010
C010
C030
4030
6060
38E0
1F80
0600
0400
0800
0D00
0700
ENDCHAR
STARTCHAR 0173
ENCODING 371
SWIDTH 672 0
DWIDTH 14 0
BBX 10 16 2 -5
BITMAP
80C0
80C0
80C0
80C0
80C0
80C0
80C0
C0C0
C0C0
6340
3E40
0180
0100
0200
0340
01C0
ENDCHAR
STARTCHAR 0174
ENCODING 372
SWIDTH 1104 0
DWIDTH 23 0
BBX 21 19 1 0
BITMAP
002000
005000
008800
000000
C03008
C07018
405018
405010
60D830
208830
208820
318C60
110460
110440
1B06C0
0A02C0
0A0280
0E0380
040180
ENDCHAR
STARTCHAR 0175
ENCODING 373
SWIDTH 864 0
DWIDTH 18 0
BBX 18 15 0 0
BITMAP
00C000
012000
021000
000000
C0C040
40C0C0
40E080
61A180
212100
333100
121300
121A00
1E0A00
0C0E00
0C0C00
ENDCHAR
STARTCHAR 0176
ENCODING 374
SWIDTH 624 0
DWIDTH 13 0
BBX 13 19 0 0
BITMAP
0200
0500
08C0
0000
C018
6010
6030
3020
1060
18C0
0C80
0D80
0700
0300
0200
0200
0200
0200
0200
ENDCHAR
STARTCHAR 0177
ENCODING 375
SWIDTH 528 0
DWIDTH 11 0
BBX 11 19 0 -4
BITMAP
0E00
1B00
2180
0000
C020
4060
6040
20C0
3080
3180
1100
1B00
0A00
0E00
0600
0400
0C00
9800
F000
ENDCHAR
STARTCHAR 0178
ENCODING 376
SWIDTH 624 0
DWIDTH 13 0
BBX 13 19 0 0
BITMAP
0880
0C80
0000
0000
C018
6010
6030
3020
1060
18C0
0C80
0D80
0700
0300
0200
0200
0200
0200
0200
ENDCHAR
STARTCHAR 0179
ENCODING 377
SWIDTH 672 0
DWIDTH 14 0
BBX 12 19 1 0
BITMAP
0180
0300
0600
0000
FFF0
0060
0060
00C0
0180
0300
0200
0600
0C00
1800
1000
3000
6000
C000
FFF0
ENDCHAR
STARTCHAR 017A
ENCODING 378
SWIDTH 528 0
DWIDTH 11 0
BBX 9 15 1 0
BITMAP
0600
0C00
1800
0000
FF80
0100
0200
0600
0C00
1800
1000
3000
6000
C000
FF80
ENDCHAR
STARTCHAR 017B
ENCODING 379
SWIDTH 672 0
DWIDTH 14 0
BBX 12 19 1 0
BITMAP
0600
0600
0000
0000
FFF0
0060
0060
00C0
0180
0300
0200
0600
0C00
1800
1000
3000
6000
C000
FFF0
ENDCHAR
STARTCHAR 017C
ENCODING 380
SWIDTH 528 0
DWIDTH 11 0
BBX 9 15 1 0
BITMAP
1800
1800
0000
0000
FF80
0100
0200
0600
0C00
1800
1000
3000
6000
C000
FF80
ENDCHAR
STARTCHAR 017D
ENCODING 381
SWIDTH 672 0
DWIDTH 14 0
BBX 12 19 1 0
BITMAP
1080
0900
0600
0000
FFF0
0060
0060
00C0
0180
0300
0200
0600
0C00
1800
1000
3000
6000
C000
FFF0
ENDCHAR
STARTCHAR 017E
ENCODING 382
SWIDTH 528 0
DWIDTH 11 0
BBX 9 15 1 0
BITMAP
6200
3400
1800
0000
FF80
0100
0200
0600
0C00
1800
1000
3000
6000
C000
FF80
ENDCHAR
STARTCHAR 017F
ENCODING 383
SWIDTH 288 0
DWIDTH 6 0
BBX 7 16 1 0
BITMAP
1E
32
20
20
20
E0
20
20
20
20
20
20
20
20
20
20
ENDCHAR
STARTCHAR 018F
ENCODING 399
SWIDTH 816 0
DWIDTH 17 0
BBX 15 15 1 0
BITMAP
0FC0
3C70
2018
000C
0004
0006
0006
FFFE
C006
C006
4004
600C
3018
1C70
07C0
ENDCHAR
STARTCHAR 0192
ENCODING 402
SWIDTH 432 0
DWIDTH 9 0
BBX 11 20 -2 -4
BITMAP
00E0
0180
0300
0200
0200
0FE0
0200
0200
0600
0600
0600
0600
0400
0400
0400
0400
0C00
0C00
1800
F000
ENDCHAR
STARTCHAR 01A0
ENCODING 416
SWIDTH 816 0
DWIDTH 17 0
BBX 15 18 1 0
BITMAP
0002
0002
0002
07FC
1C78
301C
600C
4006
C002
C002
C002
C002
C002
4006
600C
301C
1C70
07E0
ENDCHAR
STARTCHAR 01A1
ENCODING 417
SWIDTH 624 0
DWIDTH 13 0
BBX 11 14 1 0
BITMAP
0060
0020
0020
1FC0
3180
60C0
C060
C060
8020
C060
C060
60C0
3180
1F00
ENDCHAR
STARTCHAR 01AF
ENCODING 431
SWIDTH 816 0
DWIDTH 17 0
BBX 14 18 2 0
BITMAP
0004
0004
0004
C01C
C010
C010
C010
C010
C010
C010
C010
C010
C010
C030
4030
6060
38E0
1F80
ENDCHAR
STARTCHAR 01B0
ENCODING 432
SWIDTH 672 0
DWIDTH 14 0
BBX 12 14 2 0
BITMAP
0020
0010
0030
80E0
80C0
80C0
80C0
80C0
80C0
80C0
C0C0
C0C0
6340
3E40
ENDCHAR
STARTCHAR 01B7
ENCODING 439
SWIDTH 624 0
DWIDTH 13 0
BBX 11 15 1 0
BITMAP
FFC0
00C0
0180
0300
0200
0600
0C00
0F80
00C0
0040
0060
0060
8040
E1C0
3F00
ENDCHAR
STARTCHAR 01C4
ENCODING 452
SWIDTH 1440 0
DWIDTH 30 0
BBX 28 19 2 0
BITMAP
00003180
00001B00
00000E00
00000000
FF80FFE0
C0E00060
C03000C0
C0180080
C00C0180
C00C0300
C0040600
C0040C00
C0040C00
C00C1800
C00C3000
C0186000
C0306000
C0E0C000
FF80FFF0
ENDCHAR
STARTCHAR 01C5
ENCODING 453
SWIDTH 1344 0
DWIDTH 28 0
BBX 25 16 2 0
BITMAP
00006300
FF803600
C0E01C00
C0300000
C0180000
C008FF80
C00C0100
C00C0300
C0040600
C0040C00
C00C0800
C00C1800
C0183000
C0306000
C0E0C000
FF80FF80
ENDCHAR
STARTCHAR 01C6
ENCODING 454
SWIDTH 1200 0
DWIDTH 25 0
BBX 23 16 1 0
BITMAP
00210C
0020D8
002070
002000
002000
1F23FE
31A004
60E00C
C06018
C06030
802020
C06040
C060C0
60E180
31A300
1F23FE
ENDCHAR
STARTCHAR 01C7
ENCODING 455
SWIDTH 1104 0
DWIDTH 23 0
BBX 18 15 2 0
BITMAP
C00FC0
C00040
C00040
C00040
C00040
C00040
C00040
C00040
C00040
C00040
C00040
C00040
C010C0
C019C0
FFCF80
ENDCHAR
STARTCHAR 01C8
ENCODING 456
SWIDTH 864 0
DWIDTH 18 0
BBX 14 20 2 -4
BITMAP
000C
C00C
C000
C000
C000
C00C
C00C
C00C
C00C
C00C
C00C
C00C
C00C
C00C
C00C
FFCC
000C
000C
000C
0078
ENDCHAR
STARTCHAR 01C9
ENCODING 457
SWIDTH 528 0
DWIDTH 11 0
BBX 7 20 2 -4
BITMAP
C2
C2
C0
C0
C0
C2
C2
C2
C2
C2
C2
C2
C2
C2
C2
C2
02
02
26
3C
ENDCHAR
STARTCHAR 01CA
ENCODING 458
SWIDTH 1296 0
DWIDTH 27 0
BBX 23 15 2 0
BITMAP
C018FE
E01802
F01802
F01802
D81802
CC1802
C61802
C21802
C31802
C19802
C0D802
C07802
C07906
C039CC
C01878
ENDCHAR
STARTCHAR 01CB
ENCODING 459
SWIDTH 1104 0
DWIDTH 23 0
BBX 19 20 2 -4
BITMAP
000060
C01860
E01800
F01800
F01800
D81860
CC1860
C61860
C61860
C31860
C19860
C0D860
C05860
C07860
C03860
C01860
000060
000060
0004C0
000780
ENDCHAR
STARTCHAR 01CC
ENCODING 460
SWIDTH 960 0
DWIDTH 20 0
BBX 16 20 2 -4
BITMAP
0003
0003
0000
0000
0000
9F03
B183
C0C3
C0C3
C043
C043
C043
C043
C043
C043
C043
0003
0003
0006
003C
ENDCHAR
STARTCHAR 01CD
ENCODING 461
SWIDTH 720 0
DWIDTH 15 0
BBX 15 19 0 0
BITMAP
0C60
06C0
0380
0000
0300
0380
0280
06C0
0440
0C60
0820
1830
1030
3010
3FF8
2008
600C
4004
C006
ENDCHAR
STARTCHAR 01CE
ENCODING 462
SWIDTH 576 0
DWIDTH 12 0
BBX 9 15 1 0
BITMAP
2300
1E00
0C00
0000
3E00
E380
0180
0080
0080
3F80
C080
C080
C180
6380
3E80
ENDCHAR
STARTCHAR 01D3
ENCODING 467
SWIDTH 816 0
DWIDTH 17 0
BBX 12 19 2 0
BITMAP
10C0
0980
0700
0000
C010
C010
C010
C010
C010
C010
C010
C010
C010
C010
C030
4030
6060
38E0
1F80
ENDCHAR
STARTCHAR 01D4
ENCODING 468
SWIDTH 672 0
DWIDTH 14 0
BBX 10 15 2 0
BITMAP
2300
1E00
0C00
0000
80C0
80C0
80C0
80C0
80C0
80C0
80C0
C0C0
C0C0
6340
3E40
ENDCHAR
STARTCHAR 01E4
ENCODING 484
SWIDTH 816 0
DWIDTH 17 0
BBX 15 15 1 0
BITMAP
07E0
1C78
3008
6000
4000
C000
C000
C008
C008
C1FE
4008
6008
3018
1C78
07E0
ENDCHAR
STARTCHAR 01E5
ENCODING 485
SWIDTH 672 0
DWIDTH 14 0
BBX 13 15 1 -4
BITMAP
1F20
71A0
4060
C060
8020
8020
C020
4060
60E0
3F20
0020
07F8
4060
71C0
1F80
ENDCHAR
STARTCHAR 01E6
ENCODING 486
SWIDTH 768 0
DWIDTH 16 0
BBX 13 19 1 0
BITMAP
0C60
06C0
0380
0000
07E0
1C78
3008
6000
4000
C000
C000
C008
C008
C008
4008
6008
3008
1C78
07E0
ENDCHAR
STARTCHAR 01E7
ENCODING 487
SWIDTH 672 0
DWIDTH 14 0
BBX 11 19 1 -4
BITMAP
1180
0F00
0600
0000
1F20
71A0
4060
C060
8020
8020
C020
4060
60E0
3F20
0020
0060
4060
71C0
1F80
ENDCHAR
STARTCHAR 01E8
ENCODING 488
SWIDTH 720 0
DWIDTH 15 0
BBX 12 19 2 0
BITMAP
3080
1900
0E00
0000
C030
C060
C0C0
C180
C300
C600
CC00
DE00
F600
E300
C180
C0C0
C060
C020
C030
ENDCHAR
STARTCHAR 01E9
ENCODING 489
SWIDTH 624 0
DWIDTH 13 0
BBX 12 20 0 0
BITMAP
8C00
7800
3000
0000
3000
3000
3000
3000
3000
3020
30C0
3180
3300
3600
3F00
3980
30C0
3040
3060
3030
ENDCHAR
STARTCHAR 01EA
ENCODING 490
SWIDTH 816 0
DWIDTH 17 0
BBX 15 20 1 -5
BITMAP
07E0
1C70
301C
600C
4006
C002
C002
C002
C002
C002
4006
600C
301C
1C70
07E0
0100
0200
0200
0200
0380
ENDCHAR
STARTCHAR 01EB
ENCODING 491
SWIDTH 624 0
DWIDTH 13 0
BBX 11 16 1 -5
BITMAP
1F00
3180
60C0
C060
C060
8020
C060
C060
60C0
3180
1F00
0400
0800
0800
0D00
0700
ENDCHAR
STARTCHAR 01EE
ENCODING 494
SWIDTH 624 0
DWIDTH 13 0
BBX 11 19 1 0
BITMAP
2180
1200
0C00
0000
FFC0
00C0
0180
0300
0200
0600
0C00
0F80
00C0
0040
0060
0060
8040
E1C0
3F00
ENDCHAR
STARTCHAR 01EF
ENCODING 495
SWIDTH 528 0
DWIDTH 11 0
BBX 10 19 0 -4
BITMAP
2300
1400
0800
0000
FF80
0180
0100
0200
0400
0C00
1F00
0380
00C0
00C0
00C0
00C0
80C0
E380
3E00
ENDCHAR
STARTCHAR 01FA
ENCODING 506
SWIDTH 720 0
DWIDTH 15 0
BBX 15 22 0 0
BITMAP
0020
0140
0680
0440
0480
0300
0000
0300
0380
0280
06C0
0440
0C60
0820
1830
1030
3010
3FF8
2008
600C
4004
C006
ENDCHAR
STARTCHAR 01FB
ENCODING 507
SWIDTH 576 0
DWIDTH 12 0
BBX 9 18 1 0
BITMAP
0100
0E00
1200
1200
1200
0C00
0000
3E00
E380
0180
0080
0080
3F80
C080
C080
C180
6380
3E80
ENDCHAR
STARTCHAR 01FC
ENCODING 508
SWIDTH 1056 0
DWIDTH 22 0
BBX 20 19 0 0
BITMAP
000C00
001800
002000
000000
007FF0
00E000
01A000
012000
032000
022000
062000
0C3FE0
082000
182000
1FE000
302000
202000
602000
C03FF0
ENDCHAR
STARTCHAR 01FD
ENCODING 509
SWIDTH 1008 0
DWIDTH 21 0
BBX 19 15 1 0
BITMAP
002000
00C000
018000
000000
3E1F00
E33180
01C0C0
00C040
008040
3FFFE0
C08000
C0C000
C1C000
6371C0
3E1F00
ENDCHAR
STARTCHAR 01FE
ENCODING 510
SWIDTH 816 0
DWIDTH 17 0
BBX 15 20 1 -1
BITMAP
0060
00C0
0100
0004
07E8
1C78
301C
6024
4046
C0C2
C082
C102
C302
C202
4406
680C
381C
1C70
27E0
6000
ENDCHAR
STARTCHAR 01FF
ENCODING 511
SWIDTH 624 0
DWIDTH 13 0
BBX 11 16 1 -1
BITMAP
0300
0600
0C00
0040
1F80
3180
61C0
C260
C260
8420
C860
C860
70C0
3180
3F00
4000
ENDCHAR
STARTCHAR 0200
ENCODING 512
SWIDTH 720 0
DWIDTH 15 0
BBX 15 19 0 0
BITMAP
1300
0980
0480
0000
0300
0380
0280
06C0
0440
0C60
0820
1830
1030
3010
3FF8
2008
600C
4004
C006
ENDCHAR
STARTCHAR 0201
ENCODING 513
SWIDTH 576 0
DWIDTH 12 0
BBX 9 15 1 0
BITMAP
4C00
2400
3200
0000
3E00
E380
0180
0080
0080
3F80
C080
C080
C180
6380
3E80
ENDCHAR
STARTCHAR 0202
ENCODING 514
SWIDTH 720 0
DWIDTH 15 0
BBX 15 19 0 0
BITMAP
0380
0440
0820
0000
0300
0380
0280
06C0
0440
0C60
0820
1830
1030
3010
3FF8
2008
600C
4004
C006
ENDCHAR
STARTCHAR 0203
ENCODING 515
SWIDTH 576 0
DWIDTH 12 0
BBX 9 15 1 0
BITMAP
1E00
2100
2100
0000
3E00
E380
0180
0080
0080
3F80
C080
C080
C180
6380
3E80
ENDCHAR
STARTCHAR 0204
ENCODING 516
SWIDTH 672 0
DWIDTH 14 0
BBX 11 19 2 0
BITMAP
4C00
2600
1200
0000
FFC0
C000
C000
C000
C000
C000
C000
FF80
C000
C000
C000
C000
C000
C000
FFE0
ENDCHAR
STARTCHAR 0205
ENCODING 517
SWIDTH 624 0
DWIDTH 13 0
BBX 11 15 1 0
BITMAP
6C00
2600
1300
0000
1F00
3180
40C0
C040
8060
FFE0
8000
C000
6000
31C0
1F00
ENDCHAR
STARTCHAR 0206
ENCODING 518
SWIDTH 672 0
DWIDTH 14 0
BBX 11 19 2 0
BITMAP
0E00
1100
2180
0000
FFC0
C000
C000
C000
C000
C000
C000
FF80
C000
C000
C000
C000
C000
C000
FFE0
ENDCHAR
STARTCHAR 0207
ENCODING 519
SWIDTH 624 0
DWIDTH 13 0
BBX 11 15 1 0
BITMAP
1E00
3100
2100
0000
1F00
3180
40C0
C040
8060
FFE0
8000
C000
6000
31C0
1F00
ENDCHAR
STARTCHAR 0208
ENCODING 520
SWIDTH 288 0
DWIDTH 6 0
BBX 6 19 -1 0
BITMAP
98
C8
64
00
18
18
18
18
18
18
18
18
18
18
18
18
18
18
18
ENDCHAR
STARTCHAR 0209
ENCODING 521
SWIDTH 288 0
DWIDTH 6 0
BBX 6 15 -1 0
BITMAP
98
C8
64
00
18
18
18
18
18
18
18
18
18
18
18
ENDCHAR
STARTCHAR 020A
ENCODING 522
SWIDTH 288 0
DWIDTH 6 0
BBX 6 19 0 0
BITMAP
78
C4
84
00
30
30
30
30
30
30
30
30
30
30
30
30
30
30
30
ENDCHAR
STARTCHAR 020B
ENCODING 523
SWIDTH 288 0
DWIDTH 6 0
BBX 5 15 0 0
BITMAP
70
88
88
00
30
30
30
30
30
30
30
30
30
30
30
ENDCHAR
STARTCHAR 020C
ENCODING 524
SWIDTH 816 0
DWIDTH 17 0
BBX 15 19 1 0
BITMAP
1B00
0D80
04C0
0000
07E0
1C70
301C
600C
4006
C002
C002
C002
C002
C002
4006
600C
301C
1C70
07E0
ENDCHAR
STARTCHAR 020D
ENCODING 525
SWIDTH 624 0
DWIDTH 13 0
BBX 11 15 1 0
BITMAP
6400
3200
1300
0000
1F00
3180
60C0
C060
C060
8020
C060
C060
60C0
3180
1F00
ENDCHAR
STARTCHAR 020E
ENCODING 526
SWIDTH 816 0
DWIDTH 17 0
BBX 15 19 1 0
BITMAP
0380
0460
0420
0000
07E0
1C70
301C
600C
4006
C002
C002
C002
C002
C002
4006
600C
301C
1C70
07E0
ENDCHAR
STARTCHAR 020F
ENCODING 527
SWIDTH 624 0
DWIDTH 13 0
BBX 11 15 1 0
BITMAP
0E00
1100
2080
0000
1F00
3180
60C0
C060
C060
8020
C060
C060
60C0
3180
1F00
ENDCHAR
STARTCHAR 0210
ENCODING 528
SWIDTH 720 0
DWIDTH 15 0
BBX 12 19 2 0
BITMAP
6C00
2600
1300
0000
FF80
C1C0
C060
C030
C030
C030
C030
C020
C0E0
FF80
C180
C0C0
C040
C060
C030
ENDCHAR
STARTCHAR 0211
ENCODING 529
SWIDTH 384 0
DWIDTH 8 0
BBX 7 15 1 0
BITMAP
98
C8
64
00
4E
58
60
60
60
60
60
60
60
60
60
ENDCHAR
STARTCHAR 0212
ENCODING 530
SWIDTH 720 0
DWIDTH 15 0
BBX 12 19 2 0
BITMAP
0E00
1100
1080
0000
FF80
C1C0
C060
C030
C030
C030
C030
C020
C0E0
FF80
C180
C0C0
C040
C060
C030
ENDCHAR
STARTCHAR 0213
ENCODING 531
SWIDTH 384 0
DWIDTH 8 0
BBX 6 15 2 0
BITMAP
78
8C
84
00
9C
B0
C0
C0
C0
C0
C0
C0
C0
C0
C0
ENDCHAR
STARTCHAR 0214
ENCODING 532
SWIDTH 816 0
DWIDTH 17 0
BBX 12 19 2 0
BITMAP
2600
1200
1900
0000
C010
C010
C010
C010
C010
C010
C010
C010
C010
C010
C030
4030
6060
38E0
1F80
ENDCHAR
STARTCHAR 0215
ENCODING 533
SWIDTH 672 0
DWIDTH 14 0
BBX 10 15 2 0
BITMAP
4C00
2400
1200
0000
80C0
80C0
80C0
80C0
80C0
80C0
80C0
C0C0
C0C0
6340
3E40
ENDCHAR
STARTCHAR 0216
ENCODING 534
SWIDTH 816 0
DWIDTH 17 0
BBX 12 19 2 0
BITMAP
0700
1880
1080
0000
C010
C010
C010
C010
C010
C010
C010
C010
C010
C010
C030
4030
6060
38E0
1F80
ENDCHAR
STARTCHAR 0217
ENCODING 535
SWIDTH 672 0
DWIDTH 14 0
BBX 10 15 2 0
BITMAP
1E00
2100
2100
0000
80C0
80C0
80C0
80C0
80C0
80C0
80C0
C0C0
C0C0
6340
3E40
ENDCHAR
STARTCHAR 0218
ENCODING 536
SWIDTH 624 0
DWIDTH 13 0
BBX 11 20 1 -5
BITMAP
1F80
71C0
4000
C000
C000
4000
7000
1F00
03C0
0060
0060
0060
8060
F1C0
3F00
0000
0000
0400
0400
0400
ENDCHAR
STARTCHAR 0219
ENCODING 537
SWIDTH 480 0
DWIDTH 10 0
BBX 8 16 1 -5
BITMAP
3E
E3
C0
80
C0
7E
07
01
01
C3
7E
00
00
18
18
10
ENDCHAR
STARTCHAR 021A
ENCODING 538
SWIDTH 576 0
DWIDTH 12 0
BBX 12 20 0 -5
BITMAP
FFF0
0600
0600
0600
0600
0600
0600
0600
0600
0600
0600
0600
0600
0600
0600
0000
0000
0600
0600
0400
ENDCHAR
STARTCHAR 021B
ENCODING 539
SWIDTH 384 0
DWIDTH 8 0
BBX 7 18 0 -5
BITMAP
30
30
FE
30
30
30
30
30
30
30
30
18
0E
00
00
0C
04
04
ENDCHAR
STARTCHAR 021E
ENCODING 542
SWIDTH 816 0
DWIDTH 17 0
BBX 13 19 2 0
BITMAP
10C0
0D80
0700
0000
C018
C018
C018
C018
C018
C018
C018
FFF8
C018
C018
C018
C018
C018
C018
C018
ENDCHAR
STARTCHAR 021F
ENCODING 543
SWIDTH 672 0
DWIDTH 14 0
BBX 12 20 0 0
BITMAP
8C00
7800
3000
0000
3000
3000
3000
3000
3000
37C0
3C60
3030
3030
3010
3010
3010
3010
3010
3010
3010
ENDCHAR
STARTCHAR 022A
ENCODING 554
SWIDTH 816 0
DWIDTH 17 0
BBX 15 20 1 0
BITMAP
07E0
0000
0640
0640
0000
07E0
1C70
301C
600C
4006
C002
C002
C002
C002
C002
4006
600C
301C
1C70
07E0
ENDCHAR
STARTCHAR 022B
ENCODING 555
SWIDTH 624 0
DWIDTH 13 0
BBX 11 17 1 0
BITMAP
3F80
0000
1100
1100
0000
0000
1F00
3180
60C0
C060
C060
8020
C060
C060
60C0
3180
1F00
ENDCHAR
STARTCHAR 022C
ENCODING 556
SWIDTH 816 0
DWIDTH 17 0
BBX 15 20 1 0
BITMAP
07E0
0000
0720
00C0
0000
07E0
1C70
301C
600C
4006
C002
C002
C002
C002
C002
4006
600C
301C
1C70
07E0
ENDCHAR
STARTCHAR 022D
ENCODING 557
SWIDTH 624 0
DWIDTH 13 0
BBX 11 17 1 0
BITMAP
3F80
0000
1C80
2700
0000
0000
1F00
3180
60C0
C060
C060
8020
C060
C060
60C0
3180
1F00
ENDCHAR
STARTCHAR 0230
ENCODING 560
SWIDTH 816 0
DWIDTH 17 0
BBX 15 20 1 0
BITMAP
07E0
0000
0180
0100
0000
07E0
1C70
301C
600C
4006
C002
C002
C002
C002
C002
4006
600C
301C
1C70
07E0
ENDCHAR
STARTCHAR 0231
ENCODING 561
SWIDTH 624 0
DWIDTH 13 0
BBX 11 17 1 0
BITMAP
3F80
0000
0400
0400
0000
0000
1F00
3180
60C0
C060
C060
8020
C060
C060
60C0
3180
1F00
ENDCHAR
STARTCHAR 0232
ENCODING 562
SWIDTH 624 0
DWIDTH 13 0
BBX 13 18 0 0
BITMAP
1FC0
0000
0000
C018
6010
6030
3020
1060
18C0
0C80
0D80
0700
0300
0200
0200
0200
0200
0200
ENDCHAR
STARTCHAR 0233
ENCODING 563
SWIDTH 528 0
DWIDTH 11 0
BBX 11 18 0 -4
BITMAP
3F80
0000
0000
C020
4060
6040
20C0
3080
3180
1100
1B00
0A00
0E00
0600
0400
0C00
9800
F000
ENDCHAR
STARTCHAR 0237
ENCODING 567
SWIDTH 288 0
DWIDTH 6 0
BBX 6 15 -2 -4
BITMAP
0C
0C
0C
0C
0C
0C
0C
0C
0C
0C
0C
0C
0C
98
F0
ENDCHAR
STARTCHAR 0259
ENCODING 601
SWIDTH 624 0
DWIDTH 13 0
BBX 11 11 1 0
BITMAP
3E00
6380
40C0
0040
0060
FFE0
8060
C040
40C0
7180
1F00
ENDCHAR
STARTCHAR 0292
ENCODING 658
SWIDTH 528 0
DWIDTH 11 0
BBX 10 15 0 -4
BITMAP
FF80
0180
0100
0200
0400
0C00
1F00
0380
00C0
00C0
00C0
00C0
80C0
E380
3E00
ENDCHAR
STARTCHAR 02B9
ENCODING 697
SWIDTH 192 0
DWIDTH 4 0
BBX 2 6 1 9
BITMAP
C0
C0
C0
C0
40
40
ENDCHAR
STARTCHAR 02BA
ENCODING 698
SWIDTH 384 0
DWIDTH 8 0
BBX 5 6 1 9
BITMAP
C8
C8
C8
C8
48
48
ENDCHAR
STARTCHAR 02BB
ENCODING 699
SWIDTH 288 0
DWIDTH 6 0
BBX 2 5 2 12
BITMAP
40
80
80
C0
C0
ENDCHAR
STARTCHAR 02BC
ENCODING 700
SWIDTH 192 0
DWIDTH 4 0
BBX 1 5 1 10
BITMAP
80
80
80
80
80
ENDCHAR
STARTCHAR 02BE
ENCODING 702
SWIDTH 624 0
DWIDTH 13 0
BBX 2 5 6 12
BITMAP
80
40
40
40
80
ENDCHAR
STARTCHAR 02BF
ENCODING 703
SWIDTH 624 0
DWIDTH 13 0
BBX 2 5 4 12
BITMAP
40
80
80
80
40
ENDCHAR
STARTCHAR 02C6
ENCODING 710
SWIDTH 624 0
DWIDTH 13 0
BBX 7 3 3 12
BITMAP
38
4C
86
ENDCHAR
STARTCHAR 02C7
ENCODING 711
SWIDTH 624 0
DWIDTH 13 0
BBX 6 3 3 12
BITMAP
C4
78
30
ENDCHAR
STARTCHAR 02C8
ENCODING 712
SWIDTH 144 0
DWIDTH 3 0
BBX 1 4 1 11
BITMAP
80
80
80
80
ENDCHAR
STARTCHAR 02C9
ENCODING 713
SWIDTH 624 0
DWIDTH 13 0
BBX 6 1 3 13
BITMAP
FC
ENDCHAR
STARTCHAR 02CA
ENCODING 714
SWIDTH 624 0
DWIDTH 13 0
BBX 4 3 5 12
BITMAP
30
60
80
ENDCHAR
STARTCHAR 02CB
ENCODING 715
SWIDTH 624 0
DWIDTH 13 0
BBX 4 3 3 12
BITMAP
C0
20
10
ENDCHAR
STARTCHAR 02CC
ENCODING 716
SWIDTH 144 0
DWIDTH 3 0
BBX 1 4 1 -5
BITMAP
80
80
80
80
ENDCHAR
STARTCHAR 02D8
ENCODING 728
SWIDTH 624 0
DWIDTH 13 0
BBX 6 3 3 12
BITMAP
84
C4
78
ENDCHAR
STARTCHAR 02D9
ENCODING 729
SWIDTH 624 0
DWIDTH 13 0
BBX 2 2 5 13
BITMAP
C0
C0
ENDCHAR
STARTCHAR 02DA
ENCODING 730
SWIDTH 624 0
DWIDTH 13 0
BBX 4 5 4 12
BITMAP
60
90
90
90
60
ENDCHAR
STARTCHAR 02DB
ENCODING 731
SWIDTH 624 0
DWIDTH 13 0
BBX 4 6 3 -5
BITMAP
20
40
80
80
80
F0
ENDCHAR
STARTCHAR 02DC
ENCODING 732
SWIDTH 624 0
DWIDTH 13 0
BBX 7 3 3 12
BITMAP
62
94
0C
ENDCHAR
STARTCHAR 02DD
ENCODING 733
SWIDTH 624 0
DWIDTH 13 0
BBX 6 3 4 12
BITMAP
24
4C
98
ENDCHAR
STARTCHAR 0300
ENCODING 768
SWIDTH 0 0
DWIDTH 0 0
BBX 4 3 -9 12
BITMAP
C0
60
10
ENDCHAR
STARTCHAR 0301
ENCODING 769
SWIDTH 0 0
DWIDTH 0 0
BBX 5 3 -8 12
BITMAP
18
20
C0
ENDCHAR
STARTCHAR 0302
ENCODING 770
SWIDTH 0 0
DWIDTH 0 0
BBX 7 3 -10 12
BITMAP
38
64
C2
ENDCHAR
STARTCHAR 0303
ENCODING 771
SWIDTH 0 0
DWIDTH 0 0
BBX 6 3 -9 12
BITMAP
C4
A4
18
ENDCHAR
STARTCHAR 0304
ENCODING 772
SWIDTH 0 0
DWIDTH 0 0
BBX 6 1 -9 13
BITMAP
FC
ENDCHAR
STARTCHAR 0306
ENCODING 774
SWIDTH 0 0
DWIDTH 0 0
BBX 6 3 -9 12
BITMAP
84
8C
78
ENDCHAR
STARTCHAR 0307
ENCODING 775
SWIDTH 0 0
DWIDTH 0 0
BBX 2 2 -7 13
BITMAP
C0
C0
ENDCHAR
STARTCHAR 0308
ENCODING 776
SWIDTH 0 0
DWIDTH 0 0
BBX 5 2 -9 13
BITMAP
C8
C8
ENDCHAR
STARTCHAR 0309
ENCODING 777
SWIDTH 0 0
DWIDTH 0 0
BBX 4 4 -8 13
BITMAP
E0
10
10
60
ENDCHAR
STARTCHAR 030A
ENCODING 778
SWIDTH 0 0
DWIDTH 0 0
BBX 4 5 -8 12
BITMAP
60
90
90
90
60
ENDCHAR
STARTCHAR 030B
ENCODING 779
SWIDTH 0 0
DWIDTH 0 0
BBX 7 3 -9 12
BITMAP
36
64
C8
ENDCHAR
STARTCHAR 030C
ENCODING 780
SWIDTH 0 0
DWIDTH 0 0
BBX 6 3 -9 12
BITMAP
8C
58
30
ENDCHAR
STARTCHAR 030F
ENCODING 783
SWIDTH 0 0
DWIDTH 0 0
BBX 6 3 -10 12
BITMAP
90
C8
64
ENDCHAR
STARTCHAR 0311
ENCODING 785
SWIDTH 0 0
DWIDTH 0 0
BBX 6 3 -9 12
BITMAP
78
8C
84
ENDCHAR
STARTCHAR 0312
ENCODING 786
SWIDTH 0 0
DWIDTH 0 0
BBX 2 4 -7 12
BITMAP
40
80
C0
80
ENDCHAR
STARTCHAR 031B
ENCODING 795
SWIDTH 0 0
DWIDTH 0 0
BBX 3 4 -7 10
BITMAP
20
20
20
E0
ENDCHAR
STARTCHAR 0323
ENCODING 803
SWIDTH 0 0
DWIDTH 0 0
BBX 2 2 -7 -4
BITMAP
80
C0
ENDCHAR
STARTCHAR 0324
ENCODING 804
SWIDTH 0 0
DWIDTH 0 0
BBX 5 2 -9 -4
BITMAP
C8
C8
ENDCHAR
STARTCHAR 0326
ENCODING 806
SWIDTH 0 0
DWIDTH 0 0
BBX 2 3 -7 -5
BITMAP
C0
C0
80
ENDCHAR
STARTCHAR 0327
ENCODING 807
SWIDTH 0 0
DWIDTH 0 0
BBX 4 5 -8 -5
BITMAP
40
60
10
30
E0
ENDCHAR
STARTCHAR 0328
ENCODING 808
SWIDTH 0 0
DWIDTH 0 0
BBX 4 5 -10 -4
BITMAP
60
C0
80
D0
70
ENDCHAR
STARTCHAR 032E
ENCODING 814
SWIDTH 0 0
DWIDTH 0 0
BBX 6 3 -9 -4
BITMAP
84
84
78
ENDCHAR
STARTCHAR 0331
ENCODING 817
SWIDTH 0 0
DWIDTH 0 0
BBX 6 1 -9 -4
BITMAP
FC
ENDCHAR
STARTCHAR 0335
ENCODING 821
SWIDTH 0 0
DWIDTH 0 0
BBX 8 1 -10 9
BITMAP
FF
ENDCHAR
STARTCHAR 0336
ENCODING 822
SWIDTH 0 0
DWIDTH 0 0
BBX 16 1 -17 9
BITMAP
FFFF
ENDCHAR
STARTCHAR 0337
ENCODING 823
SWIDTH 0 0
DWIDTH 0 0
BBX 5 5 -7 5
BITMAP
08
18
30
C0
80
ENDCHAR
STARTCHAR 0338
ENCODING 824
SWIDTH 0 0
DWIDTH 0 0
BBX 9 14 -11 -2
BITMAP
0080
0080
0100
0200
0200
0400
0800
0800
1000
2000
2000
4000
8000
8000
ENDCHAR
STARTCHAR 0394
ENCODING 916
SWIDTH 720 0
DWIDTH 15 0
BBX 15 15 0 0
BITMAP
0300
0380
0280
06C0
0440
0C60
0820
1830
1030
3010
3018
2008
600C
4004
FFFE
ENDCHAR
STARTCHAR 03A9
ENCODING 937
SWIDTH 912 0
DWIDTH 19 0
BBX 19 15 0 0
BITMAP
03F000
071C00
0C0600
180300
300100
300180
200180
200180
200180
300180
300100
180300
080600
060C00
FE0FE0
ENDCHAR
STARTCHAR 03BC
ENCODING 956
SWIDTH 672 0
DWIDTH 14 0
BBX 10 15 2 -4
BITMAP
C040
C040
C040
C040
C040
C040
C040
C0C0
C0C0
F340
DE40
C000
C000
C000
C000
ENDCHAR
STARTCHAR 03C0
ENCODING 960
SWIDTH 720 0
DWIDTH 15 0
BBX 15 11 0 0
BITMAP
7FFE
C430
8430
8430
8C30
0C30
0C30
0C30
0830
0830
0830
ENDCHAR
STARTCHAR 0400
ENCODING 1024
SWIDTH 672 0
DWIDTH 14 0
BBX 11 19 2 0
BITMAP
3000
1800
0400
0000
FFC0
C000
C000
C000
C000
C000
C000
FFC0
C000
C000
C000
C000
C000
C000
FFE0
ENDCHAR
STARTCHAR 0401
ENCODING 1025
SWIDTH 672 0
DWIDTH 14 0
BBX 11 19 2 0
BITMAP
1100
1100
0000
0000
FFC0
C000
C000
C000
C000
C000
C000
FFC0
C000
C000
C000
C000
C000
C000
FFE0
ENDCHAR
STARTCHAR 0402
ENCODING 1026
SWIDTH 816 0
DWIDTH 17 0
BBX 16 15 0 0
BITMAP
FFF0
0600
0600
0600
0600
0600
06FC
0786
0603
0601
0601
0601
0603
0606
063C
ENDCHAR
STARTCHAR 0403
ENCODING 1027
SWIDTH 576 0
DWIDTH 12 0
BBX 10 19 2 0
BITMAP
0300
0600
0C00
0000
FFC0
C000
C000
C000
C000
C000
C000
C000
C000
C000
C000
C000
C000
C000
C000
ENDCHAR
STARTCHAR 0404
ENCODING 1028
SWIDTH 720 0
DWIDTH 15 0
BBX 13 15 1 0
BITMAP
07E0
1C70
3018
6000
4000
C000
C000
FF80
C000
C000
4000
6000
3018
1C70
07C0
ENDCHAR
STARTCHAR 0405
ENCODING 1029
SWIDTH 624 0
DWIDTH 13 0
BBX 11 15 1 0
BITMAP
1F80
71C0
6000
4000
C000
6000
7800
1F00
01C0
0060
0060
0060
8060
71C0
3F00
ENDCHAR
STARTCHAR 0406
ENCODING 1030
SWIDTH 288 0
DWIDTH 6 0
BBX 2 15 2 0
BITMAP
C0
C0
C0
C0
C0
C0
C0
C0
C0
C0
C0
C0
C0
C0
C0
ENDCHAR
STARTCHAR 0407
ENCODING 1031
SWIDTH 288 0
DWIDTH 6 0
BBX 6 19 0 0
BITMAP
4C
CC
00
00
30
30
30
30
30
30
30
30
30
30
30
30
30
30
30
ENDCHAR
STARTCHAR 0408
ENCODING 1032
SWIDTH 528 0
DWIDTH 11 0
BBX 8 15 1 0
BITMAP
7F
03
03
03
03
03
03
03
03
03
03
03
82
C6
7C
ENDCHAR
STARTCHAR 0409
ENCODING 1033
SWIDTH 1200 0
DWIDTH 25 0
BBX 24 15 0 0
BITMAP
0FFC00
080C00
080C00
080C00
080C00
080FF8
080C0E
080C02
080C03
080C03
180C03
180C03
100C06
300C0E
E00FF8
ENDCHAR
STARTCHAR 040A
ENCODING 1034
SWIDTH 1200 0
DWIDTH 25 0
BBX 22 15 2 0
BITMAP
C01000
C01000
C01000
C01000
C01000
C01000
FFFFF0
C01038
C01008
C0100C
C0100C
C0100C
C01008
C01038
C01FE0
ENDCHAR
STARTCHAR 040B
ENCODING 1035
SWIDTH 816 0
DWIDTH 17 0
BBX 16 15 0 0
BITMAP
FFF0
0600
0600
0600
0600
0600
06FC
07CE
0603
0601
0601
0601
0601
0601
0601
ENDCHAR
STARTCHAR 040C
ENCODING 1036
SWIDTH 720 0
DWIDTH 15 0
BBX 12 19 2 0
BITMAP
0180
0200
0400
0000
C030
C060
C0C0
C080
C180
C300
C600
FE00
C200
C300
C180
C0C0
C040
C060
C030
ENDCHAR
STARTCHAR 040D
ENCODING 1037
SWIDTH 816 0
DWIDTH 17 0
BBX 13 19 2 0
BITMAP
1800
0C00
0200
0000
C018
C038
C078
C078
C0D8
C198
C318
C218
C618
CC18
D818
D018
F018
E018
C018
ENDCHAR
STARTCHAR 040E
ENCODING 1038
SWIDTH 672 0
DWIDTH 14 0
BBX 13 19 1 0
BITMAP
1080
1080
0F00
0000
8018
C010
4030
6020
2060
30C0
1080
1980
0900
0F00
0600
0600
0400
5C00
7000
ENDCHAR
STARTCHAR 040F
ENCODING 1039
SWIDTH 816 0
DWIDTH 17 0
BBX 12 18 2 -3
BITMAP
C010
C010
C010
C010
C010
C010
C010
C010
C010
C010
C010
C010
C010
C010
FFF0
0200
0200
0200
ENDCHAR
STARTCHAR 0410
ENCODING 1040
SWIDTH 768 0
DWIDTH 16 0
BBX 14 15 1 0
BITMAP
0300
0700
0580
0C80
0880
08C0
1840
1060
3020
2030
7FF0
4018
C018
C008
800C
ENDCHAR
STARTCHAR 0411
ENCODING 1041
SWIDTH 720 0
DWIDTH 15 0
BBX 12 15 2 0
BITMAP
FFE0
C000
C000
C000
C000
C000
FFC0
C0E0
C030
C030
C030
C030
C030
C0E0
FF80
ENDCHAR
STARTCHAR 0412
ENCODING 1042
SWIDTH 768 0
DWIDTH 16 0
BBX 12 15 2 0
BITMAP
FF80
C0E0
C020
C020
C020
C020
C0C0
FFC0
C060
C030
C010
C010
C030
C060
FFC0
ENDCHAR
STARTCHAR 0413
ENCODING 1043
SWIDTH 576 0
DWIDTH 12 0
BBX 10 15 2 0
BITMAP
FFC0
C000
C000
C000
C000
C000
C000
C000
C000
C000
C000
C000
C000
C000
C000
ENDCHAR
STARTCHAR 0414
ENCODING 1044
SWIDTH 816 0
DWIDTH 17 0
BBX 16 18 0 -3
BITMAP
0FFC
080C
080C
080C
080C
080C
080C
080C
180C
180C
180C
100C
100C
200C
FFFF
C003
C003
C003
ENDCHAR
STARTCHAR 0415
ENCODING 1045
SWIDTH 672 0
DWIDTH 14 0
BBX 11 15 2 0
BITMAP
FFC0
C000
C000
C000
C000
C000
C000
FFC0
C000
C000
C000
C000
C000
C000
FFE0
ENDCHAR
STARTCHAR 0416
ENCODING 1046
SWIDTH 1008 0
DWIDTH 21 0
BBX 19 15 1 0
BITMAP
C04060
404040
6040C0
304180
104100
184300
0C4600
0FFE00
084200
184300
304180
304080
6040C0
C04060
C04060
ENDCHAR
STARTCHAR 0417
ENCODING 1047
SWIDTH 624 0
DWIDTH 13 0
BBX 11 15 1 0
BITMAP
3F00
E380
00C0
0040
0040
00C0
0180
3F00
00C0
0060
0060
0060
8040
E1C0
3F00
ENDCHAR
STARTCHAR 0418
ENCODING 1048
SWIDTH 816 0
DWIDTH 17 0
BBX 13 15 2 0
BITMAP
C018
C038
C078
C078
C0D8
C198
C318
C218
C618
CC18
D818
D018
F018
E018
C018
ENDCHAR
STARTCHAR 0419
ENCODING 1049
SWIDTH 816 0
DWIDTH 17 0
BBX 13 19 2 0
BITMAP
1040
18C0
0780
0000
C018
C038
C078
C078
C0D8
C198
C318
C218
C618
CC18
D818
D018
F018
E018
C018
ENDCHAR
STARTCHAR 041A
ENCODING 1050
SWIDTH 720 0
DWIDTH 15 0
BBX 12 15 2 0
BITMAP
C030
C060
C0C0
C080
C180
C300
C600
FE00
C200
C300
C180
C0C0
C040
C060
C030
ENDCHAR
STARTCHAR 041B
ENCODING 1051
SWIDTH 768 0
DWIDTH 16 0
BBX 14 15 0 0
BITMAP
0FFC
080C
080C
080C
080C
080C
080C
080C
080C
080C
180C
180C
100C
300C
E00C
ENDCHAR
STARTCHAR 041C
ENCODING 1052
SWIDTH 960 0
DWIDTH 20 0
BBX 16 15 2 0
BITMAP
C003
E007
E007
F00F
D00B
D81B
C813
CC33
C623
C243
C3C3
C183
C183
C003
C003
ENDCHAR
STARTCHAR 041D
ENCODING 1053
SWIDTH 816 0
DWIDTH 17 0
BBX 13 15 2 0
BITMAP
C018
C018
C018
C018
C018
C018
C018
FFF8
C018
C018
C018
C018
C018
C018
C018
ENDCHAR
STARTCHAR 041E
ENCODING 1054
SWIDTH 864 0
DWIDTH 18 0
BBX 15 15 1 0
BITMAP
07E0
1E78
301C
6004
4006
C002
C002
C002
C002
C002
4006
6004
300C
1C78
07E0
ENDCHAR
STARTCHAR 041F
ENCODING 1055
SWIDTH 816 0
DWIDTH 17 0
BBX 13 15 2 0
BITMAP
FFF8
C018
C018
C018
C018
C018
C018
C018
C018
C018
C018
C018
C018
C018
C018
ENDCHAR
STARTCHAR 0420
ENCODING 1056
SWIDTH 720 0
DWIDTH 15 0
BBX 12 15 2 0
BITMAP
FF80
C1C0
C060
C030
C030
C030
C030
C020
C0E0
FFC0
C000
C000
C000
C000
C000
ENDCHAR
STARTCHAR 0421
ENCODING 1057
SWIDTH 720 0
DWIDTH 15 0
BBX 13 15 1 0
BITMAP
07E0
1E78
3008
6000
4000
C000
C000
C000
C000
C000
4000
6000
3018
1E70
07E0
ENDCHAR
STARTCHAR 0422
ENCODING 1058
SWIDTH 576 0
DWIDTH 12 0
BBX 12 15 0 0
BITMAP
FFF0
0600
0600
0600
0600
0600
0600
0600
0600
0600
0600
0600
0600
0600
0600
ENDCHAR
STARTCHAR 0423
ENCODING 1059
SWIDTH 672 0
DWIDTH 14 0
BBX 13 15 1 0
BITMAP
8018
C010
4030
6020
2060
30C0
1080
1980
0900
0F00
0600
0600
0400
5C00
7000
ENDCHAR
STARTCHAR 0424
ENCODING 1060
SWIDTH 912 0
DWIDTH 19 0
BBX 17 16 1 -1
BITMAP
008000
008000
0FF800
388E00
608300
408180
C08180
C08080
C08080
C08180
408100
608300
3C9E00
07F800
008000
008000
ENDCHAR
STARTCHAR 0425
ENCODING 1061
SWIDTH 672 0
DWIDTH 14 0
BBX 12 15 1 0
BITMAP
C020
6060
20C0
3180
1980
0B00
0E00
0600
0F00
1B00
1180
30C0
6040
C060
C030
ENDCHAR
STARTCHAR 0426
ENCODING 1062
SWIDTH 816 0
DWIDTH 17 0
BBX 15 18 2 -3
BITMAP
C010
C010
C010
C010
C010
C010
C010
C010
C010
C010
C010
C010
C010
C010
FFFE
0006
0006
0006
ENDCHAR
STARTCHAR 0427
ENCODING 1063
SWIDTH 720 0
DWIDTH 15 0
BBX 12 15 1 0
BITMAP
C030
C030
C030
C030
C030
C030
C030
6030
71F0
1FB0
0030
0030
0030
0030
0030
ENDCHAR
STARTCHAR 0428
ENCODING 1064
SWIDTH 1104 0
DWIDTH 23 0
BBX 18 15 2 0
BITMAP
C04040
C04040
C04040
C04040
C04040
C04040
C04040
C04040
C04040
C04040
C04040
C04040
C04040
C04040
FFFFC0
ENDCHAR
STARTCHAR 0429
ENCODING 1065
SWIDTH 1104 0
DWIDTH 23 0
BBX 21 18 2 -3
BITMAP
C04040
C04040
C04040
C04040
C04040
C04040
C04040
C04040
C04040
C04040
C04040
C04040
C04040
C04040
FFFFF8
000018
000018
000018
ENDCHAR
STARTCHAR 042A
ENCODING 1066
SWIDTH 816 0
DWIDTH 17 0
BBX 16 15 0 0
BITMAP
FC00
0400
0400
0400
0400
07FC
040E
0403
0403
0401
0401
0403
0403
040E
07F8
ENDCHAR
STARTCHAR 042B
ENCODING 1067
SWIDTH 960 0
DWIDTH 20 0
BBX 16 15 2 0
BITMAP
C003
C003
C003
C003
C003
C003
FFC3
C063
C033
C033
C033
C033
C023
C0E3
FF83
ENDCHAR
STARTCHAR 042C
ENCODING 1068
SWIDTH 720 0
DWIDTH 15 0
BBX 12 15 2 0
BITMAP
C000
C000
C000
C000
C000
C000
FFC0
C060
C030
C030
C030
C030
C020
C0E0
FF80
ENDCHAR
STARTCHAR 042D
ENCODING 1069
SWIDTH 720 0
DWIDTH 15 0
BBX 12 15 1 0
BITMAP
3F00
F3C0
8060
0020
0030
0010
0010
1FF0
0010
0010
0030
0020
8060
F3C0
3F00
ENDCHAR
STARTCHAR 042E
ENCODING 1070
SWIDTH 1104 0
DWIDTH 23 0
BBX 19 15 2 0
BITMAP
C07E00
C0E780
C180C0
C30040
C60060
C60020
C60020
FC0020
C60020
C60020
C20060
C30040
C180C0
C0E780
C07E00
ENDCHAR
STARTCHAR 042F
ENCODING 1071
SWIDTH 720 0
DWIDTH 15 0
BBX 12 15 1 0
BITMAP
1FF0
3830
6030
4030
C030
C030
C030
6030
7030
1FF0
1830
1030
3030
6030
4030
ENDCHAR
STARTCHAR 0430
ENCODING 1072
SWIDTH 576 0
DWIDTH 12 0
BBX 9 11 1 0
BITMAP
3E00
E380
0180
0080
0080
3F80
C080
C080
C180
6380
3C80
ENDCHAR
STARTCHAR 0431
ENCODING 1073
SWIDTH 672 0
DWIDTH 14 0
BBX 12 16 1 0
BITMAP
01E0
0F80
3800
2000
6000
4F80
59C0
E060
E020
C030
4030
4030
6020
2060
38C0
0F80
ENDCHAR
STARTCHAR 0432
ENCODING 1074
SWIDTH 624 0
DWIDTH 13 0
BBX 9 11 2 0
BITMAP
FE00
C180
C180
C180
C100
FF00
C180
C080
C080
C180
FF00
ENDCHAR
STARTCHAR 0433
ENCODING 1075
SWIDTH 480 0
DWIDTH 10 0
BBX 8 11 2 0
BITMAP
FF
C0
C0
C0
C0
C0
C0
C0
C0
C0
C0
ENDCHAR
STARTCHAR 0434
ENCODING 1076
SWIDTH 672 0
DWIDTH 14 0
BBX 13 14 0 -3
BITMAP
1FE0
1020
1020
1020
1020
1020
1020
3020
3020
6020
FFF8
C018
C018
C018
ENDCHAR
STARTCHAR 0435
ENCODING 1077
SWIDTH 624 0
DWIDTH 13 0
BBX 11 11 1 0
BITMAP
1F00
3180
60C0
C040
C060
FFE0
C000
C000
6000
31C0
1F00
ENDCHAR
STARTCHAR 0436
ENCODING 1078
SWIDTH 816 0
DWIDTH 17 0
BBX 16 11 1 0
BITMAP
C102
4104
610C
3108
1110
1FF0
3118
2108
610C
C106
8103
ENDCHAR
STARTCHAR 0437
ENCODING 1079
SWIDTH 528 0
DWIDTH 11 0
BBX 9 11 1 0
BITMAP
7E00
C300
0180
0100
0300
1E00
0100
0180
0180
C300
7E00
ENDCHAR
STARTCHAR 0438
ENCODING 1080
SWIDTH 672 0
DWIDTH 14 0
BBX 10 11 2 0
BITMAP
C0C0
C0C0
C1C0
C340
C640
CC40
D840
D040
F040
E040
C040
ENDCHAR
STARTCHAR 0439
ENCODING 1081
SWIDTH 672 0
DWIDTH 14 0
BBX 10 16 2 0
BITMAP
2100
2100
1E00
0000
0000
C0C0
C0C0
C1C0
C340
C640
CC40
D840
D040
F040
E040
C040
ENDCHAR
STARTCHAR 043A
ENCODING 1082
SWIDTH 576 0
DWIDTH 12 0
BBX 9 11 2 0
BITMAP
C080
C100
C200
C600
CC00
F800
CC00
C600
C300
C180
C080
ENDCHAR
STARTCHAR 043B
ENCODING 1083
SWIDTH 624 0
DWIDTH 13 0
BBX 11 11 0 0
BITMAP
1FE0
1020
1020
1020
1020
1020
1020
3020
3020
6020
E020
ENDCHAR
STARTCHAR 043C
ENCODING 1084
SWIDTH 768 0
DWIDTH 16 0
BBX 12 11 2 0
BITMAP
C010
C030
A070
B050
90D0
9890
8910
8710
8610
8210
8010
ENDCHAR
STARTCHAR 043D
ENCODING 1085
SWIDTH 672 0
DWIDTH 14 0
BBX 10 11 2 0
BITMAP
C0C0
C0C0
C0C0
C0C0
C0C0
FFC0
C0C0
C0C0
C0C0
C0C0
C0C0
ENDCHAR
STARTCHAR 043E
ENCODING 1086
SWIDTH 624 0
DWIDTH 13 0
BBX 11 11 1 0
BITMAP
1F00
31C0
6040
C060
C020
C020
C020
C060
6040
31C0
1F00
ENDCHAR
STARTCHAR 043F
ENCODING 1087
SWIDTH 672 0
DWIDTH 14 0
BBX 10 11 2 0
BITMAP
FFC0
C0C0
C0C0
C0C0
C0C0
C0C0
C0C0
C0C0
C0C0
C0C0
C0C0
ENDCHAR
STARTCHAR 0440
ENCODING 1088
SWIDTH 672 0
DWIDTH 14 0
BBX 11 15 2 -4
BITMAP
DF00
F1C0
E040
C060
C020
C020
C020
C060
E040
F1C0
DF00
C000
C000
C000
C000
ENDCHAR
STARTCHAR 0441
ENCODING 1089
SWIDTH 576 0
DWIDTH 12 0
BBX 9 11 1 0
BITMAP
1F00
3180
6000
C000
C000
C000
C000
C000
6000
3180
1F00
ENDCHAR
STARTCHAR 0442
ENCODING 1090
SWIDTH 480 0
DWIDTH 10 0
BBX 10 11 0 0
BITMAP
FFC0
0C00
0C00
0C00
0C00
0C00
0C00
0C00
0C00
0C00
0C00
ENDCHAR
STARTCHAR 0443
ENCODING 1091
SWIDTH 576 0
DWIDTH 12 0
BBX 11 15 0 -4
BITMAP
C020
4060
6040
20C0
3080
1080
1900
0900
0B00
0E00
0600
0400
0C00
9800
F000
ENDCHAR
STARTCHAR 0444
ENCODING 1092
SWIDTH 768 0
DWIDTH 16 0
BBX 14 20 1 -4
BITMAP
0300
0300
0300
0300
0300
0FE0
3B78
6308
C30C
C304
8304
C304
C30C
6308
3B78
0FE0
0300
0300
0300
0300
ENDCHAR
STARTCHAR 0445
ENCODING 1093
SWIDTH 528 0
DWIDTH 11 0
BBX 9 11 1 0
BITMAP
C180
4100
6200
3600
1C00
0800
1400
3600
6300
C100
8080
ENDCHAR
STARTCHAR 0446
ENCODING 1094
SWIDTH 672 0
DWIDTH 14 0
BBX 12 14 2 -3
BITMAP
C0C0
C0C0
C0C0
C0C0
C0C0
C0C0
C0C0
C0C0
C0C0
C0C0
FFF0
0030
0030
0030
ENDCHAR
STARTCHAR 0447
ENCODING 1095
SWIDTH 576 0
DWIDTH 12 0
BBX 9 11 1 0
BITMAP
8080
8080
8080
8080
C080
C180
7F80
0080
0080
0080
0080
ENDCHAR
STARTCHAR 0448
ENCODING 1096
SWIDTH 912 0
DWIDTH 19 0
BBX 15 11 2 0
BITMAP
C102
C102
C102
C102
C102
C102
C102
C102
C102
C102
FFFE
ENDCHAR
STARTCHAR 0449
ENCODING 1097
SWIDTH 912 0
DWIDTH 19 0
BBX 17 13 2 -2
BITMAP
C10200
C10200
C10200
C10200
C10200
C10200
C10200
C10200
C10200
C10200
FFFF80
000080
000080
ENDCHAR
STARTCHAR 044A
ENCODING 1098
SWIDTH 624 0
DWIDTH 13 0
BBX 12 11 0 0
BITMAP
F800
1800
1800
1800
1FE0
1830
1810
1810
1810
1830
1FC0
ENDCHAR
STARTCHAR 044B
ENCODING 1099
SWIDTH 768 0
DWIDTH 16 0
BBX 12 11 2 0
BITMAP
C010
C010
C010
C010
FE10
C310
C190
C190
C190
C310
FE10
ENDCHAR
STARTCHAR 044C
ENCODING 1100
SWIDTH 576 0
DWIDTH 12 0
BBX 9 11 2 0
BITMAP
C000
C000
C000
C000
FE00
C180
C180
C080
C180
C300
FE00
ENDCHAR
STARTCHAR 044D
ENCODING 1101
SWIDTH 576 0
DWIDTH 12 0
BBX 10 11 1 0
BITMAP
7E00
C300
8180
00C0
00C0
1FC0
00C0
00C0
0180
C300
7E00
ENDCHAR
STARTCHAR 044E
ENCODING 1102
SWIDTH 864 0
DWIDTH 18 0
BBX 15 11 2 0
BITMAP
C1F0
C318
C60C
CC06
CC06
FC06
CC06
CC06
C60C
C318
C1F0
ENDCHAR
STARTCHAR 044F
ENCODING 1103
SWIDTH 624 0
DWIDTH 13 0
BBX 10 11 1 0
BITMAP
3FC0
60C0
C0C0
C0C0
C0C0
60C0
3FC0
30C0
20C0
60C0
C0C0
ENDCHAR
STARTCHAR 0450
ENCODING 1104
SWIDTH 624 0
DWIDTH 13 0
BBX 11 15 1 0
BITMAP
1000
0C00
0600
0000
1F00
3180
60C0
C040
C060
FFE0
C000
C000
6000
31C0
1F00
ENDCHAR
STARTCHAR 0451
ENCODING 1105
SWIDTH 624 0
DWIDTH 13 0
BBX 11 15 1 0
BITMAP
1100
1300
0000
0000
1F00
3180
60C0
C040
C060
FFE0
C000
C000
6000
31C0
1F00
ENDCHAR
STARTCHAR 0452
ENCODING 1106
SWIDTH 672 0
DWIDTH 14 0
BBX 12 20 0 -4
BITMAP
3000
3000
FF80
3000
3000
37C0
3C60
3830
3010
3010
3010
3010
3010
3010
3010
3010
0010
0010
0130
01E0
ENDCHAR
STARTCHAR 0453
ENCODING 1107
SWIDTH 480 0
DWIDTH 10 0
BBX 8 15 2 0
BITMAP
06
0C
10
00
FF
C0
C0
C0
C0
C0
C0
C0
C0
C0
C0
ENDCHAR
STARTCHAR 0454
ENCODING 1108
SWIDTH 576 0
DWIDTH 12 0
BBX 10 11 1 0
BITMAP
1F80
30C0
6000
C000
C000
FE00
C000
C000
6000
30C0
1F80
ENDCHAR
STARTCHAR 0455
ENCODING 1109
SWIDTH 528 0
DWIDTH 11 0
BBX 9 11 1 0
BITMAP
3F00
6300
C000
C000
6000
3E00
0380
0180
0180
E300
3E00
ENDCHAR
STARTCHAR 0456
ENCODING 1110
SWIDTH 288 0
DWIDTH 6 0
BBX 2 16 2 0
BITMAP
C0
C0
00
00
00
C0
C0
C0
C0
C0
C0
C0
C0
C0
C0
C0
ENDCHAR
STARTCHAR 0457
ENCODING 1111
SWIDTH 288 0
DWIDTH 6 0
BBX 4 15 1 0
BITMAP
B0
90
00
00
60
60
60
60
60
60
60
60
60
60
60
ENDCHAR
STARTCHAR 0458
ENCODING 1112
SWIDTH 288 0
DWIDTH 6 0
BBX 6 20 -2 -4
BITMAP
0C
0C
00
00
00
0C
0C
0C
0C
0C
0C
0C
0C
0C
0C
0C
0C
0C
98
F0
ENDCHAR
STARTCHAR 0459
ENCODING 1113
SWIDTH 912 0
DWIDTH 19 0
BBX 18 11 0 0
BITMAP
1FE000
102000
102000
102000
103F80
1020C0
102040
302040
302040
6020C0
E03F80
ENDCHAR
STARTCHAR 045A
ENCODING 1114
SWIDTH 960 0
DWIDTH 20 0
BBX 17 11 2 0
BITMAP
C0C000
C0C000
C0C000
C0C000
C0C000
FFFF00
C0C180
C0C080
C0C180
C0C180
C0FE00
ENDCHAR
STARTCHAR 045B
ENCODING 1115
SWIDTH 672 0
DWIDTH 14 0
BBX 13 16 -1 0
BITMAP
1800
1800
FFC0
1800
1800
1BE0
1E30
1C18
1808
1808
1808
1808
1808
1808
1808
1808
ENDCHAR
STARTCHAR 045C
ENCODING 1116
SWIDTH 576 0
DWIDTH 12 0
BBX 9 15 2 0
BITMAP
0600
0C00
1000
0000
C080
C100
C200
C600
CC00
F800
CC00
C600
C300
C180
C080
ENDCHAR
STARTCHAR 045D
ENCODING 1117
SWIDTH 672 0
DWIDTH 14 0
BBX 10 15 2 0
BITMAP
3000
0800
0400
0000
C0C0
C0C0
C1C0
C340
C640
CC40
D840
D040
F040
E040
C040
ENDCHAR
STARTCHAR 045E
ENCODING 1118
SWIDTH 576 0
DWIDTH 12 0
BBX 11 20 0 -4
BITMAP
2080
1100
0E00
0000
0000
C020
4060
6040
20C0
3080
1080
1900
0900
0B00
0E00
0600
0400
0C00
9800
F000
ENDCHAR
STARTCHAR 045F
ENCODING 1119
SWIDTH 624 0
DWIDTH 13 0
BBX 9 14 2 -3
BITMAP
C080
C080
C080
C080
C080
C080
C080
C080
C080
C080
FF80
0800
0800
0800
ENDCHAR
STARTCHAR 0462
ENCODING 1122
SWIDTH 816 0
DWIDTH 17 0
BBX 16 16 0 0
BITMAP
0C00
0C00
0C00
FFC0
0C00
0C00
0FF8
0C0E
0C02
0C03
0C03
0C03
0C03
0C06
0C0E
0FF8
ENDCHAR
STARTCHAR 0463
ENCODING 1123
SWIDTH 576 0
DWIDTH 12 0
BBX 12 16 0 0
BITMAP
1000
1000
1000
1000
FF00
1000
1000
1000
1000
1FC0
1060
1030
1030
1030
1060
1FC0
ENDCHAR
STARTCHAR 046A
ENCODING 1130
SWIDTH 864 0
DWIDTH 18 0
BBX 17 15 1 0
BITMAP
7FFE00
600600
300C00
181800
0C1000
062000
034000
0FF000
199C00
318400
618600
618200
418300
C18100
818180
ENDCHAR
STARTCHAR 046B
ENCODING 1131
SWIDTH 672 0
DWIDTH 14 0
BBX 13 11 1 0
BITMAP
7FE0
6020
3040
1080
0900
1FC0
2660
4620
C630
8610
8618
ENDCHAR
STARTCHAR 0472
ENCODING 1138
SWIDTH 864 0
DWIDTH 18 0
BBX 16 15 1 0
BITMAP
07E0
1E78
300C
6004
4006
C002
C002
FFFF
C002
C002
4006
6004
301C
1C78
07E0
ENDCHAR
STARTCHAR 0473
ENCODING 1139
SWIDTH 624 0
DWIDTH 13 0
BBX 11 11 1 0
BITMAP
1F00
31C0
6060
C020
C020
FFE0
C020
C020
6060
31C0
1F00
ENDCHAR
STARTCHAR 0474
ENCODING 1140
SWIDTH 768 0
DWIDTH 16 0
BBX 14 15 1 0
BITMAP
801C
C03C
C030
4060
6060
2040
30C0
30C0
1080
1980
0980
0D00
0F00
0600
0600
ENDCHAR
STARTCHAR 0475
ENCODING 1141
SWIDTH 576 0
DWIDTH 12 0
BBX 12 11 0 0
BITMAP
C070
4070
60C0
2080
3180
1180
1900
1B00
0A00
0E00
0600
ENDCHAR
STARTCHAR 048A
ENCODING 1162
SWIDTH 864 0
DWIDTH 18 0
BBX 15 22 2 -3
BITMAP
1040
18C0
0780
0000
C018
C038
C078
C078
C0D8
C198
C318
C218
C618
CC18
D818
D018
F018
E018
C01E
0004
0004
000C
ENDCHAR
STARTCHAR 048B
ENCODING 1163
SWIDTH 720 0
DWIDTH 15 0
BBX 12 18 2 -2
BITMAP
2100
2100
1E00
0000
0000
C0C0
C0C0
C1C0
C340
C640
CC40
D840
D040
F040
E040
C070
0020
0020
ENDCHAR
STARTCHAR 048C
ENCODING 1164
SWIDTH 720 0
DWIDTH 15 0
BBX 13 16 1 0
BITMAP
2000
2000
2000
FF00
2000
2000
3FE0
2030
2018
2008
2008
2008
2008
2018
2030
3FE0
ENDCHAR
STARTCHAR 048D
ENCODING 1165
SWIDTH 576 0
DWIDTH 12 0
BBX 12 11 0 0
BITMAP
1000
FF00
FF00
1000
1FC0
1060
1030
1030
1030
1060
1FC0
ENDCHAR
STARTCHAR 048E
ENCODING 1166
SWIDTH 720 0
DWIDTH 15 0
BBX 12 15 2 0
BITMAP
FF80
C1C0
C060
C030
C030
C630
C230
C120
C1E0
FFC0
C040
C020
C020
C000
C000
ENDCHAR
STARTCHAR 048F
ENCODING 1167
SWIDTH 720 0
DWIDTH 15 0
BBX 11 15 2 -4
BITMAP
CF00
F1C0
E040
C060
C020
C020
C020
C360
E1C0
F1C0
CF40
C020
C000
C000
C000
ENDCHAR
STARTCHAR 0490
ENCODING 1168
SWIDTH 576 0
DWIDTH 12 0
BBX 10 18 2 0
BITMAP
00C0
00C0
00C0
FFC0
C000
C000
C000
C000
C000
C000
C000
C000
C000
C000
C000
C000
C000
C000
ENDCHAR
STARTCHAR 0491
ENCODING 1169
SWIDTH 432 0
DWIDTH 9 0
BBX 7 13 2 0
BITMAP
02
02
FE
C0
C0
C0
C0
C0
C0
C0
C0
C0
C0
ENDCHAR
STARTCHAR 0492
ENCODING 1170
SWIDTH 624 0
DWIDTH 13 0
BBX 11 15 1 0
BITMAP
3FE0
2000
2000
2000
2000
2000
2000
2000
FFC0
2000
2000
2000
2000
2000
2000
ENDCHAR
STARTCHAR 0493
ENCODING 1171
SWIDTH 480 0
DWIDTH 10 0
BBX 9 11 1 0
BITMAP
7F80
6000
6000
6000
6000
6000
FF00
6000
6000
6000
6000
ENDCHAR
STARTCHAR 0494
ENCODING 1172
SWIDTH 720 0
DWIDTH 15 0
BBX 11 18 2 -3
BITMAP
FFC0
C000
C000
C000
C000
C000
C000
DF80
E0C0
C060
C020
C020
C020
C020
C060
0060
01C0
0700
ENDCHAR
STARTCHAR 0495
ENCODING 1173
SWIDTH 576 0
DWIDTH 12 0
BBX 10 15 2 -4
BITMAP
FF00
C000
C000
C000
C000
FE00
E380
C180
C0C0
C0C0
C0C0
00C0
0180
0300
1E00
ENDCHAR
STARTCHAR 0496
ENCODING 1174
SWIDTH 1056 0
DWIDTH 22 0
BBX 21 18 1 -3
BITMAP
C04060
404040
6040C0
304180
104100
184300
0C4600
0FFE00
084200
184300
304180
304080
6040C0
C04060
C04078
000018
000018
000018
ENDCHAR
STARTCHAR 0497
ENCODING 1175
SWIDTH 864 0
DWIDTH 18 0
BBX 17 14 1 -3
BITMAP
C10200
410400
610C00
310800
111000
1FF000
311800
210800
610C00
C10600
810380
000180
000180
000180
ENDCHAR
STARTCHAR 0498
ENCODING 1176
SWIDTH 624 0
DWIDTH 13 0
BBX 11 18 1 -3
BITMAP
3F00
E380
00C0
0040
0040
00C0
0180
3F00
00C0
0060
0060
0060
8040
E1C0
3F00
0400
0400
0400
ENDCHAR
STARTCHAR 0499
ENCODING 1177
SWIDTH 528 0
DWIDTH 11 0
BBX 9 14 1 -3
BITMAP
7E00
C300
0180
0100
0300
1E00
0100
0180
0180
C300
7E00
1800
1800
1800
ENDCHAR
STARTCHAR 049A
ENCODING 1178
SWIDTH 768 0
DWIDTH 16 0
BBX 13 18 2 -3
BITMAP
C030
C060
C0C0
C080
C180
C300
C600
FE00
C200
C300
C180
C0C0
C040
C060
C038
0008
0008
0008
ENDCHAR
STARTCHAR 049B
ENCODING 1179
SWIDTH 576 0
DWIDTH 12 0
BBX 11 14 2 -3
BITMAP
C080
C100
C200
C600
CC00
F800
CC00
C600
C300
C180
C0E0
0020
0020
0020
ENDCHAR
STARTCHAR 049C
ENCODING 1180
SWIDTH 720 0
DWIDTH 15 0
BBX 12 15 2 0
BITMAP
C030
C020
C060
C0C0
C880
C980
CB00
FE00
CB00
C980
C880
C0C0
C060
C030
C010
ENDCHAR
STARTCHAR 049D
ENCODING 1181
SWIDTH 576 0
DWIDTH 12 0
BBX 10 11 2 0
BITMAP
C080
C180
C300
D200
D600
FC00
D600
D300
C100
C180
C0C0
ENDCHAR
STARTCHAR 049E
ENCODING 1182
SWIDTH 720 0
DWIDTH 15 0
BBX 13 15 1 0
BITMAP
2018
2010
FE20
2060
20C0
2080
2100
3F00
2180
20C0
2040
2060
2030
2018
2008
ENDCHAR
STARTCHAR 049F
ENCODING 1183
SWIDTH 576 0
DWIDTH 12 0
BBX 11 16 0 0
BITMAP
3000
3000
FE00
3000
3000
3020
3040
30C0
3180
3300
3E00
3300
3180
30C0
3060
3020
ENDCHAR
STARTCHAR 04A0
ENCODING 1184
SWIDTH 816 0
DWIDTH 17 0
BBX 16 15 0 0
BITMAP
FC03
0406
0404
040C
0418
0430
0420
07E0
0430
0410
0418
040C
0406
0402
0403
ENDCHAR
STARTCHAR 04A1
ENCODING 1185
SWIDTH 624 0
DWIDTH 13 0
BBX 13 11 0 0
BITMAP
F810
1830
1860
18C0
1880
1F80
18C0
1840
1860
1830
1818
ENDCHAR
STARTCHAR 04A2
ENCODING 1186
SWIDTH 864 0
DWIDTH 18 0
BBX 15 18 2 -3
BITMAP
C018
C018
C018
C018
C018
C018
C018
FFF8
C018
C018
C018
C018
C018
C018
C01E
0002
0002
0002
ENDCHAR
STARTCHAR 04A3
ENCODING 1187
SWIDTH 672 0
DWIDTH 14 0
BBX 12 14 2 -3
BITMAP
C0C0
C0C0
C0C0
C0C0
C0C0
FFC0
C0C0
C0C0
C0C0
C0C0
C0F0
0030
0030
0030
ENDCHAR
STARTCHAR 04A4
ENCODING 1188
SWIDTH 1104 0
DWIDTH 23 0
BBX 20 15 2 0
BITMAP
C01FF0
C01800
C01800
C01800
C01800
C01800
C01800
FFF800
C01800
C01800
C01800
C01800
C01800
C01800
C01800
ENDCHAR
STARTCHAR 04A5
ENCODING 1189
SWIDTH 864 0
DWIDTH 18 0
BBX 16 11 2 0
BITMAP
C0FF
C0C0
C0C0
C0C0
C0C0
FFC0
C0C0
C0C0
C0C0
C0C0
C0C0
ENDCHAR
STARTCHAR 04A6
ENCODING 1190
SWIDTH 1200 0
DWIDTH 25 0
BBX 22 18 2 -3
BITMAP
FFF800
C01800
C01800
C01800
C01800
C01800
C01800
C01FF0
C01C18
C0180C
C0180C
C01804
C01804
C0180C
C0180C
000018
000030
0001E0
ENDCHAR
STARTCHAR 04A7
ENCODING 1191
SWIDTH 960 0
DWIDTH 20 0
BBX 18 15 2 -4
BITMAP
FFC000
C0C000
C0C000
C0C000
C0C000
C0FE00
C0E380
C0C180
C0C0C0
C0C0C0
C0C0C0
0000C0
000180
000300
001E00
ENDCHAR
STARTCHAR 04A8
ENCODING 1192
SWIDTH 960 0
DWIDTH 20 0
BBX 18 15 1 0
BITMAP
183C00
30E700
218180
610180
410080
C30080
C30080
C30080
C30080
410180
618100
60C300
306600
1C3800
07EFC0
ENDCHAR
STARTCHAR 04A9
ENCODING 1193
SWIDTH 816 0
DWIDTH 17 0
BBX 14 11 1 0
BITMAP
31F0
6318
460C
C60C
C404
C40C
C60C
4208
6310
31E0
0FFC
ENDCHAR
STARTCHAR 04AA
ENCODING 1194
SWIDTH 720 0
DWIDTH 15 0
BBX 13 18 1 -3
BITMAP
07E0
1E78
3008
6000
4000
C000
C000
C000
C000
C000
4000
6000
3018
1E70
07E0
0100
0100
0100
ENDCHAR
STARTCHAR 04AB
ENCODING 1195
SWIDTH 576 0
DWIDTH 12 0
BBX 9 14 1 -3
BITMAP
1F00
3180
6000
C000
C000
C000
C000
C000
6000
3180
1F00
0400
0400
0400
ENDCHAR
STARTCHAR 04AC
ENCODING 1196
SWIDTH 576 0
DWIDTH 12 0
BBX 12 18 0 -3
BITMAP
FFF0
0600
0600
0600
0600
0600
0600
0600
0600
0600
0600
0600
0600
0600
0780
0080
0080
0080
ENDCHAR
STARTCHAR 04AD
ENCODING 1197
SWIDTH 480 0
DWIDTH 10 0
BBX 10 14 0 -3
BITMAP
FFC0
0C00
0C00
0C00
0C00
0C00
0C00
0C00
0C00
0C00
0E00
0200
0200
0200
ENDCHAR
STARTCHAR 04AE
ENCODING 1198
SWIDTH 672 0
DWIDTH 14 0
BBX 13 15 0 0
BITMAP
C008
6010
2030
3020
1060
1840
0CC0
0580
0700
0300
0300
0300
0300
0300
0300
ENDCHAR
STARTCHAR 04AF
ENCODING 1199
SWIDTH 576 0
DWIDTH 12 0
BBX 11 15 0 -4
BITMAP
C020
4060
6040
20C0
3080
1080
1980
0900
0B00
0E00
0600
0600
0600
0600
0600
ENDCHAR
STARTCHAR 04B0
ENCODING 1200
SWIDTH 672 0
DWIDTH 14 0
BBX 13 15 0 0
BITMAP
C008
6010
2030
3020
1860
0840
0C80
0580
0700
3FE0
0300
0300
0300
0300
0300
ENDCHAR
STARTCHAR 04B1
ENCODING 1201
SWIDTH 576 0
DWIDTH 12 0
BBX 11 15 0 -4
BITMAP
C020
4060
6040
20C0
3080
1180
1900
0900
0F00
0600
3FC0
0600
0600
0600
0600
ENDCHAR
STARTCHAR 04B2
ENCODING 1202
SWIDTH 672 0
DWIDTH 14 0
BBX 13 18 1 -3
BITMAP
C020
6060
20C0
3180
1980
0B00
0E00
0600
0F00
1B00
1180
30C0
6040
C060
C038
0008
0008
0008
ENDCHAR
STARTCHAR 04B3
ENCODING 1203
SWIDTH 528 0
DWIDTH 11 0
BBX 11 14 1 -3
BITMAP
C180
4100
6200
3600
1C00
0800
1400
3600
6300
C100
80E0
0060
0060
0060
ENDCHAR
STARTCHAR 04B4
ENCODING 1204
SWIDTH 960 0
DWIDTH 20 0
BBX 20 18 0 -3
BITMAP
FFF080
060080
060080
060080
060080
060080
060080
060080
060080
060080
060080
060080
060080
060080
07FFF0
000030
000030
000030
ENDCHAR
STARTCHAR 04B5
ENCODING 1205
SWIDTH 768 0
DWIDTH 16 0
BBX 15 13 0 -2
BITMAP
FF88
0C08
0C08
0C08
0C08
0C08
0C08
0C08
0C08
0C08
0FFE
0002
0002
ENDCHAR
STARTCHAR 04B6
ENCODING 1206
SWIDTH 768 0
DWIDTH 16 0
BBX 14 18 1 -3
BITMAP
C030
C030
C030
C030
C030
C030
C030
6030
71F0
1FB0
0030
0030
0030
0030
003C
0004
0004
0004
ENDCHAR
STARTCHAR 04B7
ENCODING 1207
SWIDTH 624 0
DWIDTH 13 0
BBX 11 14 1 -3
BITMAP
8080
8080
8080
8080
C080
C180
7F80
0080
0080
0080
00E0
0020
0020
0020
ENDCHAR
STARTCHAR 04B8
ENCODING 1208
SWIDTH 720 0
DWIDTH 15 0
BBX 12 15 1 0
BITMAP
C030
C030
C030
C030
C030
C430
C430
6430
75F0
1FB0
0430
0430
0430
0030
0030
ENDCHAR
STARTCHAR 04B9
ENCODING 1209
SWIDTH 576 0
DWIDTH 12 0
BBX 9 11 1 0
BITMAP
8080
8080
8080
8080
C880
C980
7F80
0880
0880
0080
0080
ENDCHAR
STARTCHAR 04BA
ENCODING 1210
SWIDTH 720 0
DWIDTH 15 0
BBX 12 15 2 0
BITMAP
C000
C000
C000
C000
C000
DF80
F8E0
C020
C030
C030
C030
C030
C030
C030
C030
ENDCHAR
STARTCHAR 04BB
ENCODING 1211
SWIDTH 672 0
DWIDTH 14 0
BBX 10 16 2 0
BITMAP
C000
C000
C000
C000
C000
DF00
F180
C0C0
C040
C040
C040
C040
C040
C040
C040
C040
ENDCHAR
STARTCHAR 04BC
ENCODING 1212
SWIDTH 960 0
DWIDTH 20 0
BBX 18 15 1 0
BITMAP
00FC00
01CF00
070380
C60180
8C00C0
880040
C80040
7FFFC0
080000
080000
0C0000
040000
070180
03CF00
00FC00
ENDCHAR
STARTCHAR 04BD
ENCODING 1213
SWIDTH 768 0
DWIDTH 16 0
BBX 15 11 0 0
BITMAP
01F0
0718
4C0C
CC04
4806
7FFE
0800
0C00
0400
071C
01F0
ENDCHAR
STARTCHAR 04BE
ENCODING 1214
SWIDTH 960 0
DWIDTH 20 0
BBX 18 18 1 -3
BITMAP
00FC00
01CF00
070380
C60180
8C00C0
880040
C80040
7FFFC0
080000
080000
0C0000
040000
070180
03C700
00FC00
003000
003000
003000
ENDCHAR
STARTCHAR 04BF
ENCODING 1215
SWIDTH 768 0
DWIDTH 16 0
BBX 15 14 0 -3
BITMAP
01F0
0718
4C0C
CC04
4806
7FFE
0800
0C00
0400
071C
01F0
0040
0040
0040
ENDCHAR
STARTCHAR 04C0
ENCODING 1216
SWIDTH 288 0
DWIDTH 6 0
BBX 2 15 2 0
BITMAP
C0
C0
C0
C0
C0
C0
C0
C0
C0
C0
C0
C0
C0
C0
C0
ENDCHAR
STARTCHAR 04C1
ENCODING 1217
SWIDTH 1008 0
DWIDTH 21 0
BBX 19 19 1 0
BITMAP
020800
031800
00F000
000000
C04060
404040
6040C0
304180
104100
184300
0C4600
0FFE00
084200
184300
304180
304080
6040C0
C04060
C04060
ENDCHAR
STARTCHAR 04C2
ENCODING 1218
SWIDTH 816 0
DWIDTH 17 0
BBX 16 16 1 0
BITMAP
0C20
0440
03C0
0000
0000
C102
4104
610C
3108
1110
1FF0
3118
2108
610C
C106
8103
ENDCHAR
STARTCHAR 04C3
ENCODING 1219
SWIDTH 720 0
DWIDTH 15 0
BBX 12 19 2 -4
BITMAP
C020
C060
C0C0
C080
C180
C300
C600
FE00
C300
C180
C0C0
C0C0
C060
C020
C030
0030
0030
0170
01E0
ENDCHAR
STARTCHAR 04C4
ENCODING 1220
SWIDTH 576 0
DWIDTH 12 0
BBX 10 15 2 -4
BITMAP
C080
C100
C200
C600
CC00
FC00
C600
C300
C100
C180
C080
00C0
0080
0980
0F00
ENDCHAR
STARTCHAR 04C6
ENCODING 1222
SWIDTH 672 0
DWIDTH 14 0
BBX 13 13 0 -2
BITMAP
1FE0
1020
1020
1020
1020
1020
1020
3020
3020
6020
E038
0010
0010
ENDCHAR
STARTCHAR 04C7
ENCODING 1223
SWIDTH 816 0
DWIDTH 17 0
BBX 13 19 2 -4
BITMAP
C018
C018
C018
C018
C018
C018
C018
FFF8
C018
C018
C018
C018
C018
C018
C018
0018
0018
0130
01E0
ENDCHAR
STARTCHAR 04C8
ENCODING 1224
SWIDTH 672 0
DWIDTH 14 0
BBX 10 15 2 -4
BITMAP
C040
C040
C040
C040
C040
FFC0
C040
C040
C040
C040
C040
0040
0040
04C0
0780
ENDCHAR
STARTCHAR 04C9
ENCODING 1225
SWIDTH 864 0
DWIDTH 18 0
BBX 14 18 2 -3
BITMAP
C018
C018
C018
C018
C018
C018
C018
FFF8
C018
C018
C018
C018
C018
C018
C01C
0004
0004
000C
ENDCHAR
STARTCHAR 04CA
ENCODING 1226
SWIDTH 672 0
DWIDTH 14 0
BBX 11 13 2 -2
BITMAP
C0C0
C0C0
C0C0
C0C0
C0C0
FFC0
C0C0
C0C0
C0C0
C0C0
C0E0
0020
0020
ENDCHAR
STARTCHAR 04CB
ENCODING 1227
SWIDTH 720 0
DWIDTH 15 0
BBX 12 18 1 -3
BITMAP
C030
C030
C030
C030
C030
C030
C030
6070
3FF0
0030
0030
0030
0030
0030
00F0
0080
0080
0080
ENDCHAR
STARTCHAR 04CC
ENCODING 1228
SWIDTH 576 0
DWIDTH 12 0
BBX 9 13 1 -2
BITMAP
8080
8080
8080
8080
C080
E380
3E80
0080
0080
0080
0380
0200
0200
ENDCHAR
STARTCHAR 04CD
ENCODING 1229
SWIDTH 1008 0
DWIDTH 21 0
BBX 18 18 2 -3
BITMAP
C00300
E00700
E00700
F00F00
D00B00
D81B00
C81300
CC3300
C62300
C24300
C3C300
C18300
C18300
C00300
C003C0
000080
000080
000180
ENDCHAR
STARTCHAR 04CE
ENCODING 1230
SWIDTH 816 0
DWIDTH 17 0
BBX 14 13 2 -2
BITMAP
C010
C030
A070
B050
90D0
9890
8910
8710
8610
8210
801C
000C
0008
ENDCHAR
STARTCHAR 04CF
ENCODING 1231
SWIDTH 288 0
DWIDTH 6 0
BBX 2 16 2 0
BITMAP
C0
C0
C0
C0
C0
C0
C0
C0
C0
C0
C0
C0
C0
C0
C0
C0
ENDCHAR
STARTCHAR 04D0
ENCODING 1232
SWIDTH 768 0
DWIDTH 16 0
BBX 14 19 1 0
BITMAP
1840
08C0
0780
0000
0300
0700
0580
0C80
0880
08C0
1840
1060
3020
2030
7FF0
4018
C018
C008
800C
ENDCHAR
STARTCHAR 04D1
ENCODING 1233
SWIDTH 576 0
DWIDTH 12 0
BBX 9 15 1 0
BITMAP
2100
2300
1E00
0000
3E00
E380
0180
0080
0080
3F80
C080
C080
C180
6380
3C80
ENDCHAR
STARTCHAR 04D2
ENCODING 1234
SWIDTH 768 0
DWIDTH 16 0
BBX 14 19 1 0
BITMAP
0C80
0C80
0000
0000
0300
0700
0580
0C80
0880
08C0
1840
1060
3020
2030
7FF0
4018
C018
C008
800C
ENDCHAR
STARTCHAR 04D3
ENCODING 1235
SWIDTH 576 0
DWIDTH 12 0
BBX 9 15 1 0
BITMAP
3200
3300
0000
0000
3E00
E380
0180
0080
0080
3F80
C080
C080
C180
6380
3C80
ENDCHAR
STARTCHAR 04D4
ENCODING 1236
SWIDTH 1008 0
DWIDTH 21 0
BBX 20 15 0 0
BITMAP
007FF0
00F000
00B000
01B000
033000
023000
063000
043FE0
0C3000
183000
1FF000
303000
203000
603000
C03FF0
ENDCHAR
STARTCHAR 04D5
ENCODING 1237
SWIDTH 1008 0
DWIDTH 21 0
BBX 19 11 1 0
BITMAP
3E1F00
E37180
01C0C0
00C040
008040
3FFFE0
C08000
C0C000
C1C000
6371C0
3E1F00
ENDCHAR
STARTCHAR 04D6
ENCODING 1238
SWIDTH 672 0
DWIDTH 14 0
BBX 11 19 2 0
BITMAP
2080
3180
1E00
0000
FFC0
C000
C000
C000
C000
C000
C000
FFC0
C000
C000
C000
C000
C000
C000
FFE0
ENDCHAR
STARTCHAR 04D7
ENCODING 1239
SWIDTH 624 0
DWIDTH 13 0
BBX 11 15 1 0
BITMAP
2100
1100
0E00
0000
1F00
3180
60C0
C040
C060
FFE0
C000
C000
6000
31C0
1F00
ENDCHAR
STARTCHAR 04D8
ENCODING 1240
SWIDTH 816 0
DWIDTH 17 0
BBX 15 15 1 0
BITMAP
0FC0
3C70
2018
000C
0004
0006
0006
FFFE
8006
C006
C004
600C
3018
1C70
07C0
ENDCHAR
STARTCHAR 04D9
ENCODING 1241
SWIDTH 624 0
DWIDTH 13 0
BBX 11 11 1 0
BITMAP
1F00
7380
40C0
0040
0060
FFE0
C060
C040
60C0
3180
1F00
ENDCHAR
STARTCHAR 04DA
ENCODING 1242
SWIDTH 816 0
DWIDTH 17 0
BBX 15 18 1 0
BITMAP
0640
0440
0000
0FC0
3C70
2018
000C
0004
0006
0006
FFFE
8006
C006
C004
600C
3018
1C70
07C0
ENDCHAR
STARTCHAR 04DB
ENCODING 1243
SWIDTH 624 0
DWIDTH 13 0
BBX 11 15 1 0
BITMAP
1100
1300
0000
0000
1F00
7380
40C0
0040
0060
FFE0
C060
C040
60C0
3180
1F00
ENDCHAR
STARTCHAR 04DC
ENCODING 1244
SWIDTH 1008 0
DWIDTH 21 0
BBX 19 19 1 0
BITMAP
011000
019000
000000
000000
C04060
404040
6040C0
304180
104100
184300
0C4600
0FFE00
084200
184300
304180
304080
6040C0
C04060
C04060
ENDCHAR
STARTCHAR 04DD
ENCODING 1245
SWIDTH 816 0
DWIDTH 17 0
BBX 16 15 1 0
BITMAP
0640
0440
0000
0000
C102
4104
610C
3108
1110
1FF0
3118
2108
610C
C106
8103
ENDCHAR
STARTCHAR 04DE
ENCODING 1246
SWIDTH 624 0
DWIDTH 13 0
BBX 11 18 1 0
BITMAP
1900
1100
0000
3F00
E380
00C0
0040
0040
00C0
0180
3F00
00C0
0060
0060
0060
8040
E1C0
3F00
ENDCHAR
STARTCHAR 04DF
ENCODING 1247
SWIDTH 528 0
DWIDTH 11 0
BBX 9 15 1 0
BITMAP
2200
2600
0000
0000
7E00
C300
0180
0100
0300
1E00
0100
0180
0180
C300
7E00
ENDCHAR
STARTCHAR 04E0
ENCODING 1248
SWIDTH 624 0
DWIDTH 13 0
BBX 11 15 1 0
BITMAP
FFC0
00C0
0180
0300
0200
0600
0C00
0F80
00C0
0040
0060
0060
8040
E1C0
3F00
ENDCHAR
STARTCHAR 04E1
ENCODING 1249
SWIDTH 528 0
DWIDTH 11 0
BBX 10 15 0 -4
BITMAP
FF80
0180
0100
0200
0400
0C00
1F00
0380
00C0
00C0
00C0
00C0
80C0
E380
3E00
ENDCHAR
STARTCHAR 04E2
ENCODING 1250
SWIDTH 816 0
DWIDTH 17 0
BBX 13 18 2 0
BITMAP
1FC0
0000
0000
C018
C038
C078
C078
C0D8
C198
C318
C218
C618
CC18
D818
D018
F018
E018
C018
ENDCHAR
STARTCHAR 04E3
ENCODING 1251
SWIDTH 672 0
DWIDTH 14 0
BBX 10 14 2 0
BITMAP
3F00
0000
0000
C0C0
C0C0
C1C0
C340
C640
CC40
D840
D040
F040
E040
C040
ENDCHAR
STARTCHAR 04E4
ENCODING 1252
SWIDTH 816 0
DWIDTH 17 0
BBX 13 19 2 0
BITMAP
0880
0880
0000
0000
C018
C038
C078
C078
C0D8
C198
C318
C218
C618
CC18
D818
D018
F018
E018
C018
ENDCHAR
STARTCHAR 04E5
ENCODING 1253
SWIDTH 672 0
DWIDTH 14 0
BBX 10 15 2 0
BITMAP
3300
1300
0000
0000
C0C0
C0C0
C1C0
C340
C640
CC40
D840
D040
F040
E040
C040
ENDCHAR
STARTCHAR 04E6
ENCODING 1254
SWIDTH 864 0
DWIDTH 18 0
BBX 15 18 1 0
BITMAP
0660
0640
0000
07E0
1E78
301C
6004
4006
C002
C002
C002
C002
C002
4006
6004
300C
1C78
07E0
ENDCHAR
STARTCHAR 04E7
ENCODING 1255
SWIDTH 624 0
DWIDTH 13 0
BBX 11 15 1 0
BITMAP
1100
1900
0000
0000
1F00
31C0
6040
C060
C020
C020
C020
C060
6040
31C0
1F00
ENDCHAR
STARTCHAR 04E8
ENCODING 1256
SWIDTH 864 0
DWIDTH 18 0
BBX 16 15 1 0
BITMAP
07E0
1E78
300C
6004
4006
C002
C002
FFFF
C002
C002
4006
6004
301C
1C78
07E0
ENDCHAR
STARTCHAR 04E9
ENCODING 1257
SWIDTH 624 0
DWIDTH 13 0
BBX 11 11 1 0
BITMAP
1F00
31C0
6060
C020
C020
FFE0
C020
C020
6060
31C0
1F00
ENDCHAR
STARTCHAR 04EA
ENCODING 1258
SWIDTH 864 0
DWIDTH 18 0
BBX 16 18 1 0
BITMAP
0660
0640
0000
07E0
1E78
300C
6004
4006
C002
C002
FFFF
C002
C002
4006
6004
301C
1C78
07E0
ENDCHAR
STARTCHAR 04EB
ENCODING 1259
SWIDTH 624 0
DWIDTH 13 0
BBX 11 15 1 0
BITMAP
1900
1900
0000
0000
1F00
31C0
6060
C020
C020
FFE0
C020
C020
6060
31C0
1F00
ENDCHAR
STARTCHAR 04EC
ENCODING 1260
SWIDTH 720 0
DWIDTH 15 0
BBX 12 18 1 0
BITMAP
1900
1100
0000
3F00
F3C0
8060
0020
0030
0010
0010
1FF0
0010
0010
0030
0020
8060
F3C0
3F00
ENDCHAR
STARTCHAR 04ED
ENCODING 1261
SWIDTH 576 0
DWIDTH 12 0
BBX 10 15 1 0
BITMAP
2200
2600
0000
0000
7E00
C300
8180
00C0
00C0
1FC0
00C0
00C0
0180
C300
7E00
ENDCHAR
STARTCHAR 04EE
ENCODING 1262
SWIDTH 672 0
DWIDTH 14 0
BBX 13 18 1 0
BITMAP
1F80
0000
0000
8018
C010
4030
6020
2060
30C0
1080
1980
0900
0F00
0600
0600
0400
5C00
7000
ENDCHAR
STARTCHAR 04EF
ENCODING 1263
SWIDTH 576 0
DWIDTH 12 0
BBX 11 18 0 -4
BITMAP
3F80
0000
0000
C020
4060
6040
20C0
3080
1080
1900
0900
0B00
0E00
0600
0400
0C00
9800
F000
ENDCHAR
STARTCHAR 04F0
ENCODING 1264
SWIDTH 672 0
DWIDTH 14 0
BBX 13 19 1 0
BITMAP
1900
1980
0000
0000
8018
C010
4030
6020
2060
30C0
1080
1980
0900
0F00
0600
0600
0400
5C00
7000
ENDCHAR
STARTCHAR 04F1
ENCODING 1265
SWIDTH 576 0
DWIDTH 12 0
BBX 11 19 0 -4
BITMAP
1100
1100
0000
0000
C020
4060
6040
20C0
3080
1080
1900
0900
0B00
0E00
0600
0400
0C00
9800
F000
ENDCHAR
STARTCHAR 04F2
ENCODING 1266
SWIDTH 672 0
DWIDTH 14 0
BBX 13 19 1 0
BITMAP
0260
04C0
0980
0000
8018
C010
4030
6020
2060
30C0
1080
1980
0900
0F00
0600
0600
0400
5C00
7000
ENDCHAR
STARTCHAR 04F3
ENCODING 1267
SWIDTH 576 0
DWIDTH 12 0
BBX 11 19 0 -4
BITMAP
04C0
0980
1900
0000
C020
4060
6040
20C0
3080
1080
1900
0900
0B00
0E00
0600
0400
0C00
9800
F000
ENDCHAR
STARTCHAR 04F4
ENCODING 1268
SWIDTH 720 0
DWIDTH 15 0
BBX 12 19 1 0
BITMAP
0980
1980
0000
0000
C030
C030
C030
C030
C030
C030
C030
6030
71F0
1FB0
0030
0030
0030
0030
0030
ENDCHAR
STARTCHAR 04F5
ENCODING 1269
SWIDTH 576 0
DWIDTH 12 0
BBX 9 15 1 0
BITMAP
3200
2200
0000
0000
8080
8080
8080
8080
C080
C180
7F80
0080
0080
0080
0080
ENDCHAR
STARTCHAR 04F6
ENCODING 1270
SWIDTH 576 0
DWIDTH 12 0
BBX 10 18 2 -3
BITMAP
FFC0
C000
C000
C000
C000
C000
C000
C000
C000
C000
C000
C000
C000
C000
F000
1000
1000
1000
ENDCHAR
STARTCHAR 04F7
ENCODING 1271
SWIDTH 480 0
DWIDTH 10 0
BBX 8 14 2 -3
BITMAP
FF
C0
C0
C0
C0
C0
C0
C0
C0
C0
E0
20
20
20
ENDCHAR
STARTCHAR 04F8
ENCODING 1272
SWIDTH 960 0
DWIDTH 20 0
BBX 16 19 2 0
BITMAP
0260
0260
0000
0000
C003
C003
C003
C003
C003
C003
FFC3
C063
C033
C033
C033
C033
C023
C0E3
FF83
ENDCHAR
STARTCHAR 04F9
ENCODING 1273
SWIDTH 768 0
DWIDTH 16 0
BBX 12 15 2 0
BITMAP
0880
0880
0000
0000
C010
C010
C010
C010
FE10
C310
C190
C190
C190
C310
FE10
ENDCHAR
STARTCHAR 04FA
ENCODING 1274
SWIDTH 624 0
DWIDTH 13 0
BBX 11 19 1 -4
BITMAP
3FE0
2000
2000
2000
2000
2000
2000
2000
FFC0
2000
2000
2000
2000
2000
3C00
0C00
0C00
1800
F000
ENDCHAR
STARTCHAR 04FB
ENCODING 1275
SWIDTH 480 0
DWIDTH 10 0
BBX 8 15 1 -4
BITMAP
3F
20
20
20
20
FF
20
20
20
20
38
18
18
30
E0
ENDCHAR
STARTCHAR 04FC
ENCODING 1276
SWIDTH 672 0
DWIDTH 14 0
BBX 12 19 1 -4
BITMAP
C020
6060
20C0
3080
1980
0B00
0E00
0600
0F00
1900
1180
30C0
6060
C060
C030
0030
0030
0070
01E0
ENDCHAR
STARTCHAR 04FD
ENCODING 1277
SWIDTH 528 0
DWIDTH 11 0
BBX 10 15 1 -4
BITMAP
C180
4100
6200
3600
1C00
0C00
1400
3600
6300
C180
8080
00C0
00C0
0180
0F00
ENDCHAR
STARTCHAR 04FE
ENCODING 1278
SWIDTH 672 0
DWIDTH 14 0
BBX 12 15 1 0
BITMAP
C030
6060
30C0
30C0
1980
0F00
0E00
7FE0
0F00
0900
1980
30C0
6060
6060
C030
ENDCHAR
STARTCHAR 04FF
ENCODING 1279
SWIDTH 576 0
DWIDTH 12 0
BBX 10 11 1 0
BITMAP
C080
6180
2300
3600
1C00
7F80
1E00
3200
2300
4180
C0C0
ENDCHAR
STARTCHAR 0510
ENCODING 1296
SWIDTH 624 0
DWIDTH 13 0
BBX 11 15 1 0
BITMAP
0F80
38E0
6020
6000
6000
6000
3000
1F80
6000
4000
C000
C000
6020
38E0
1F80
ENDCHAR
STARTCHAR 0511
ENCODING 1297
SWIDTH 528 0
DWIDTH 11 0
BBX 9 11 1 0
BITMAP
3F00
7180
4000
4000
6000
3E00
6000
C000
C000
6180
3F00
ENDCHAR
STARTCHAR 0512
ENCODING 1298
SWIDTH 768 0
DWIDTH 16 0
BBX 14 19 0 -4
BITMAP
0FFC
080C
080C
080C
080C
080C
080C
080C
080C
080C
180C
180C
100C
300C
E00C
000C
000C
001C
0078
ENDCHAR
STARTCHAR 0513
ENCODING 1299
SWIDTH 624 0
DWIDTH 13 0
BBX 11 15 0 -4
BITMAP
1FE0
1020
1020
1020
1020
1020
1020
3020
3020
6020
E020
0020
0060
0260
03C0
ENDCHAR
STARTCHAR 051A
ENCODING 1306
SWIDTH 864 0
DWIDTH 18 0
BBX 16 18 1 -3
BITMAP
07E0
1E78
301C
6004
4006
C002
C002
C002
C002
C002
4006
6004
300C
1C38
07E0
00C1
0063
003E
ENDCHAR
STARTCHAR 051B
ENCODING 1307
SWIDTH 672 0
DWIDTH 14 0
BBX 11 15 1 -4
BITMAP
1F20
31A0
6060
C060
C020
C020
C020
C060
6060
31A0
1F20
0020
0020
0020
0020
ENDCHAR
STARTCHAR 051C
ENCODING 1308
SWIDTH 1056 0
DWIDTH 22 0
BBX 21 15 1 0
BITMAP
806018
C06010
C07030
40D030
609020
609820
218860
310840
310C40
1304C0
1A0480
1A0680
0E0380
0C0300
0C0300
ENDCHAR
STARTCHAR 051D
ENCODING 1309
SWIDTH 912 0
DWIDTH 19 0
BBX 19 11 0 0
BITMAP
C06060
40E040
60A040
20B0C0
319080
311980
131900
1A0900
0A0F00
0E0600
0C0600
ENDCHAR
STARTCHAR 0524
ENCODING 1316
SWIDTH 864 0
DWIDTH 18 0
BBX 15 18 2 -3
BITMAP
FFF8
C018
C018
C018
C018
C018
C018
C018
C018
C018
C018
C018
C018
C018
C01E
0002
0002
0002
ENDCHAR
STARTCHAR 0525
ENCODING 1317
SWIDTH 672 0
DWIDTH 14 0
BBX 12 14 2 -3
BITMAP
FFC0
C0C0
C0C0
C0C0
C0C0
C0C0
C0C0
C0C0
C0C0
C0C0
C0F0
0030
0030
0030
ENDCHAR
STARTCHAR 0526
ENCODING 1318
SWIDTH 816 0
DWIDTH 17 0
BBX 14 18 2 -3
BITMAP
C000
C000
C000
C000
C000
DF80
F8E0
C020
C030
C030
C030
C030
C030
C030
C03C
0004
0004
0004
ENDCHAR
STARTCHAR 0527
ENCODING 1319
SWIDTH 672 0
DWIDTH 14 0
BBX 12 19 2 -3
BITMAP
C000
C000
C000
C000
C000
DF00
F380
E0C0
C040
C040
C040
C040
C040
C040
C040
C070
0030
0030
0030
ENDCHAR
STARTCHAR 0528
ENCODING 1320
SWIDTH 816 0
DWIDTH 17 0
BBX 16 19 -1 -4
BITMAP
1803
1803
1803
1803
1803
1803
1803
1FFF
1803
1803
1803
1803
1803
1803
1803
1800
1800
9800
F000
ENDCHAR
STARTCHAR 0529
ENCODING 1321
SWIDTH 672 0
DWIDTH 14 0
BBX 14 15 -2 -4
BITMAP
0C0C
0C0C
0C0C
0C0C
0C0C
0FFC
0C0C
0C0C
0C0C
0C0C
0C0C
0C00
0C00
9800
F000
ENDCHAR
STARTCHAR 052E
ENCODING 1326
SWIDTH 816 0
DWIDTH 17 0
BBX 16 18 0 -3
BITMAP
0FFC
080C
080C
080C
080C
080C
080C
080C
080C
080C
180C
180C
100C
300C
E00F
0001
0001
0001
ENDCHAR
STARTCHAR 052F
ENCODING 1327
SWIDTH 672 0
DWIDTH 14 0
BBX 13 13 0 -2
BITMAP
1FE0
1020
1020
1020
1020
1020
1020
3020
3020
6020
E038
0018
0018
ENDCHAR
STARTCHAR 1E08
ENCODING 7688
SWIDTH 720 0
DWIDTH 15 0
BBX 13 24 1 -5
BITMAP
0060
00C0
0100
0000
07E0
1C70
3018
6000
4000
C000
C000
C000
C000
C000
4000
6000
3018
1C70
07E0
0100
0180
0080
0080
0300
ENDCHAR
STARTCHAR 1E09
ENCODING 7689
SWIDTH 576 0
DWIDTH 12 0
BBX 9 20 1 -5
BITMAP
0300
0600
0800
0000
1F00
3180
6080
C000
C000
8000
C000
C000
6080
3180
1F00
0800
0E00
0200
0200
1C00
ENDCHAR
STARTCHAR 1E0C
ENCODING 7692
SWIDTH 816 0
DWIDTH 17 0
BBX 14 19 2 -4
BITMAP
FF80
C0E0
C030
C018
C00C
C00C
C004
C004
C004
C00C
C00C
C018
C030
C0E0
FF80
0000
0000
0600
0600
ENDCHAR
STARTCHAR 1E0D
ENCODING 7693
SWIDTH 672 0
DWIDTH 14 0
BBX 11 20 1 -4
BITMAP
0020
0020
0020
0020
0020
1F20
31A0
60E0
C060
C060
8020
C060
C060
60E0
31A0
1F20
0000
0000
0600
0600
ENDCHAR
STARTCHAR 1E0E
ENCODING 7694
SWIDTH 816 0
DWIDTH 17 0
BBX 14 19 2 -4
BITMAP
FF80
C0E0
C030
C018
C00C
C00C
C004
C004
C004
C00C
C00C
C018
C030
C0E0
FF80
0000
0000
0000
1F80
ENDCHAR
STARTCHAR 1E0F
ENCODING 7695
SWIDTH 672 0
DWIDTH 14 0
BBX 11 19 1 -3
BITMAP
0020
0020
0020
0020
0020
1F20
31A0
60E0
C060
C060
8020
C060
C060
60E0
31A0
1F20
0000
0000
1F80
ENDCHAR
STARTCHAR 1E14
ENCODING 7700
SWIDTH 672 0
DWIDTH 14 0
BBX 11 21 2 0
BITMAP
1800
0400
0000
3F80
0000
0000
FFC0
C000
C000
C000
C000
C000
C000
FF80
C000
C000
C000
C000
C000
C000
FFE0
ENDCHAR
STARTCHAR 1E15
ENCODING 7701
SWIDTH 624 0
DWIDTH 13 0
BBX 11 17 1 0
BITMAP
1800
0400
0000
3F80
0000
0000
1F00
3180
40C0
C040
8060
FFE0
8000
C000
6000
31C0
1F00
ENDCHAR
STARTCHAR 1E16
ENCODING 7702
SWIDTH 672 0
DWIDTH 14 0
BBX 11 21 2 0
BITMAP
0300
0400
0000
3F80
0000
0000
FFC0
C000
C000
C000
C000
C000
C000
FF80
C000
C000
C000
C000
C000
C000
FFE0
ENDCHAR
STARTCHAR 1E17
ENCODING 7703
SWIDTH 624 0
DWIDTH 13 0
BBX 11 17 1 0
BITMAP
0300
0400
0000
3F80
0000
0000
1F00
3180
40C0
C040
8060
FFE0
8000
C000
6000
31C0
1F00
ENDCHAR
STARTCHAR 1E1C
ENCODING 7708
SWIDTH 672 0
DWIDTH 14 0
BBX 11 24 2 -5
BITMAP
2180
1100
0E00
0000
FFC0
C000
C000
C000
C000
C000
C000
FF80
C000
C000
C000
C000
C000
C000
FFE0
0400
0600
0300
0200
0E00
ENDCHAR
STARTCHAR 1E1D
ENCODING 7709
SWIDTH 624 0
DWIDTH 13 0
BBX 11 20 1 -5
BITMAP
2100
3100
0E00
0000
1F00
3180
40C0
C040
8060
FFE0
8000
C000
6000
31C0
1F00
0400
0E00
0200
0200
0C00
ENDCHAR
STARTCHAR 1E20
ENCODING 7712
SWIDTH 768 0
DWIDTH 16 0
BBX 13 18 1 0
BITMAP
0FE0
0000
0000
07E0
1C78
3008
6000
4000
C000
C000
C008
C008
C008
4008
6008
3008
1C78
07E0
ENDCHAR
STARTCHAR 1E21
ENCODING 7713
SWIDTH 672 0
DWIDTH 14 0
BBX 11 18 1 -4
BITMAP
1F80
0000
0000
1F20
71A0
4060
C060
8020
8020
C020
4060
60E0
3F20
0020
0060
4060
71C0
1F80
ENDCHAR
STARTCHAR 1E24
ENCODING 7716
SWIDTH 816 0
DWIDTH 17 0
BBX 13 19 2 -4
BITMAP
C018
C018
C018
C018
C018
C018
C018
FFF8
C018
C018
C018
C018
C018
C018
C018
0000
0000
0200
0200
ENDCHAR
STARTCHAR 1E25
ENCODING 7717
SWIDTH 672 0
DWIDTH 14 0
BBX 10 20 2 -4
BITMAP
C000
C000
C000
C000
C000
DF00
F180
C0C0
C0C0
C040
C040
C040
C040
C040
C040
C040
0000
0000
0C00
0C00
ENDCHAR
STARTCHAR 1E2A
ENCODING 7722
SWIDTH 816 0
DWIDTH 17 0
BBX 13 19 2 -4
BITMAP
C018
C018
C018
C018
C018
C018
C018
FFF8
C018
C018
C018
C018
C018
C018
C018
0000
0000
0880
0F00
ENDCHAR
STARTCHAR 1E2B
ENCODING 7723
SWIDTH 672 0
DWIDTH 14 0
BBX 10 20 2 -4
BITMAP
C000
C000
C000
C000
C000
DF00
F180
C0C0
C0C0
C040
C040
C040
C040
C040
C040
C040
0000
0000
2100
1E00
ENDCHAR
STARTCHAR 1E2E
ENCODING 7726
SWIDTH 288 0
DWIDTH 6 0
BBX 5 21 1 0
BITMAP
18
60
00
98
98
00
60
60
60
60
60
60
60
60
60
60
60
60
60
60
60
ENDCHAR
STARTCHAR 1E2F
ENCODING 7727
SWIDTH 288 0
DWIDTH 6 0
BBX 5 18 0 0
BITMAP
18
30
00
C8
C8
00
00
30
30
30
30
30
30
30
30
30
30
30
ENDCHAR
STARTCHAR 1E36
ENCODING 7734
SWIDTH 576 0
DWIDTH 12 0
BBX 10 19 2 -4
BITMAP
C000
C000
C000
C000
C000
C000
C000
C000
C000
C000
C000
C000
C000
C000
FFC0
0000
0000
0400
0400
ENDCHAR
STARTCHAR 1E37
ENCODING 7735
SWIDTH 288 0
DWIDTH 6 0
BBX 2 20 2 -4
BITMAP
C0
C0
C0
C0
C0
C0
C0
C0
C0
C0
C0
C0
C0
C0
C0
C0
00
00
80
C0
ENDCHAR
STARTCHAR 1E3A
ENCODING 7738
SWIDTH 576 0
DWIDTH 12 0
BBX 10 19 2 -4
BITMAP
C000
C000
C000
C000
C000
C000
C000
C000
C000
C000
C000
C000
C000
C000
FFC0
0000
0000
0000
3F80
ENDCHAR
STARTCHAR 1E3B
ENCODING 7739
SWIDTH 288 0
DWIDTH 6 0
BBX 6 20 0 -4
BITMAP
30
30
30
30
30
30
30
30
30
30
30
30
30
30
30
30
00
00
00
FC
ENDCHAR
STARTCHAR 1E42
ENCODING 7746
SWIDTH 960 0
DWIDTH 20 0
BBX 16 19 2 -4
BITMAP
C003
C007
E007
F00F
D00B
D81B
C813
CC23
C463
C243
C3C3
C183
C183
C003
C003
0000
0000
0180
0180
ENDCHAR
STARTCHAR 1E43
ENCODING 7747
SWIDTH 1056 0
DWIDTH 22 0
BBX 18 15 2 -4
BITMAP
9F1F00
B3B180
C0E0C0
C0C0C0
C0C040
C0C040
C0C040
C0C040
C0C040
C0C040
C0C040
000000
000000
00C000
00C000
ENDCHAR
STARTCHAR 1E44
ENCODING 7748
SWIDTH 816 0
DWIDTH 17 0
BBX 13 19 2 0
BITMAP
0200
0200
0000
0000
C018
E018
F018
F018
D818
CC18
C618
C618
C318
C198
C0D8
C078
C078
C038
C018
ENDCHAR
STARTCHAR 1E45
ENCODING 7749
SWIDTH 672 0
DWIDTH 14 0
BBX 10 15 2 0
BITMAP
0C00
0C00
0000
0000
9F00
B180
C0C0
C0C0
C040
C040
C040
C040
C040
C040
C040
ENDCHAR
STARTCHAR 1E46
ENCODING 7750
SWIDTH 816 0
DWIDTH 17 0
BBX 13 19 2 -4
BITMAP
C018
E018
F018
F018
D818
CC18
C618
C618
C318
C198
C0D8
C078
C078
C038
C018
0000
0000
0200
0200
ENDCHAR
STARTCHAR 1E47
ENCODING 7751
SWIDTH 672 0
DWIDTH 14 0
BBX 10 15 2 -4
BITMAP
9F00
B180
C0C0
C0C0
C040
C040
C040
C040
C040
C040
C040
0000
0000
0C00
0C00
ENDCHAR
STARTCHAR 1E48
ENCODING 7752
SWIDTH 816 0
DWIDTH 17 0
BBX 13 19 2 -4
BITMAP
C018
E018
F018
F018
D818
CC18
C618
C618
C318
C198
C0D8
C078
C078
C038
C018
0000
0000
0000
1FC0
ENDCHAR
STARTCHAR 1E49
ENCODING 7753
SWIDTH 672 0
DWIDTH 14 0
BBX 10 15 2 -4
BITMAP
9F00
B180
C0C0
C0C0
C040
C040
C040
C040
C040
C040
C040
0000
0000
0000
3F00
ENDCHAR
STARTCHAR 1E4C
ENCODING 7756
SWIDTH 816 0
DWIDTH 17 0
BBX 15 21 1 0
BITMAP
00C0
0180
0000
0720
00C0
0000
07E0
1C70
301C
600C
4006
C002
C002
C002
C002
C002
4006
600C
301C
1C70
07E0
ENDCHAR
STARTCHAR 1E4D
ENCODING 7757
SWIDTH 624 0
DWIDTH 13 0
BBX 11 18 1 0
BITMAP
0300
0600
0000
1C80
2700
0000
0000
1F00
3180
60C0
C060
C060
8020
C060
C060
60C0
3180
1F00
ENDCHAR
STARTCHAR 1E4E
ENCODING 7758
SWIDTH 816 0
DWIDTH 17 0
BBX 15 21 1 0
BITMAP
0640
0640
0000
0720
00C0
0000
07E0
1C70
301C
600C
4006
C002
C002
C002
C002
C002
4006
600C
301C
1C70
07E0
ENDCHAR
STARTCHAR 1E4F
ENCODING 7759
SWIDTH 624 0
DWIDTH 13 0
BBX 11 18 1 0
BITMAP
1100
1100
0000
1C80
2700
0000
0000
1F00
3180
60C0
C060
C060
8020
C060
C060
60C0
3180
1F00
ENDCHAR
STARTCHAR 1E50
ENCODING 7760
SWIDTH 816 0
DWIDTH 17 0
BBX 15 21 1 0
BITMAP
0600
0100
0000
07E0
0000
0000
07E0
1C70
301C
600C
4006
C002
C002
C002
C002
C002
4006
600C
301C
1C70
07E0
ENDCHAR
STARTCHAR 1E51
ENCODING 7761
SWIDTH 624 0
DWIDTH 13 0
BBX 11 17 1 0
BITMAP
1800
0400
0000
3F80
0000
0000
1F00
3180
60C0
C060
C060
8020
C060
C060
60C0
3180
1F00
ENDCHAR
STARTCHAR 1E52
ENCODING 7762
SWIDTH 816 0
DWIDTH 17 0
BBX 15 21 1 0
BITMAP
00C0
0180
0000
07E0
0000
0000
07E0
1C70
301C
600C
4006
C002
C002
C002
C002
C002
4006
600C
301C
1C70
07E0
ENDCHAR
STARTCHAR 1E53
ENCODING 7763
SWIDTH 624 0
DWIDTH 13 0
BBX 11 17 1 0
BITMAP
0300
0400
0000
3F80
0000
0000
1F00
3180
60C0
C060
C060
8020
C060
C060
60C0
3180
1F00
ENDCHAR
STARTCHAR 1E5A
ENCODING 7770
SWIDTH 720 0
DWIDTH 15 0
BBX 12 19 2 -4
BITMAP
FF80
C1C0
C060
C030
C030
C030
C030
C020
C0E0
FF80
C180
C0C0
C040
C060
C030
0000
0000
0400
0400
ENDCHAR
STARTCHAR 1E5B
ENCODING 7771
SWIDTH 384 0
DWIDTH 8 0
BBX 6 15 2 -4
BITMAP
9C
B0
C0
C0
C0
C0
C0
C0
C0
C0
C0
00
00
80
C0
ENDCHAR
STARTCHAR 1E5E
ENCODING 7774
SWIDTH 720 0
DWIDTH 15 0
BBX 12 19 2 -4
BITMAP
FF80
C1C0
C060
C030
C030
C030
C030
C020
C0E0
FF80
C180
C0C0
C040
C060
C030
0000
0000
0000
3F80
ENDCHAR
STARTCHAR 1E5F
ENCODING 7775
SWIDTH 384 0
DWIDTH 8 0
BBX 8 15 0 -4
BITMAP
27
2C
30
30
30
30
30
30
30
30
30
00
00
00
FC
ENDCHAR
STARTCHAR 1E60
ENCODING 7776
SWIDTH 624 0
DWIDTH 13 0
BBX 11 19 1 0
BITMAP
0600
0600
0000
0000
1F80
71C0
4000
C000
C000
4000
7000
1F00
03C0
0060
0060
0060
8060
F1C0
3F00
ENDCHAR
STARTCHAR 1E61
ENCODING 7777
SWIDTH 480 0
DWIDTH 10 0
BBX 8 15 1 0
BITMAP
18
18
00
00
3E
E3
C0
80
C0
7E
07
01
01
C3
7E
ENDCHAR
STARTCHAR 1E62
ENCODING 7778
SWIDTH 624 0
DWIDTH 13 0
BBX 11 19 1 -4
BITMAP
1F80
71C0
4000
C000
C000
4000
7000
1F00
03C0
0060
0060
0060
8060
F1C0
3F00
0000
0000
0400
0400
ENDCHAR
STARTCHAR 1E63
ENCODING 7779
SWIDTH 480 0
DWIDTH 10 0
BBX 8 15 1 -4
BITMAP
3E
E3
C0
80
C0
7E
07
01
01
C3
7E
00
00
18
18
ENDCHAR
STARTCHAR 1E64
ENCODING 7780
SWIDTH 624 0
DWIDTH 13 0
BBX 11 21 1 0
BITMAP
0400
0400
0000
0300
0400
0000
1F80
71C0
4000
C000
C000
4000
7000
1F00
03C0
0060
0060
0060
8060
F1C0
3F00
ENDCHAR
STARTCHAR 1E65
ENCODING 7781
SWIDTH 480 0
DWIDTH 10 0
BBX 8 18 1 0
BITMAP
18
18
00
04
08
10
00
3E
E3
C0
80
C0
7E
07
01
01
C3
7E
ENDCHAR
STARTCHAR 1E66
ENCODING 7782
SWIDTH 624 0
DWIDTH 13 0
BBX 11 21 1 0
BITMAP
0400
0400
0000
1100
0E00
0000
1F80
71C0
4000
C000
C000
4000
7000
1F00
03C0
0060
0060
0060
8060
F1C0
3F00
ENDCHAR
STARTCHAR 1E67
ENCODING 7783
SWIDTH 480 0
DWIDTH 10 0
BBX 8 18 1 0
BITMAP
18
18
00
66
18
00
00
3E
E3
C0
80
C0
7E
07
01
01
C3
7E
ENDCHAR
STARTCHAR 1E68
ENCODING 7784
SWIDTH 624 0
DWIDTH 13 0
BBX 11 23 1 -4
BITMAP
0600
0600
0000
0000
1F80
71C0
4000
C000
C000
4000
7000
1F00
03C0
0060
0060
0060
8060
F1C0
3F00
0000
0000
0400
0400
ENDCHAR
STARTCHAR 1E69
ENCODING 7785
SWIDTH 480 0
DWIDTH 10 0
BBX 8 19 1 -4
BITMAP
18
18
00
00
3E
E3
C0
80
C0
7E
07
01
01
C3
7E
00
00
18
18
ENDCHAR
STARTCHAR 1E6C
ENCODING 7788
SWIDTH 576 0
DWIDTH 12 0
BBX 12 19 0 -4
BITMAP
FFF0
0600
0600
0600
0600
0600
0600
0600
0600
0600
0600
0600
0600
0600
0600
0000
0000
0600
0600
ENDCHAR
STARTCHAR 1E6D
ENCODING 7789
SWIDTH 384 0
DWIDTH 8 0
BBX 7 17 0 -4
BITMAP
30
30
FE
30
30
30
30
30
30
30
30
18
0E
00
00
0C
0C
ENDCHAR
STARTCHAR 1E6E
ENCODING 7790
SWIDTH 576 0
DWIDTH 12 0
BBX 12 19 0 -4
BITMAP
FFF0
0600
0600
0600
0600
0600
0600
0600
0600
0600
0600
0600
0600
0600
0600
0000
0000
0000
1F80
ENDCHAR
STARTCHAR 1E6F
ENCODING 7791
SWIDTH 384 0
DWIDTH 8 0
BBX 8 16 0 -3
BITMAP
30
30
FE
30
30
30
30
30
30
30
30
18
0E
00
00
3F
ENDCHAR
STARTCHAR 1E78
ENCODING 7800
SWIDTH 816 0
DWIDTH 17 0
BBX 12 21 2 0
BITMAP
0180
0200
0000
1E80
1380
0000
C010
C010
C010
C010
C010
C010
C010
C010
C010
C010
C030
4030
6060
38E0
1F80
ENDCHAR
STARTCHAR 1E79
ENCODING 7801
SWIDTH 672 0
DWIDTH 14 0
BBX 10 18 2 0
BITMAP
0200
0400
0800
3900
2700
0000
0000
80C0
80C0
80C0
80C0
80C0
80C0
80C0
C0C0
C0C0
6340
3E40
ENDCHAR
STARTCHAR 1E7A
ENCODING 7802
SWIDTH 816 0
DWIDTH 17 0
BBX 12 21 2 0
BITMAP
0980
0980
0000
1F80
0000
0000
C010
C010
C010
C010
C010
C010
C010
C010
C010
C010
C030
4030
6060
38E0
1F80
ENDCHAR
STARTCHAR 1E7B
ENCODING 7803
SWIDTH 672 0
DWIDTH 14 0
BBX 10 18 2 0
BITMAP
1200
3300
0000
0000
3F00
0000
0000
80C0
80C0
80C0
80C0
80C0
80C0
80C0
C0C0
C0C0
6340
3E40
ENDCHAR
STARTCHAR 1E80
ENCODING 7808
SWIDTH 1104 0
DWIDTH 23 0
BBX 21 19 1 0
BITMAP
018000
004000
002000
000000
C03008
C07018
405018
405010
60D830
208830
208820
318C60
110460
110440
1B06C0
0A02C0
0A0280
0E0380
040180
ENDCHAR
STARTCHAR 1E81
ENCODING 7809
SWIDTH 864 0
DWIDTH 18 0
BBX 18 15 0 0
BITMAP
030000
008000
004000
000000
C0C040
40C0C0
40E080
61A180
212100
333100
121300
121A00
1E0A00
0C0E00
0C0C00
ENDCHAR
STARTCHAR 1E82
ENCODING 7810
SWIDTH 1104 0
DWIDTH 23 0
BBX 21 19 1 0
BITMAP
000C00
001800
002000
000000
C03008
C07018
405018
405010
60D830
208830
208820
318C60
110460
110440
1B06C0
0A02C0
0A0280
0E0380
040180
ENDCHAR
STARTCHAR 1E83
ENCODING 7811
SWIDTH 864 0
DWIDTH 18 0
BBX 18 15 0 0
BITMAP
003000
006000
008000
000000
C0C040
40C0C0
40E080
61A180
212100
333100
121300
121A00
1E0A00
0C0E00
0C0C00
ENDCHAR
STARTCHAR 1E84
ENCODING 7812
SWIDTH 1104 0
DWIDTH 23 0
BBX 21 19 1 0
BITMAP
008800
00C800
000000
000000
C03008
C07018
405018
405010
60D830
208830
208820
318C60
110460
110440
1B06C0
0A02C0
0A0280
0E0380
040180
ENDCHAR
STARTCHAR 1E85
ENCODING 7813
SWIDTH 864 0
DWIDTH 18 0
BBX 18 15 0 0
BITMAP
033000
013000
000000
000000
C0C040
40C0C0
40E080
61A180
212100
333100
121300
121A00
1E0A00
0C0E00
0C0C00
ENDCHAR
STARTCHAR 1E8E
ENCODING 7822
SWIDTH 624 0
DWIDTH 13 0
BBX 13 19 0 0
BITMAP
0200
0200
0000
0000
C018
6010
6030
3020
1060
18C0
0C80
0D80
0700
0300
0200
0200
0200
0200
0200
ENDCHAR
STARTCHAR 1E8F
ENCODING 7823
SWIDTH 528 0
DWIDTH 11 0
BBX 11 19 0 -4
BITMAP
0C00
0C00
0000
0000
C020
4060
6040
20C0
3080
3180
1100
1B00
0A00
0E00
0600
0400
0C00
9800
F000
ENDCHAR
STARTCHAR 1E92
ENCODING 7826
SWIDTH 672 0
DWIDTH 14 0
BBX 12 19 1 -4
BITMAP
FFF0
0060
0060
00C0
0180
0300
0200
0600
0C00
1800
1000
3000
6000
C000
FFF0
0000
0000
0600
0600
ENDCHAR
STARTCHAR 1E93
ENCODING 7827
SWIDTH 528 0
DWIDTH 11 0
BBX 9 15 1 -4
BITMAP
FF80
0100
0200
0600
0C00
1800
1000
3000
6000
C000
FF80
0000
0000
0800
0800
ENDCHAR
STARTCHAR 1E97
ENCODING 7831
SWIDTH 384 0
DWIDTH 8 0
BBX 7 17 0 0
BITMAP
CC
4C
00
00
30
30
FE
30
30
30
30
30
30
30
30
18
0E
ENDCHAR
STARTCHAR 1E9E
ENCODING 7838
SWIDTH 768 0
DWIDTH 16 0
BBX 13 15 2 0
BITMAP
0FC0
38E0
6060
40C0
C180
C100
C3C0
C070
C030
C018
C018
C018
C030
C470
C7C0
ENDCHAR
STARTCHAR 1EA0
ENCODING 7840
SWIDTH 720 0
DWIDTH 15 0
BBX 15 19 0 -4
BITMAP
0300
0380
0280
06C0
0440
0C60
0820
1830
1030
3010
3FF8
2008
600C
4004
C006
0000
0000
0100
0100
ENDCHAR
STARTCHAR 1EA1
ENCODING 7841
SWIDTH 576 0
DWIDTH 12 0
BBX 9 15 1 -4
BITMAP
3E00
E380
0180
0080
0080
3F80
C080
C080
C180
6380
3E80
0000
0000
0C00
0C00
ENDCHAR
STARTCHAR 1EA2
ENCODING 7842
SWIDTH 720 0
DWIDTH 15 0
BBX 15 20 0 0
BITMAP
0380
0080
0080
0180
0000
0300
0380
0280
06C0
0440
0C60
0820
1830
1030
3010
3FF8
2008
600C
4004
C006
ENDCHAR
STARTCHAR 1EA3
ENCODING 7843
SWIDTH 576 0
DWIDTH 12 0
BBX 9 17 1 0
BITMAP
1C00
0200
0200
0400
0000
0000
3E00
E380
0180
0080
0080
3F80
C080
C080
C180
6380
3E80
ENDCHAR
STARTCHAR 1EA4
ENCODING 7844
SWIDTH 720 0
DWIDTH 15 0
BBX 15 20 0 0
BITMAP
0018
0020
0380
0440
0000
0300
0380
0280
06C0
0440
0C60
0820
1830
1030
3010
3FF8
2008
600C
4004
C006
ENDCHAR
STARTCHAR 1EA5
ENCODING 7845
SWIDTH 576 0
DWIDTH 12 0
BBX 10 17 1 0
BITMAP
0040
0080
0D00
3300
0000
0000
3E00
E380
0180
0080
0080
3F80
C080
C080
C180
6380
3E80
ENDCHAR
STARTCHAR 1EA6
ENCODING 7846
SWIDTH 720 0
DWIDTH 15 0
BBX 15 20 0 0
BITMAP
00C0
0020
0380
0440
0000
0300
0380
0280
06C0
0440
0C60
0820
1830
1030
3010
3FF8
2008
600C
4004
C006
ENDCHAR
STARTCHAR 1EA7
ENCODING 7847
SWIDTH 576 0
DWIDTH 12 0
BBX 9 17 1 0
BITMAP
0200
0180
0C00
3300
0000
0000
3E00
E380
0180
0080
0080
3F80
C080
C080
C180
6380
3E80
ENDCHAR
STARTCHAR 1EA8
ENCODING 7848
SWIDTH 720 0
DWIDTH 15 0
BBX 15 21 0 0
BITMAP
0060
0020
0020
0380
0440
0000
0300
0380
0280
06C0
0440
0C60
0820
1830
1030
3010
3FF8
2008
600C
4004
C006
ENDCHAR
STARTCHAR 1EA9
ENCODING 7849
SWIDTH 576 0
DWIDTH 12 0
BBX 9 18 1 0
BITMAP
0300
0080
0080
0C00
3300
0000
0000
3E00
E380
0180
0080
0080
3F80
C080
C080
C180
6380
3E80
ENDCHAR
STARTCHAR 1EAA
ENCODING 7850
SWIDTH 720 0
DWIDTH 15 0
BBX 15 21 0 0
BITMAP
0620
09C0
0000
0380
0440
0000
0300
0380
0280
06C0
0440
0C60
0820
1830
1030
3010
3FF8
2008
600C
4004
C006
ENDCHAR
STARTCHAR 1EAB
ENCODING 7851
SWIDTH 576 0
DWIDTH 12 0
BBX 9 18 1 0
BITMAP
3900
2F00
0000
0C00
3300
0000
0000
3E00
E380
0180
0080
0080
3F80
C080
C080
C180
6380
3E80
ENDCHAR
STARTCHAR 1EAC
ENCODING 7852
SWIDTH 720 0
DWIDTH 15 0
BBX 15 23 0 -4
BITMAP
0100
0280
0440
0000
0300
0380
0280
06C0
0440
0C60
0820
1830
1030
3010
3FF8
2008
600C
4004
C006
0000
0000
0100
0100
ENDCHAR
STARTCHAR 1EAD
ENCODING 7853
SWIDTH 576 0
DWIDTH 12 0
BBX 9 19 1 -4
BITMAP
0C00
1200
2100
0000
3E00
E380
0180
0080
0080
3F80
C080
C080
C180
6380
3E80
0000
0000
0C00
0C00
ENDCHAR
STARTCHAR 1EAE
ENCODING 7854
SWIDTH 720 0
DWIDTH 15 0
BBX 15 21 0 0
BITMAP
00C0
0180
0000
0440
0380
0000
0300
0380
0280
06C0
0440
0C60
0820
1830
1030
3010
3FF8
2008
600C
4004
C006
ENDCHAR
STARTCHAR 1EAF
ENCODING 7855
SWIDTH 576 0
DWIDTH 12 0
BBX 9 18 1 0
BITMAP
0200
0400
0800
2100
1E00
0000
0000
3E00
E380
0180
0080
0080
3F80
C080
C080
C180
6380
3E80
ENDCHAR
STARTCHAR 1EB0
ENCODING 7856
SWIDTH 720 0
DWIDTH 15 0
BBX 15 21 0 0
BITMAP
0600
0300
0000
0440
0380
0000
0300
0380
0280
06C0
0440
0C60
0820
1830
1030
3010
3FF8
2008
600C
4004
C006
ENDCHAR
STARTCHAR 1EB1
ENCODING 7857
SWIDTH 576 0
DWIDTH 12 0
BBX 9 18 1 0
BITMAP
1000
0800
0400
2100
1E00
0000
0000
3E00
E380
0180
0080
0080
3F80
C080
C080
C180
6380
3E80
ENDCHAR
STARTCHAR 1EB2
ENCODING 7858
SWIDTH 720 0
DWIDTH 15 0
BBX 15 21 0 0
BITMAP
0380
0080
0100
0440
0380
0000
0300
0380
0280
06C0
0440
0C60
0820
1830
1030
3010
3FF8
2008
600C
4004
C006
ENDCHAR
STARTCHAR 1EB3
ENCODING 7859
SWIDTH 576 0
DWIDTH 12 0
BBX 9 18 1 0
BITMAP
0C00
0400
0400
2100
1E00
0000
0000
3E00
E380
0180
0080
0080
3F80
C080
C080
C180
6380
3E80
ENDCHAR
STARTCHAR 1EB4
ENCODING 7860
SWIDTH 720 0
DWIDTH 15 0
BBX 15 21 0 0
BITMAP
0600
0920
08C0
0860
0780
0000
0300
0380
0280
06C0
0440
0C60
0820
1830
1030
3010
3FF8
2008
600C
4004
C006
ENDCHAR
STARTCHAR 1EB5
ENCODING 7861
SWIDTH 576 0
DWIDTH 12 0
BBX 9 18 1 0
BITMAP
3900
2500
0200
2100
1E00
0000
0000
3E00
E380
0180
0080
0080
3F80
C080
C080
C180
6380
3E80
ENDCHAR
STARTCHAR 1EB6
ENCODING 7862
SWIDTH 720 0
DWIDTH 15 0
BBX 15 23 0 -4
BITMAP
0820
0440
0380
0000
0300
0380
0280
06C0
0440
0C60
0820
1830
1030
3010
3FF8
2008
600C
4004
C006
0000
0000
0100
0100
ENDCHAR
STARTCHAR 1EB7
ENCODING 7863
SWIDTH 576 0
DWIDTH 12 0
BBX 9 19 1 -4
BITMAP
2100
2300
1E00
0000
3E00
E380
0180
0080
0080
3F80
C080
C080
C180
6380
3E80
0000
0000
0C00
0C00
ENDCHAR
STARTCHAR 1EB8
ENCODING 7864
SWIDTH 672 0
DWIDTH 14 0
BBX 11 19 2 -4
BITMAP
FFC0
C000
C000
C000
C000
C000
C000
FF80
C000
C000
C000
C000
C000
C000
FFE0
0000
0000
0400
0400
ENDCHAR
STARTCHAR 1EB9
ENCODING 7865
SWIDTH 624 0
DWIDTH 13 0
BBX 11 15 1 -4
BITMAP
1F00
3180
40C0
C040
8060
FFE0
8000
C000
6000
31C0
1F00
0000
0000
0C00
0400
ENDCHAR
STARTCHAR 1EBA
ENCODING 7866
SWIDTH 672 0
DWIDTH 14 0
BBX 11 20 2 0
BITMAP
0E00
0200
0200
0400
0000
FFC0
C000
C000
C000
C000
C000
C000
FF80
C000
C000
C000
C000
C000
C000
FFE0
ENDCHAR
STARTCHAR 1EBB
ENCODING 7867
SWIDTH 624 0
DWIDTH 13 0
BBX 11 17 1 0
BITMAP
0E00
0200
0200
0600
0000
0000
1F00
3180
40C0
C040
8060
FFE0
8000
C000
6000
31C0
1F00
ENDCHAR
STARTCHAR 1EBC
ENCODING 7868
SWIDTH 672 0
DWIDTH 14 0
BBX 11 19 2 0
BITMAP
1880
2500
0300
0000
FFC0
C000
C000
C000
C000
C000
C000
FF80
C000
C000
C000
C000
C000
C000
FFE0
ENDCHAR
STARTCHAR 1EBD
ENCODING 7869
SWIDTH 624 0
DWIDTH 13 0
BBX 11 15 1 0
BITMAP
1880
2500
0300
0000
1F00
3180
40C0
C040
8060
FFE0
8000
C000
6000
31C0
1F00
ENDCHAR
STARTCHAR 1EBE
ENCODING 7870
SWIDTH 672 0
DWIDTH 14 0
BBX 11 20 2 0
BITMAP
0060
0080
0E00
1100
0000
FFC0
C000
C000
C000
C000
C000
C000
FF80
C000
C000
C000
C000
C000
C000
FFE0
ENDCHAR
STARTCHAR 1EBF
ENCODING 7871
SWIDTH 624 0
DWIDTH 13 0
BBX 11 17 1 0
BITMAP
0060
0080
0E00
1100
0000
0000
1F00
3180
40C0
C040
8060
FFE0
8000
C000
6000
31C0
1F00
ENDCHAR
STARTCHAR 1EC0
ENCODING 7872
SWIDTH 672 0
DWIDTH 14 0
BBX 11 20 2 0
BITMAP
0300
0080
0E00
1100
0000
FFC0
C000
C000
C000
C000
C000
C000
FF80
C000
C000
C000
C000
C000
C000
FFE0
ENDCHAR
STARTCHAR 1EC1
ENCODING 7873
SWIDTH 624 0
DWIDTH 13 0
BBX 11 17 1 0
BITMAP
0300
0180
0E00
1100
0000
0000
1F00
3180
40C0
C040
8060
FFE0
8000
C000
6000
31C0
1F00
ENDCHAR
STARTCHAR 1EC2
ENCODING 7874
SWIDTH 672 0
DWIDTH 14 0
BBX 11 21 2 0
BITMAP
0180
0080
0080
0E00
1100
0000
FFC0
C000
C000
C000
C000
C000
C000
FF80
C000
C000
C000
C000
C000
C000
FFE0
ENDCHAR
STARTCHAR 1EC3
ENCODING 7875
SWIDTH 624 0
DWIDTH 13 0
BBX 11 18 1 0
BITMAP
0180
0080
0080
0E00
1100
0000
0000
1F00
3180
40C0
C040
8060
FFE0
8000
C000
6000
31C0
1F00
ENDCHAR
STARTCHAR 1EC4
ENCODING 7876
SWIDTH 672 0
DWIDTH 14 0
BBX 11 21 2 0
BITMAP
1880
2700
0000
0E00
1100
0000
FFC0
C000
C000
C000
C000
C000
C000
FF80
C000
C000
C000
C000
C000
C000
FFE0
ENDCHAR
STARTCHAR 1EC5
ENCODING 7877
SWIDTH 624 0
DWIDTH 13 0
BBX 11 18 1 0
BITMAP
1880
2700
0000
0E00
1100
0000
0000
1F00
3180
40C0
C040
8060
FFE0
8000
C000
6000
31C0
1F00
ENDCHAR
STARTCHAR 1EC6
ENCODING 7878
SWIDTH 672 0
DWIDTH 14 0
BBX 11 23 2 -4
BITMAP
0400
0A00
3100
0000
FFC0
C000
C000
C000
C000
C000
C000
FF80
C000
C000
C000
C000
C000
C000
FFE0
0000
0000
0400
0400
ENDCHAR
STARTCHAR 1EC7
ENCODING 7879
SWIDTH 624 0
DWIDTH 13 0
BBX 11 19 1 -4
BITMAP
0E00
1B00
2180
0000
1F00
3180
40C0
C040
8060
FFE0
8000
C000
6000
31C0
1F00
0000
0000
0C00
0400
ENDCHAR
STARTCHAR 1EC8
ENCODING 7880
SWIDTH 288 0
DWIDTH 6 0
BBX 4 20 1 0
BITMAP
F0
10
10
20
00
60
60
60
60
60
60
60
60
60
60
60
60
60
60
60
ENDCHAR
STARTCHAR 1EC9
ENCODING 7881
SWIDTH 288 0
DWIDTH 6 0
BBX 4 17 1 0
BITMAP
E0
10
10
20
00
00
60
60
60
60
60
60
60
60
60
60
60
ENDCHAR
STARTCHAR 1ECA
ENCODING 7882
SWIDTH 288 0
DWIDTH 6 0
BBX 2 19 2 -4
BITMAP
C0
C0
C0
C0
C0
C0
C0
C0
C0
C0
C0
C0
C0
C0
C0
00
00
C0
C0
ENDCHAR
STARTCHAR 1ECB
ENCODING 7883
SWIDTH 288 0
DWIDTH 6 0
BBX 2 20 2 -4
BITMAP
C0
C0
00
00
00
C0
C0
C0
C0
C0
C0
C0
C0
C0
C0
C0
00
00
80
C0
ENDCHAR
STARTCHAR 1ECC
ENCODING 7884
SWIDTH 816 0
DWIDTH 17 0
BBX 15 19 1 -4
BITMAP
07E0
1C70
301C
600C
4006
C002
C002
C002
C002
C002
4006
600C
301C
1C70
07E0
0000
0000
0180
0100
ENDCHAR
STARTCHAR 1ECD
ENCODING 7885
SWIDTH 624 0
DWIDTH 13 0
BBX 11 15 1 -4
BITMAP
1F00
3180
60C0
C060
C060
8020
C060
C060
60C0
3180
1F00
0000
0000
0400
0400
ENDCHAR
STARTCHAR 1ECE
ENCODING 7886
SWIDTH 816 0
DWIDTH 17 0
BBX 15 20 1 0
BITMAP
0380
0040
0040
0080
0000
07E0
1C70
301C
600C
4006
C002
C002
C002
C002
C002
4006
600C
301C
1C70
07E0
ENDCHAR
STARTCHAR 1ECF
ENCODING 7887
SWIDTH 624 0
DWIDTH 13 0
BBX 11 17 1 0
BITMAP
0E00
0200
0200
0200
0000
0000
1F00
3180
60C0
C060
C060
8020
C060
C060
60C0
3180
1F00
ENDCHAR
STARTCHAR 1ED0
ENCODING 7888
SWIDTH 816 0
DWIDTH 17 0
BBX 15 20 1 0
BITMAP
0008
0010
03A0
0460
0000
07E0
1C70
301C
600C
4006
C002
C002
C002
C002
C002
4006
600C
301C
1C70
07E0
ENDCHAR
STARTCHAR 1ED1
ENCODING 7889
SWIDTH 624 0
DWIDTH 13 0
BBX 11 17 1 0
BITMAP
0060
00C0
0E00
1100
0000
0000
1F00
3180
60C0
C060
C060
8020
C060
C060
60C0
3180
1F00
ENDCHAR
STARTCHAR 1ED2
ENCODING 7890
SWIDTH 816 0
DWIDTH 17 0
BBX 15 20 1 0
BITMAP
0040
0020
0390
0460
0000
07E0
1C70
301C
600C
4006
C002
C002
C002
C002
C002
4006
600C
301C
1C70
07E0
ENDCHAR
STARTCHAR 1ED3
ENCODING 7891
SWIDTH 624 0
DWIDTH 13 0
BBX 11 17 1 0
BITMAP
0300
0080
0E00
1100
0000
0000
1F00
3180
60C0
C060
C060
8020
C060
C060
60C0
3180
1F00
ENDCHAR
STARTCHAR 1ED4
ENCODING 7892
SWIDTH 816 0
DWIDTH 17 0
BBX 15 21 1 0
BITMAP
0060
0010
0010
03A0
0460
0000
07E0
1C70
301C
600C
4006
C002
C002
C002
C002
C002
4006
600C
301C
1C70
07E0
ENDCHAR
STARTCHAR 1ED5
ENCODING 7893
SWIDTH 624 0
DWIDTH 13 0
BBX 11 18 1 0
BITMAP
0180
0080
0080
0E00
1100
0000
0000
1F00
3180
60C0
C060
C060
8020
C060
C060
60C0
3180
1F00
ENDCHAR
STARTCHAR 1ED6
ENCODING 7894
SWIDTH 816 0
DWIDTH 17 0
BBX 15 21 1 0
BITMAP
0620
05E0
0000
0380
0460
0000
07E0
1C70
301C
600C
4006
C002
C002
C002
C002
C002
4006
600C
301C
1C70
07E0
ENDCHAR
STARTCHAR 1ED7
ENCODING 7895
SWIDTH 624 0
DWIDTH 13 0
BBX 11 18 1 0
BITMAP
1880
2700
0000
0E00
1100
0000
0000
1F00
3180
60C0
C060
C060
8020
C060
C060
60C0
3180
1F00
ENDCHAR
STARTCHAR 1ED8
ENCODING 7896
SWIDTH 816 0
DWIDTH 17 0
BBX 15 23 1 -4
BITMAP
0180
02C0
0460
0000
07E0
1C70
301C
600C
4006
C002
C002
C002
C002
C002
4006
600C
301C
1C70
07E0
0000
0000
0180
0100
ENDCHAR
STARTCHAR 1ED9
ENCODING 7897
SWIDTH 624 0
DWIDTH 13 0
BBX 11 19 1 -4
BITMAP
0E00
1B00
3180
0000
1F00
3180
60C0
C060
C060
8020
C060
C060
60C0
3180
1F00
0000
0000
0400
0400
ENDCHAR
STARTCHAR 1EDA
ENCODING 7898
SWIDTH 816 0
DWIDTH 17 0
BBX 15 19 1 0
BITMAP
0060
00C2
0102
0002
07FC
1C78
301C
600C
4006
C002
C002
C002
C002
C002
4006
600C
301C
1C70
07E0
ENDCHAR
STARTCHAR 1EDB
ENCODING 7899
SWIDTH 624 0
DWIDTH 13 0
BBX 11 15 1 0
BITMAP
0300
0660
0C20
0020
1FC0
3180
60C0
C060
C060
8020
C060
C060
60C0
3180
1F00
ENDCHAR
STARTCHAR 1EDC
ENCODING 7900
SWIDTH 816 0
DWIDTH 17 0
BBX 15 19 1 0
BITMAP
0C00
0202
0182
0002
07FC
1C78
301C
600C
4006
C002
C002
C002
C002
C002
4006
600C
301C
1C70
07E0
ENDCHAR
STARTCHAR 1EDD
ENCODING 7901
SWIDTH 624 0
DWIDTH 13 0
BBX 11 15 1 0
BITMAP
1800
0C60
0620
0020
1FC0
3180
60C0
C060
C060
8020
C060
C060
60C0
3180
1F00
ENDCHAR
STARTCHAR 1EDE
ENCODING 7902
SWIDTH 816 0
DWIDTH 17 0
BBX 15 20 1 0
BITMAP
0380
0040
0042
0082
0002
07FC
1C78
301C
600C
4006
C002
C002
C002
C002
C002
4006
600C
301C
1C70
07E0
ENDCHAR
STARTCHAR 1EDF
ENCODING 7903
SWIDTH 624 0
DWIDTH 13 0
BBX 11 17 1 0
BITMAP
0E00
0200
0200
0220
0020
0020
1FC0
3180
60C0
C060
C060
8020
C060
C060
60C0
3180
1F00
ENDCHAR
STARTCHAR 1EE0
ENCODING 7904
SWIDTH 816 0
DWIDTH 17 0
BBX 15 19 1 0
BITMAP
0620
0522
08C2
0002
07FC
1C78
301C
600C
4006
C002
C002
C002
C002
C002
4006
600C
301C
1C70
07E0
ENDCHAR
STARTCHAR 1EE1
ENCODING 7905
SWIDTH 624 0
DWIDTH 13 0
BBX 11 15 1 0
BITMAP
1880
2560
0320
0020
1FC0
3180
60C0
C060
C060
8020
C060
C060
60C0
3180
1F00
ENDCHAR
STARTCHAR 1EE2
ENCODING 7906
SWIDTH 816 0
DWIDTH 17 0
BBX 15 22 1 -4
BITMAP
0002
0002
0002
07FC
1C78
301C
600C
4006
C002
C002
C002
C002
C002
4006
600C
301C
1C70
07E0
0000
0000
0180
0100
ENDCHAR
STARTCHAR 1EE3
ENCODING 7907
SWIDTH 624 0
DWIDTH 13 0
BBX 11 18 1 -4
BITMAP
0060
0020
0020
1FC0
3180
60C0
C060
C060
8020
C060
C060
60C0
3180
1F00
0000
0000
0400
0400
ENDCHAR
STARTCHAR 1EE4
ENCODING 7908
SWIDTH 816 0
DWIDTH 17 0
BBX 12 19 2 -4
BITMAP
C010
C010
C010
C010
C010
C010
C010
C010
C010
C010
C030
4030
6060
38E0
1F80
0000
0000
0600
0200
ENDCHAR
STARTCHAR 1EE5
ENCODING 7909
SWIDTH 672 0
DWIDTH 14 0
BBX 10 15 2 -4
BITMAP
80C0
80C0
80C0
80C0
80C0
80C0
80C0
C0C0
C0C0
6340
3E40
0000
0000
0C00
0C00
ENDCHAR
STARTCHAR 1EE6
ENCODING 7910
SWIDTH 816 0
DWIDTH 17 0
BBX 12 20 2 0
BITMAP
0700
0100
0100
0200
0000
C010
C010
C010
C010
C010
C010
C010
C010
C010
C010
C030
4030
6060
38E0
1F80
ENDCHAR
STARTCHAR 1EE7
ENCODING 7911
SWIDTH 672 0
DWIDTH 14 0
BBX 10 17 2 0
BITMAP
1C00
0200
0200
0400
0000
0000
80C0
80C0
80C0
80C0
80C0
80C0
80C0
C0C0
C0C0
6340
3E40
ENDCHAR
STARTCHAR 1EE8
ENCODING 7912
SWIDTH 816 0
DWIDTH 17 0
BBX 14 19 2 0
BITMAP
00C0
0104
0604
0004
C01C
C010
C010
C010
C010
C010
C010
C010
C010
C010
C030
4030
6060
38E0
1F80
ENDCHAR
STARTCHAR 1EE9
ENCODING 7913
SWIDTH 672 0
DWIDTH 14 0
BBX 12 15 2 0
BITMAP
0300
0420
0810
0030
80E0
80C0
80C0
80C0
80C0
80C0
80C0
C0C0
C0C0
6340
3E40
ENDCHAR
STARTCHAR 1EEA
ENCODING 7914
SWIDTH 816 0
DWIDTH 17 0
BBX 14 19 2 0
BITMAP
1800
0C04
0604
0004
C01C
C010
C010
C010
C010
C010
C010
C010
C010
C010
C030
4030
6060
38E0
1F80
ENDCHAR
STARTCHAR 1EEB
ENCODING 7915
SWIDTH 672 0
DWIDTH 14 0
BBX 12 15 2 0
BITMAP
3000
1820
0410
0030
80E0
80C0
80C0
80C0
80C0
80C0
80C0
C0C0
C0C0
6340
3E40
ENDCHAR
STARTCHAR 1EEC
ENCODING 7916
SWIDTH 816 0
DWIDTH 17 0
BBX 14 20 2 0
BITMAP
0700
0100
0104
0204
0004
C01C
C010
C010
C010
C010
C010
C010
C010
C010
C010
C030
4030
6060
38E0
1F80
ENDCHAR
STARTCHAR 1EED
ENCODING 7917
SWIDTH 672 0
DWIDTH 14 0
BBX 12 17 2 0
BITMAP
1C00
0200
0200
0430
0010
0030
80E0
80C0
80C0
80C0
80C0
80C0
80C0
C0C0
C0C0
6340
3E40
ENDCHAR
STARTCHAR 1EEE
ENCODING 7918
SWIDTH 816 0
DWIDTH 17 0
BBX 14 19 2 0
BITMAP
0C40
1284
0184
0004
C01C
C010
C010
C010
C010
C010
C010
C010
C010
C010
C030
4030
6060
38E0
1F80
ENDCHAR
STARTCHAR 1EEF
ENCODING 7919
SWIDTH 672 0
DWIDTH 14 0
BBX 12 15 2 0
BITMAP
3900
2520
0210
0030
80E0
80C0
80C0
80C0
80C0
80C0
80C0
C0C0
C0C0
6340
3E40
ENDCHAR
STARTCHAR 1EF0
ENCODING 7920
SWIDTH 816 0
DWIDTH 17 0
BBX 14 22 2 -4
BITMAP
0004
0004
0004
C01C
C010
C010
C010
C010
C010
C010
C010
C010
C010
C030
4030
6060
38E0
1F80
0000
0000
0600
0200
ENDCHAR
STARTCHAR 1EF1
ENCODING 7921
SWIDTH 672 0
DWIDTH 14 0
BBX 12 18 2 -4
BITMAP
0020
0010
0030
80E0
80C0
80C0
80C0
80C0
80C0
80C0
C0C0
C0C0
6340
3E40
0000
0000
0C00
0C00
ENDCHAR
STARTCHAR 1EF2
ENCODING 7922
SWIDTH 624 0
DWIDTH 13 0
BBX 13 19 0 0
BITMAP
1800
0400
0200
0000
C018
6010
6030
3020
1060
18C0
0C80
0D80
0700
0300
0200
0200
0200
0200
0200
ENDCHAR
STARTCHAR 1EF3
ENCODING 7923
SWIDTH 528 0
DWIDTH 11 0
BBX 11 19 0 -4
BITMAP
1000
0800
0600
0000
C020
4060
6040
20C0
3080
3180
1100
1B00
0A00
0E00
0600
0400
0C00
9800
F000
ENDCHAR
STARTCHAR 1EF4
ENCODING 7924
SWIDTH 624 0
DWIDTH 13 0
BBX 13 19 0 -4
BITMAP
C018
6010
6030
3020
1060
18C0
0C80
0D80
0700
0300
0200
0200
0200
0200
0200
0000
0000
0200
0200
ENDCHAR
STARTCHAR 1EF5
ENCODING 7925
SWIDTH 528 0
DWIDTH 11 0
BBX 11 15 0 -4
BITMAP
C020
4060
6040
20C0
3080
3180
1100
1B00
0A00
0E00
0600
0400
0C00
9980
F180
ENDCHAR
STARTCHAR 1EF6
ENCODING 7926
SWIDTH 624 0
DWIDTH 13 0
BBX 13 20 0 0
BITMAP
0700
0180
0100
0300
0000
C018
6010
6030
3020
1060
18C0
0C80
0D80
0700
0300
0200
0200
0200
0200
0200
ENDCHAR
STARTCHAR 1EF7
ENCODING 7927
SWIDTH 528 0
DWIDTH 11 0
BBX 11 21 0 -4
BITMAP
0E00
0200
0200
0600
0000
0000
C020
4060
6040
20C0
3080
3180
1100
1B00
0A00
0E00
0600
0400
0C00
9800
F000
ENDCHAR
STARTCHAR 1EF8
ENCODING 7928
SWIDTH 624 0
DWIDTH 13 0
BBX 13 19 0 0
BITMAP
0C40
1240
0180
0000
C018
6010
6030
3020
1060
18C0
0C80
0D80
0700
0300
0200
0200
0200
0200
0200
ENDCHAR
STARTCHAR 1EF9
ENCODING 7929
SWIDTH 528 0
DWIDTH 11 0
BBX 11 19 0 -4
BITMAP
1880
2500
0300
0000
C020
4060
6040
20C0
3080
3180
1100
1B00
0A00
0E00
0600
0400
0C00
9800
F000
ENDCHAR
STARTCHAR 2007
ENCODING 8199
SWIDTH 720 0
DWIDTH 15 0
BBX 0 0 0 0
BITMAP
ENDCHAR
STARTCHAR 2008
ENCODING 8200
SWIDTH 192 0
DWIDTH 4 0
BBX 0 0 0 0
BITMAP
ENDCHAR
STARTCHAR 2009
ENCODING 8201
SWIDTH 144 0
DWIDTH 3 0
BBX 0 0 0 0
BITMAP
ENDCHAR
STARTCHAR 200A
ENCODING 8202
SWIDTH 96 0
DWIDTH 2 0
BBX 0 0 0 0
BITMAP
ENDCHAR
STARTCHAR 200B
ENCODING 8203
SWIDTH 0 0
DWIDTH 0 0
BBX 0 0 0 0
BITMAP
ENDCHAR
STARTCHAR 2010
ENCODING 8208
SWIDTH 384 0
DWIDTH 8 0
BBX 6 1 1 5
BITMAP
FC
ENDCHAR
STARTCHAR 2012
ENCODING 8210
SWIDTH 720 0
DWIDTH 15 0
BBX 13 1 1 7
BITMAP
FFF8
ENDCHAR
STARTCHAR 2013
ENCODING 8211
SWIDTH 480 0
DWIDTH 10 0
BBX 10 1 0 5
BITMAP
FFC0
ENDCHAR
STARTCHAR 2014
ENCODING 8212
SWIDTH 1008 0
DWIDTH 21 0
BBX 21 1 0 5
BITMAP
FFFFF8
ENDCHAR
STARTCHAR 2015
ENCODING 8213
SWIDTH 1008 0
DWIDTH 21 0
BBX 21 1 0 5
BITMAP
FFFFF8
ENDCHAR
STARTCHAR 2018
ENCODING 8216
SWIDTH 192 0
DWIDTH 4 0
BBX 2 5 1 11
BITMAP
40
40
C0
C0
C0
ENDCHAR
STARTCHAR 2019
ENCODING 8217
SWIDTH 192 0
DWIDTH 4 0
BBX 2 5 1 11
BITMAP
C0
C0
40
40
80
ENDCHAR
STARTCHAR 201A
ENCODING 8218
SWIDTH 192 0
DWIDTH 4 0
BBX 2 5 1 -3
BITMAP
C0
C0
40
40
80
ENDCHAR
STARTCHAR 201C
ENCODING 8220
SWIDTH 384 0
DWIDTH 8 0
BBX 6 5 1 11
BITMAP
44
48
C8
CC
CC
ENDCHAR
STARTCHAR 201D
ENCODING 8221
SWIDTH 384 0
DWIDTH 8 0
BBX 6 5 1 11
BITMAP
CC
CC
4C
48
88
ENDCHAR
STARTCHAR 201E
ENCODING 8222
SWIDTH 384 0
DWIDTH 8 0
BBX 6 5 1 -3
BITMAP
CC
CC
48
48
88
ENDCHAR
STARTCHAR 2020
ENCODING 8224
SWIDTH 528 0
DWIDTH 11 0
BBX 10 19 1 -4
BITMAP
0800
0800
0800
0800
0800
FFC0
0800
0800
0800
0800
0800
0800
0800
0800
0800
0800
0800
0800
0800
ENDCHAR
STARTCHAR 2021
ENCODING 8225
SWIDTH 528 0
DWIDTH 11 0
BBX 10 19 1 -4
BITMAP
0800
0800
0800
0800
0800
FFC0
0800
0800
0800
0800
0800
0800
0800
FFC0
0800
0800
0800
0800
0800
ENDCHAR
STARTCHAR 2022
ENCODING 8226
SWIDTH 288 0
DWIDTH 6 0
BBX 3 3 2 4
BITMAP
C0
E0
C0
ENDCHAR
STARTCHAR 2026
ENCODING 8230
SWIDTH 624 0
DWIDTH 13 0
BBX 11 2 1 0
BITMAP
C660
C660
ENDCHAR
STARTCHAR 2030
ENCODING 8240
SWIDTH 1200 0
DWIDTH 25 0
BBX 23 15 1 0
BITMAP
780800
C41000
843000
842000
844000
84C000
C48000
793C38
036244
024242
044282
0C4282
084242
106244
303C38
ENDCHAR
STARTCHAR 2032
ENCODING 8242
SWIDTH 192 0
DWIDTH 4 0
BBX 2 6 1 9
BITMAP
C0
C0
C0
C0
40
40
ENDCHAR
STARTCHAR 2033
ENCODING 8243
SWIDTH 384 0
DWIDTH 8 0
BBX 5 6 1 9
BITMAP
C8
C8
C8
C8
48
48
ENDCHAR
STARTCHAR 2039
ENCODING 8249
SWIDTH 288 0
DWIDTH 6 0
BBX 4 8 1 1
BITMAP
10
20
60
C0
C0
60
20
10
ENDCHAR
STARTCHAR 203A
ENCODING 8250
SWIDTH 288 0
DWIDTH 6 0
BBX 4 8 1 1
BITMAP
C0
40
20
30
30
20
40
80
ENDCHAR
STARTCHAR 2044
ENCODING 8260
SWIDTH 192 0
DWIDTH 4 0
BBX 11 15 -4 0
BITMAP
0020
0040
00C0
0080
0100
0300
0200
0400
0C00
0800
1000
3000
2000
4000
C000
ENDCHAR
STARTCHAR 2052
ENCODING 8274
SWIDTH 528 0
DWIDTH 11 0
BBX 7 15 2 0
BITMAP
C4
C4
0C
08
08
18
10
10
30
20
20
60
40
46
C6
ENDCHAR
STARTCHAR 2070
ENCODING 8304
SWIDTH 432 0
DWIDTH 9 0
BBX 7 9 1 7
BITMAP
38
C4
82
82
82
82
82
C4
38
ENDCHAR
STARTCHAR 2074
ENCODING 8308
SWIDTH 432 0
DWIDTH 9 0
BBX 7 9 1 7
BITMAP
18
10
20
60
48
88
FE
08
08
ENDCHAR
STARTCHAR 2075
ENCODING 8309
SWIDTH 432 0
DWIDTH 9 0
BBX 7 9 1 7
BITMAP
7C
40
40
40
FC
06
02
86
7C
ENDCHAR
STARTCHAR 2076
ENCODING 8310
SWIDTH 432 0
DWIDTH 9 0
BBX 7 9 1 7
BITMAP
3E
60
C0
80
BC
C2
82
42
3C
ENDCHAR
STARTCHAR 2077
ENCODING 8311
SWIDTH 432 0
DWIDTH 9 0
BBX 7 9 1 7
BITMAP
FE
82
84
04
08
18
10
30
20
ENDCHAR
STARTCHAR 2078
ENCODING 8312
SWIDTH 432 0
DWIDTH 9 0
BBX 7 9 1 7
BITMAP
7C
86
82
C6
7C
82
82
82
7C
ENDCHAR
STARTCHAR 2079
ENCODING 8313
SWIDTH 432 0
DWIDTH 9 0
BBX 7 9 1 7
BITMAP
78
84
82
82
C6
7A
02
04
F8
ENDCHAR
STARTCHAR 2080
ENCODING 8320
SWIDTH 432 0
DWIDTH 9 0
BBX 7 9 1 -2
BITMAP
38
44
82
82
82
82
82
C4
38
ENDCHAR
STARTCHAR 2081
ENCODING 8321
SWIDTH 432 0
DWIDTH 9 0
BBX 6 9 2 -2
BITMAP
E0
20
20
20
20
20
20
20
FC
ENDCHAR
STARTCHAR 2082
ENCODING 8322
SWIDTH 432 0
DWIDTH 9 0
BBX 7 9 1 -2
BITMAP
78
84
04
04
0C
18
20
40
FE
ENDCHAR
STARTCHAR 2083
ENCODING 8323
SWIDTH 432 0
DWIDTH 9 0
BBX 7 9 1 -2
BITMAP
FC
04
08
10
38
06
02
86
7C
ENDCHAR
STARTCHAR 2084
ENCODING 8324
SWIDTH 432 0
DWIDTH 9 0
BBX 7 9 1 -2
BITMAP
08
10
30
20
48
88
FE
08
08
ENDCHAR
STARTCHAR 2085
ENCODING 8325
SWIDTH 432 0
DWIDTH 9 0
BBX 7 9 1 -2
BITMAP
7C
40
40
40
FC
06
02
86
7C
ENDCHAR
STARTCHAR 2086
ENCODING 8326
SWIDTH 432 0
DWIDTH 9 0
BBX 7 9 1 -2
BITMAP
3E
60
C0
80
BC
C2
82
42
3C
ENDCHAR
STARTCHAR 2087
ENCODING 8327
SWIDTH 432 0
DWIDTH 9 0
BBX 7 9 1 -2
BITMAP
FE
82
84
04
08
08
10
10
20
ENDCHAR
STARTCHAR 2088
ENCODING 8328
SWIDTH 432 0
DWIDTH 9 0
BBX 7 9 1 -2
BITMAP
78
C6
82
82
7C
82
82
82
7C
ENDCHAR
STARTCHAR 2089
ENCODING 8329
SWIDTH 432 0
DWIDTH 9 0
BBX 7 9 1 -2
BITMAP
78
C4
82
82
C6
7A
02
04
F8
ENDCHAR
STARTCHAR 20A1
ENCODING 8353
SWIDTH 720 0
DWIDTH 15 0
BBX 13 20 1 -2
BITMAP
0080
0110
0120
0FE0
1D70
3228
6240
4240
C240
C440
C480
C480
C480
4880
6900
3918
1D70
0FE0
1200
1200
ENDCHAR
STARTCHAR 20A3
ENCODING 8355
SWIDTH 672 0
DWIDTH 14 0
BBX 12 15 1 0
BITMAP
3FF0
2000
2000
2000
2000
2000
2000
2000
3FE0
2000
2000
FF00
2000
2000
2000
ENDCHAR
STARTCHAR 20A4
ENCODING 8356
SWIDTH 624 0
DWIDTH 13 0
BBX 12 15 1 0
BITMAP
07E0
1C70
1000
3000
3000
2000
FF80
2000
2000
FF80
2000
2000
2000
2000
FFF0
ENDCHAR
STARTCHAR 20A6
ENCODING 8358
SWIDTH 864 0
DWIDTH 18 0
BBX 16 15 1 0
BITMAP
3004
3004
3804
2C04
2404
2604
FFFF
2184
FFFF
2064
2034
2034
201C
200C
2004
ENDCHAR
STARTCHAR 20A7
ENCODING 8359
SWIDTH 1632 0
DWIDTH 34 0
BBX 31 15 2 0
BITMAP
FF800000
C1C18000
C0618000
C0318000
C037F0FC
C0318184
C0318300
C0218300
C0E181C0
FFC180FC
C0018006
C0018002
C0018006
C000CB8E
C00078F8
ENDCHAR
STARTCHAR 20A9
ENCODING 8361
SWIDTH 1152 0
DWIDTH 24 0
BBX 23 15 1 0
BITMAP
C03004
C0300C
40380C
606808
604818
204C18
FFFFFE
108630
FFFFFE
190220
090360
0F0140
0F0140
0601C0
060080
ENDCHAR
STARTCHAR 20AB
ENCODING 8363
SWIDTH 672 0
DWIDTH 14 0
BBX 13 19 1 -3
BITMAP
0020
0020
07F8
0020
0020
1F20
31A0
60E0
C060
C060
8020
C060
C060
60E0
31A0
1F20
0000
0000
FFE0
ENDCHAR
STARTCHAR 20AC
ENCODING 8364
SWIDTH 816 0
DWIDTH 17 0
BBX 15 15 1 0
BITMAP
03F0
071C
1C04
1800
3000
FFE0
2000
2000
FFE0
3000
1000
1800
0C06
071C
01F0
ENDCHAR
STARTCHAR 20AD
ENCODING 8365
SWIDTH 624 0
DWIDTH 13 0
BBX 12 15 1 0
BITMAP
2030
2060
20C0
2180
2300
2600
2C00
FFC0
2C00
2600
2300
2180
20C0
2060
2030
ENDCHAR
STARTCHAR 20AE
ENCODING 8366
SWIDTH 672 0
DWIDTH 14 0
BBX 12 15 1 0
BITMAP
FFF0
0600
0600
0600
0640
0780
0600
1E40
2780
0600
1E00
2600
0600
0600
0600
ENDCHAR
STARTCHAR 20B1
ENCODING 8369
SWIDTH 816 0
DWIDTH 17 0
BBX 16 15 1 0
BITMAP
3FC0
2070
2018
FFFF
2008
2008
FFFF
2018
2030
3FE0
2000
2000
2000
2000
2000
ENDCHAR
STARTCHAR 20B2
ENCODING 8370
SWIDTH 768 0
DWIDTH 16 0
BBX 13 19 1 -2
BITMAP
0100
0100
07E0
1D78
3108
6100
4100
C100
C100
C108
C108
C108
4108
6108
3108
1D78
07E0
0100
0100
ENDCHAR
STARTCHAR 20B4
ENCODING 8372
SWIDTH 816 0
DWIDTH 17 0
BBX 13 15 2 0
BITMAP
1F80
38E0
0020
0030
0030
0030
FFF8
0000
FFF8
6000
6000
6000
2010
38F0
0FC0
ENDCHAR
STARTCHAR 20B5
ENCODING 8373
SWIDTH 720 0
DWIDTH 15 0
BBX 13 19 1 -2
BITMAP
0100
0100
07E0
1D70
3118
6100
4100
C100
C100
C100
C100
C100
4100
6100
3118
1D70
07E0
0100
0100
ENDCHAR
STARTCHAR 20B8
ENCODING 8376
SWIDTH 720 0
DWIDTH 15 0
BBX 11 15 2 0
BITMAP
FFE0
0000
0000
FFE0
0400
0400
0400
0400
0400
0400
0400
0400
0400
0400
0400
ENDCHAR
STARTCHAR 20B9
ENCODING 8377
SWIDTH 720 0
DWIDTH 15 0
BBX 14 15 0 0
BITMAP
FFFC
00C0
0060
FFFC
0030
0030
0020
0060
01C0
3F80
0180
00C0
0040
0060
0030
ENDCHAR
STARTCHAR 20BA
ENCODING 8378
SWIDTH 672 0
DWIDTH 14 0
BBX 13 15 1 0
BITMAP
2000
2000
2180
2600
3800
6180
A600
3818
6018
A010
2030
2030
2060
21C0
3F00
ENDCHAR
STARTCHAR 20BC
ENCODING 8380
SWIDTH 912 0
DWIDTH 19 0
BBX 15 18 2 0
BITMAP
0100
0100
0100
07C0
1D70
3118
610C
4104
4104
4106
C106
C106
C106
C106
C106
C006
C006
C006
ENDCHAR
STARTCHAR 20BD
ENCODING 8381
SWIDTH 720 0
DWIDTH 15 0
BBX 13 15 1 0
BITMAP
3FC0
2070
2018
2018
2008
2008
2018
2018
2070
3FC0
2000
FF00
2000
2000
2000
ENDCHAR
STARTCHAR 2113
ENCODING 8467
SWIDTH 480 0
DWIDTH 10 0
BBX 8 15 1 0
BITMAP
0E
19
11
11
22
22
24
28
38
20
40
C0
41
62
3C
ENDCHAR
STARTCHAR 2116
ENCODING 8470
SWIDTH 1200 0
DWIDTH 25 0
BBX 22 15 2 0
BITMAP
C018F0
E01988
F01904
F01904
D81904
CC1988
C618F0
C61800
C31800
C199F8
C0D800
C05800
C07800
C03800
C01800
ENDCHAR
STARTCHAR 2122
ENCODING 8482
SWIDTH 1008 0
DWIDTH 21 0
BBX 19 9 0 6
BITMAP
FF4020
106060
1070A0
1050A0
104920
104B20
104620
104020
104020
ENDCHAR
STARTCHAR 2126
ENCODING 8486
SWIDTH 912 0
DWIDTH 19 0
BBX 19 15 0 0
BITMAP
03F000
071C00
0C0600
180300
300100
300180
200180
200180
200180
300180
300100
180300
080600
060C00
FE0FE0
ENDCHAR
STARTCHAR 212A
ENCODING 8490
SWIDTH 720 0
DWIDTH 15 0
BBX 12 15 2 0
BITMAP
C030
C060
C0C0
C180
C300
C600
CC00
DE00
F600
E300
C180
C0C0
C060
C020
C030
ENDCHAR
STARTCHAR 212B
ENCODING 8491
SWIDTH 720 0
DWIDTH 15 0
BBX 15 21 0 0
BITMAP
0300
0480
0440
0480
0300
0000
0300
0380
0280
06C0
0440
0C60
0820
1830
1030
3010
3FF8
2008
600C
4004
C006
ENDCHAR
STARTCHAR 212E
ENCODING 8494
SWIDTH 864 0
DWIDTH 18 0
BBX 16 15 1 0
BITMAP
07E0
1818
2004
6006
6007
E007
E007
FFF8
E000
E000
6000
6000
2004
1808
07F0
ENDCHAR
STARTCHAR 2153
ENCODING 8531
SWIDTH 1008 0
DWIDTH 21 0
BBX 18 15 2 0
BITMAP
E00400
200800
201800
201000
202000
206000
205FC0
208080
FD8100
010300
020380
060040
040040
081040
180F80
ENDCHAR
STARTCHAR 2154
ENCODING 8532
SWIDTH 1008 0
DWIDTH 21 0
BBX 19 15 1 0
BITMAP
780200
840400
040C00
040800
081000
103000
202FE0
404040
FEC080
008180
0101C0
030020
020020
040820
0C07C0
ENDCHAR
STARTCHAR 215B
ENCODING 8539
SWIDTH 1008 0
DWIDTH 21 0
BBX 19 15 2 0
BITMAP
E00400
200800
201800
201000
202000
206000
204780
208840
FD9840
010840
020780
061860
041020
081860
180F80
ENDCHAR
STARTCHAR 215C
ENCODING 8540
SWIDTH 1008 0
DWIDTH 21 0
BBX 20 15 1 0
BITMAP
FC0200
040400
080C00
100800
3C1000
063000
0223C0
864420
7CCC20
008420
0103C0
030C30
020810
040C30
0C07C0
ENDCHAR
STARTCHAR 215D
ENCODING 8541
SWIDTH 1008 0
DWIDTH 21 0
BBX 20 15 1 0
BITMAP
7C0200
400400
400C00
400800
FC1000
063000
0223C0
864420
78CC20
008420
0103C0
030C30
020810
040C30
0C07C0
ENDCHAR
STARTCHAR 215E
ENCODING 8542
SWIDTH 1008 0
DWIDTH 21 0
BBX 20 15 1 0
BITMAP
FE0200
820400
840C00
040800
081000
083000
1023C0
104420
20CC20
008420
0103C0
030C30
020810
040C30
0C07C0
ENDCHAR
STARTCHAR 2190
ENCODING 8592
SWIDTH 624 0
DWIDTH 13 0
BBX 9 9 2 1
BITMAP
1000
3000
2000
4000
FF80
4000
2000
3000
1000
ENDCHAR
STARTCHAR 2191
ENCODING 8593
SWIDTH 624 0
DWIDTH 13 0
BBX 8 9 2 1
BITMAP
18
3C
6B
89
08
08
08
08
08
ENDCHAR
STARTCHAR 2192
ENCODING 8594
SWIDTH 624 0
DWIDTH 13 0
BBX 8 9 2 1
BITMAP
0C
04
02
03
FF
03
06
04
0C
ENDCHAR
STARTCHAR 2193
ENCODING 8595
SWIDTH 624 0
DWIDTH 13 0
BBX 9 9 2 1
BITMAP
0800
0800
0800
0800
0800
C980
6B00
1C00
0800
ENDCHAR
STARTCHAR 2194
ENCODING 8596
SWIDTH 672 0
DWIDTH 14 0
BBX 12 9 1 1
BITMAP
10C0
2040
6060
4030
FFF0
4030
6060
3040
1080
ENDCHAR
STARTCHAR 2195
ENCODING 8597
SWIDTH 624 0
DWIDTH 13 0
BBX 8 12 2 1
BITMAP
18
3E
CB
89
08
08
08
08
89
6B
3C
08
ENDCHAR
STARTCHAR 2196
ENCODING 8598
SWIDTH 624 0
DWIDTH 13 0
BBX 7 7 3 2
BITMAP
1C
F0
E0
B0
98
8C
06
ENDCHAR
STARTCHAR 2197
ENCODING 8599
SWIDTH 624 0
DWIDTH 13 0
BBX 7 8 3 2
BITMAP
40
7C
0E
1A
32
62
C2
80
ENDCHAR
STARTCHAR 2198
ENCODING 8600
SWIDTH 624 0
DWIDTH 13 0
BBX 7 8 3 2
BITMAP
80
C2
62
32
1A
0E
1C
70
ENDCHAR
STARTCHAR 2199
ENCODING 8601
SWIDTH 624 0
DWIDTH 13 0
BBX 7 7 3 3
BITMAP
06
8C
98
B0
E0
E0
1C
ENDCHAR
STARTCHAR 2202
ENCODING 8706
SWIDTH 720 0
DWIDTH 15 0
BBX 11 15 2 0
BITMAP
7E00
4380
0080
00C0
0040
0060
3F60
61E0
C0E0
8060
8060
8040
C0C0
6380
3E00
ENDCHAR
STARTCHAR 2205
ENCODING 8709
SWIDTH 576 0
DWIDTH 12 0
BBX 10 9 1 1
BITMAP
1E40
2180
4180
4280
4C80
5880
7080
6100
9E00
ENDCHAR
STARTCHAR 2206
ENCODING 8710
SWIDTH 720 0
DWIDTH 15 0
BBX 15 15 0 0
BITMAP
0300
0380
0280
06C0
0440
0C60
0820
1830
1030
3010
3018
2008
600C
4004
FFFE
ENDCHAR
STARTCHAR 220F
ENCODING 8719
SWIDTH 816 0
DWIDTH 17 0
BBX 13 19 2 -4
BITMAP
FFF8
C018
C018
C018
C018
C018
C018
C018
C018
C018
C018
C018
C018
C018
C018
C018
C018
C018
C018
ENDCHAR
STARTCHAR 2211
ENCODING 8721
SWIDTH 672 0
DWIDTH 14 0
BBX 12 19 1 -4
BITMAP
FFF0
4000
6000
3000
1800
0C00
0400
0600
0300
0100
0300
0600
0C00
0C00
1800
3000
6000
C000
FFF0
ENDCHAR
STARTCHAR 2212
ENCODING 8722
SWIDTH 576 0
DWIDTH 12 0
BBX 10 1 1 7
BITMAP
FFC0
ENDCHAR
STARTCHAR 2215
ENCODING 8725
SWIDTH 336 0
DWIDTH 7 0
BBX 8 20 0 -2
BITMAP
03
02
02
06
04
04
0C
08
08
18
10
30
20
20
60
40
40
C0
80
80
ENDCHAR
STARTCHAR 2219
ENCODING 8729
SWIDTH 288 0
DWIDTH 6 0
BBX 2 2 2 6
BITMAP
C0
C0
ENDCHAR
STARTCHAR 221A
ENCODING 8730
SWIDTH 816 0
DWIDTH 17 0
BBX 15 20 1 -4
BITMAP
0002
0002
0006
0004
0004
000C
0008
0008
F018
1810
0810
0C30
0C20
0420
0660
0240
02C0
03C0
0180
0180
ENDCHAR
STARTCHAR 221E
ENCODING 8734
SWIDTH 912 0
DWIDTH 19 0
BBX 17 8 1 3
BITMAP
3E1E00
432100
C14080
808080
80C080
C14080
633300
3C1E00
ENDCHAR
STARTCHAR 222B
ENCODING 8747
SWIDTH 384 0
DWIDTH 8 0
BBX 8 20 0 -4
BITMAP
07
0C
18
18
18
18
18
18
18
18
18
18
18
18
18
18
18
18
30
E0
ENDCHAR
STARTCHAR 2248
ENCODING 8776
SWIDTH 576 0
DWIDTH 12 0
BBX 10 8 1 3
BITMAP
7840
4C80
8780
0000
0000
7840
4C80
8780
ENDCHAR
STARTCHAR 2260
ENCODING 8800
SWIDTH 576 0
DWIDTH 12 0
BBX 10 12 1 1
BITMAP
0180
0100
0200
FFC0
0400
0400
0800
0800
FFC0
3000
2000
6000
ENDCHAR
STARTCHAR 2264
ENCODING 8804
SWIDTH 576 0
DWIDTH 12 0
BBX 10 12 1 0
BITMAP
00C0
0380
1C00
F000
E000
3C00
0700
01C0
0000
0000
0000
FFC0
ENDCHAR
STARTCHAR 2265
ENCODING 8805
SWIDTH 576 0
DWIDTH 12 0
BBX 10 12 1 0
BITMAP
C000
7000
0E00
03C0
01C0
0F00
3800
E000
0000
0000
0000
FFC0
ENDCHAR
STARTCHAR 25A0
ENCODING 9632
SWIDTH 624 0
DWIDTH 13 0
BBX 8 8 2 2
BITMAP
FF
FF
FF
FF
FF
FF
FF
FF
ENDCHAR
STARTCHAR 25A1
ENCODING 9633
SWIDTH 624 0
DWIDTH 13 0
BBX 8 9 2 1
BITMAP
FF
81
81
81
81
81
81
81
FF
ENDCHAR
STARTCHAR 25B2
ENCODING 9650
SWIDTH 624 0
DWIDTH 13 0
BBX 8 9 2 1
BITMAP
10
18
18
3C
3C
7E
7E
FF
FF
ENDCHAR
STARTCHAR 25B3
ENCODING 9651
SWIDTH 624 0
DWIDTH 13 0
BBX 8 8 2 2
BITMAP
08
18
24
24
42
42
81
FF
ENDCHAR
STARTCHAR 25B6
ENCODING 9654
SWIDTH 624 0
DWIDTH 13 0
BBX 9 9 2 1
BITMAP
8000
E000
F800
FE00
FF80
FE00
F800
E000
8000
ENDCHAR
STARTCHAR 25B7
ENCODING 9655
SWIDTH 624 0
DWIDTH 13 0
BBX 9 9 2 1
BITMAP
8000
E000
9800
8600
8180
8600
9800
E000
8000
ENDCHAR
STARTCHAR 25BC
ENCODING 9660
SWIDTH 624 0
DWIDTH 13 0
BBX 8 8 2 1
BITMAP
FF
7F
7E
3E
3C
1C
18
08
ENDCHAR
STARTCHAR 25BD
ENCODING 9661
SWIDTH 624 0
DWIDTH 13 0
BBX 8 8 2 1
BITMAP
FF
81
42
42
24
24
18
08
ENDCHAR
STARTCHAR 25C0
ENCODING 9664
SWIDTH 624 0
DWIDTH 13 0
BBX 9 9 1 1
BITMAP
0080
0380
0F80
3F80
FF80
3F80
0F80
0380
0080
ENDCHAR
STARTCHAR 25C1
ENCODING 9665
SWIDTH 624 0
DWIDTH 13 0
BBX 9 9 1 1
BITMAP
0080
0380
0C80
3080
C080
3080
0C80
0380
0080
ENDCHAR
STARTCHAR 25C6
ENCODING 9670
SWIDTH 624 0
DWIDTH 13 0
BBX 11 11 1 0
BITMAP
0C00
1E00
3F00
7F80
FFC0
FFE0
7FC0
3F80
1F00
0E00
0400
ENDCHAR
STARTCHAR 25C7
ENCODING 9671
SWIDTH 624 0
DWIDTH 13 0
BBX 11 11 1 0
BITMAP
0C00
1A00
3100
6080
C040
8060
40C0
2180
1300
0E00
0400
ENDCHAR
STARTCHAR 25CA
ENCODING 9674
SWIDTH 480 0
DWIDTH 10 0
BBX 8 12 1 0
BITMAP
08
18
14
26
42
41
81
41
62
24
14
18
ENDCHAR
STARTCHAR 27E8
ENCODING 10216
SWIDTH 336 0
DWIDTH 7 0
BBX 4 20 1 -4
BITMAP
10
10
30
20
20
60
40
40
C0
C0
C0
C0
40
40
60
20
20
30
10
10
ENDCHAR
STARTCHAR 27E9
ENCODING 10217
SWIDTH 336 0
DWIDTH 7 0
BBX 5 20 1 -4
BITMAP
C0
40
40
60
20
20
30
30
10
18
18
10
30
30
20
20
60
40
40
C0
ENDCHAR
STARTCHAR A78B
ENCODING 42891
SWIDTH 240 0
DWIDTH 5 0
BBX 1 8 2 7
BITMAP
80
80
80
80
80
80
80
80
ENDCHAR
STARTCHAR A78C
ENCODING 42892
SWIDTH 240 0
DWIDTH 5 0
BBX 1 7 2 6
BITMAP
80
80
80
80
80
80
80
ENDCHAR
STARTCHAR FB01
ENCODING 64257
SWIDTH 672 0
DWIDTH 14 0
BBX 13 16 0 0
BITMAP
0F10
1818
3000
3000
3000
FE10
3010
3010
3010
3010
3010
3010
3010
3010
3010
3010
ENDCHAR
STARTCHAR FB02
ENCODING 64258
SWIDTH 624 0
DWIDTH 13 0
BBX 11 16 0 0
BITMAP
0F60
1860
3060
3060
3060
FE60
3060
3060
3060
3060
3060
3060
3060
3060
3060
3060
ENDCHAR
ENDFONT
